<svg width="11" height="22" viewBox="0 0 11 22" fill="none" xmlns="http://www.w3.org/2000/svg">
<g clip-path="url(#clip0)">
<rect width="11" height="22" fill="white"/>
<path d="M10.0977 11.9355C10.0977 14.0514 9.73633 15.6237 9.01367 16.6523C8.29102 17.681 7.16146 18.1953 5.625 18.1953C4.10807 18.1953 2.98503 17.694 2.25586 16.6914C1.52669 15.6823 1.14909 14.1784 1.12305 12.1797V9.76758C1.12305 7.67773 1.48438 6.125 2.20703 5.10938C2.92969 4.09375 4.0625 3.58594 5.60547 3.58594C7.13542 3.58594 8.26172 4.07747 8.98438 5.06055C9.70703 6.03711 10.0781 7.54753 10.0977 9.5918V11.9355ZM8.29102 9.46484C8.29102 7.9349 8.07617 6.82161 7.64648 6.125C7.2168 5.42188 6.53646 5.07031 5.60547 5.07031C4.68099 5.07031 4.00716 5.41862 3.58398 6.11523C3.16081 6.81185 2.94271 7.88281 2.92969 9.32812V12.2188C2.92969 13.7552 3.15104 14.8913 3.59375 15.627C4.04297 16.3561 4.72005 16.7207 5.625 16.7207C6.51693 16.7207 7.17773 16.3757 7.60742 15.6855C8.04362 14.9954 8.27148 13.9082 8.29102 12.4238V9.46484Z" fill="black"/>
</g>
<defs>
<clipPath id="clip0">
<rect width="11" height="22" fill="white"/>
</clipPath>
</defs>
</svg>
