<svg width="24" height="24" viewBox="0 0 24 24" fill="none" xmlns="http://www.w3.org/2000/svg">
<path fill-rule="evenodd" clip-rule="evenodd" d="M8.71575 3H9.00919L13.4207 12.7316V3H15.8025C16.7611 3 17.5002 3.11751 18.0124 3.35243C18.5282 3.58682 18.9344 3.94709 19.2344 4.43244C19.5308 4.91847 19.6845 5.4552 19.6845 6.04706C19.6845 6.60272 19.5528 7.10472 19.2856 7.55848C19.0258 8.01121 18.638 8.38174 18.1331 8.66223C18.7588 8.88192 19.2417 9.14169 19.582 9.43467C19.9259 9.73177 20.1857 10.0908 20.3796 10.5129C20.5699 10.9315 20.6613 11.388 20.6613 11.8774C20.6613 12.875 20.3065 13.7206 19.5967 14.4118C18.8868 15.1013 17.9356 15.4487 16.7391 15.4487H13.3517L11.4547 11.3534H6.23916L4.34868 15.4487H3L8.71575 3ZM8.86066 5.64079L6.78059 10.1522H10.9201L8.86066 5.64079ZM18.0417 13.9629C18.4515 13.7838 18.7807 13.5066 19.0332 13.1291C19.282 12.7513 19.4064 12.3431 19.4064 11.9028C19.4064 11.3501 19.2271 10.8671 18.8758 10.4545C18.5282 10.044 18.0453 9.76173 17.4306 9.61075C17.0209 9.5069 16.3037 9.45803 15.283 9.45803H14.6025V14.2292H16.0952C16.9843 14.2292 17.6283 14.1392 18.0417 13.9629ZM16.0001 4.21825H14.6025V8.20517H15.2939C16.1318 8.20517 16.7501 8.12318 17.1416 7.9645C17.5367 7.80383 17.8478 7.54872 18.0783 7.20264C18.3124 6.85592 18.4259 6.4719 18.4259 6.04706C18.4259 5.47732 18.232 5.03012 17.8441 4.708C17.4599 4.38151 16.8452 4.21825 16.0001 4.21825Z" fill="#01488A"/>
<path d="M21 19.6281C18.4183 18.9827 16.2455 19.591 14.1074 20.1896C11.2962 20.9767 8.54514 21.747 5.00392 19.6281C8.03826 20.0763 10.0608 19.4472 11.9329 18.8649C14.4988 18.0668 16.782 17.3566 21 19.6281Z" fill="#01488A"/>
<path d="M10.7163 17.7807C12.3605 17.325 14.0769 16.8493 16.05 17.3531C12.9785 15.6974 11.3147 16.2151 9.44501 16.7968C8.08083 17.2213 6.60704 17.6798 4.39691 17.3531C6.64065 18.9102 8.61969 18.3617 10.7163 17.7807Z" fill="#01488A"/>
</svg>
