<svg width="25" height="25" viewBox="0 0 25 25" fill="none" xmlns="http://www.w3.org/2000/svg">
<path fill-rule="evenodd" clip-rule="evenodd" d="M16.4233 3.00025C16.332 3.00292 16.2425 3.02679 16.1614 3.07009C16.0803 3.11339 16.0097 3.175 15.9549 3.25036C15.4793 3.90141 14.697 4.97571 13.8565 6.23364L13.8502 6.24345L12.6348 8.14294L12.6269 8.15602C11.2627 10.3963 10 12.7526 10 14.6424C10 18.1645 12.9361 20.9948 16.4992 20.9948C20.0627 20.9948 23 18.1645 23 14.6424C23 12.8128 21.8328 10.5559 20.5203 8.38814C19.2077 6.22041 17.7138 4.21636 16.9059 3.2242C16.847 3.1517 16.773 3.0939 16.6894 3.05512C16.6058 3.01634 16.5149 2.99758 16.4233 3.00025ZM14.4612 9.07721C14.5548 9.02822 14.6595 9.00176 14.7661 9.0001C14.8874 8.99801 15.007 9.02805 15.1115 9.08691C15.216 9.14576 15.3014 9.23113 15.3583 9.33354C15.4151 9.43596 15.4412 9.55142 15.4336 9.66713C15.426 9.78283 15.385 9.89427 15.3152 9.98908C13.8582 12.0316 13.2157 13.808 13.326 14.9814C13.3834 15.5928 13.6607 16.188 14.1093 16.5981C14.558 17.0081 15.1662 17.2606 16.037 17.1915C16.1246 17.1815 16.2134 17.1886 16.2981 17.2122C16.3828 17.2358 16.4617 17.2755 16.53 17.3289C16.5983 17.3823 16.6546 17.4482 16.6957 17.5229C16.7367 17.5975 16.7616 17.6793 16.7688 17.7634C16.7761 17.8474 16.7655 17.932 16.7378 18.012C16.7101 18.0921 16.6658 18.166 16.6076 18.2293C16.5493 18.2927 16.4783 18.3441 16.3988 18.3807C16.3193 18.4172 16.2329 18.4381 16.1447 18.442C14.9384 18.5378 13.9072 18.1506 13.2011 17.5053C12.495 16.86 12.1029 15.9839 12.0192 15.0925C11.8617 13.4164 12.6799 11.453 14.2291 9.28127C14.288 9.19624 14.3677 9.1262 14.4612 9.07721Z" fill="#01488A"/>
<path d="M10.8151 8.15068C10.7714 8.21754 10.7279 8.2845 10.6844 8.35155H10.5039V7.5078H8.96679V7.5H7.47266V8.34375H5.5C4.91138 8.34375 4.4375 7.86988 4.4375 7.28125V4.0625C4.4375 3.47388 4.91138 3 5.5 3C6.05768 3 6.44554 3.12965 6.8 3.29272C6.90799 3.3424 7.01288 3.39519 7.11853 3.44835C7.60237 3.69184 8.1021 3.94332 8.98828 3.9414C9.89604 3.9414 10.2926 3.73934 10.7148 3.52419C10.7631 3.49956 10.8118 3.47473 10.8616 3.45004C11.3155 3.22511 11.7539 3.00781 12.4766 3.00781C13.0652 3.00781 13.5391 3.48169 13.5391 4.07031V4.33572C13.1504 4.84342 12.7046 5.43689 12.2391 6.0825C12.1725 6.17479 12.1218 6.25776 12.0735 6.3368C11.996 6.46365 11.9247 6.5804 11.8039 6.70942L10.8236 8.13762L10.8151 8.15068Z" fill="#01488A"/>
<path d="M7.00781 9.47656H9.97681C9.60891 10.0831 9.26641 10.6898 8.97332 11.2854C8.74154 11.2885 8.52073 11.3223 8.30781 11.3789C7.84804 11.5011 7.42504 11.7289 7.00781 11.9805V9.47656Z" fill="#01488A"/>
<path d="M8.30781 11.7217C8.46888 11.6794 8.63441 11.6499 8.80572 11.6367C7.32895 14.8365 8 18.5 11.0304 20.3121C10.2953 20.7653 9.89456 21.0547 9.00781 21.0547C8.12107 21.0547 7.3938 20.6062 6.65876 20.153C6.04147 19.7723 5.4187 19.3883 4.69141 19.2637H3.75586C3.60005 19.2637 3.47461 19.1382 3.47461 18.9824V18.7441H2V13.9395H3.47461V13.7012C3.47461 13.5454 3.60005 13.4199 3.75586 13.4199H4.69141C5.05187 13.3582 5.38665 13.2327 5.70781 13.0755C6.03466 12.9155 6.34741 12.7226 6.65876 12.5306C6.82971 12.4252 7.00023 12.3201 7.17245 12.2207C7.32092 12.1351 7.47065 12.0538 7.62297 11.9805C7.84438 11.8738 8.07128 11.7839 8.30781 11.7217Z" fill="#01488A"/>
<path d="M9.69141 7.94141H8.28516V9.04102H9.69141V7.94141Z" fill="#01488A"/>
</svg>
