<svg width="40" height="40" viewBox="0 0 40 40" fill="none" xmlns="http://www.w3.org/2000/svg">
<g clip-path="url(#clip0)">
<g filter="url(#filter0_d)">
<circle cx="20" cy="20" r="18" stroke="#828282" stroke-width="2"/>
</g>
<g filter="url(#filter1_d)">
<path fill-rule="evenodd" clip-rule="evenodd" d="M14.1111 12.5388C14.1111 12.2383 13.9104 11.9943 13.6629 11.9943C13.4155 11.9943 13.2147 12.2383 13.2147 12.5388V25.3311C13.2147 25.3531 13.2158 25.3747 13.2179 25.3962C13.2701 26.0836 13.4637 26.6269 13.768 27.0544C14.0697 27.478 14.4706 27.7718 14.9432 27.97V27.9701C14.9914 27.9904 15.0409 28 15.0893 28H24.9106C24.9692 28 25.0254 27.9863 25.0766 27.9615C25.5408 27.7633 25.9349 27.4719 26.232 27.0544C26.5389 26.6234 26.7331 26.0747 26.7835 25.3786L26.785 25.3311H26.7852V12.5388C26.7852 12.2383 26.5845 11.9943 26.337 11.9943C26.0896 11.9943 25.8888 12.2383 25.8888 12.5388V12.8779H14.1111V12.5388ZM10.0077 14.94C10.0237 15.5003 10.1681 15.6521 10.4009 15.4127L11.25 14.4382L12.0897 13.4574C12.3259 13.1496 12.3197 12.8247 12.099 12.544L11.25 11.5697L10.4029 10.6147C10.1506 10.3619 10.0122 10.535 10 11.0553C10 11.7545 10.005 14.256 10.0077 14.94ZM29.9923 14.94C29.9763 15.5003 29.8318 15.6521 29.5991 15.4127L28.75 14.4382L27.9103 13.4574C27.6741 13.1496 27.6804 12.8247 27.9011 12.544L28.75 11.5697L29.5973 10.6147C29.8493 10.3619 29.9879 10.535 30 11.0553C30 11.7545 29.9949 14.256 29.9923 14.94Z" fill="#828282"/>
</g>
</g>
<defs>
<filter id="filter0_d" x="0.5" y="0.5" width="40" height="40" filterUnits="userSpaceOnUse" color-interpolation-filters="sRGB">
<feFlood flood-opacity="0" result="BackgroundImageFix"/>
<feColorMatrix in="SourceAlpha" type="matrix" values="0 0 0 0 0 0 0 0 0 0 0 0 0 0 0 0 0 0 127 0"/>
<feOffset dx="0.5" dy="0.5"/>
<feGaussianBlur stdDeviation="0.5"/>
<feColorMatrix type="matrix" values="0 0 0 0 0 0 0 0 0 0 0 0 0 0 0 0 0 0 0.25 0"/>
<feBlend mode="normal" in2="BackgroundImageFix" result="effect1_dropShadow"/>
<feBlend mode="normal" in="SourceGraphic" in2="effect1_dropShadow" result="shape"/>
</filter>
<filter id="filter1_d" x="9.5" y="10" width="22" height="19.5" filterUnits="userSpaceOnUse" color-interpolation-filters="sRGB">
<feFlood flood-opacity="0" result="BackgroundImageFix"/>
<feColorMatrix in="SourceAlpha" type="matrix" values="0 0 0 0 0 0 0 0 0 0 0 0 0 0 0 0 0 0 127 0"/>
<feOffset dx="0.5" dy="0.5"/>
<feGaussianBlur stdDeviation="0.5"/>
<feColorMatrix type="matrix" values="0 0 0 0 0 0 0 0 0 0 0 0 0 0 0 0 0 0 0.25 0"/>
<feBlend mode="normal" in2="BackgroundImageFix" result="effect1_dropShadow"/>
<feBlend mode="normal" in="SourceGraphic" in2="effect1_dropShadow" result="shape"/>
</filter>
<clipPath id="clip0">
<rect width="40" height="40" fill="white"/>
</clipPath>
</defs>
</svg>
