<svg width="24" height="24" viewBox="0 0 24 24" fill="none" xmlns="http://www.w3.org/2000/svg">
<path fill-rule="evenodd" clip-rule="evenodd" d="M5.799 7.98457L3 5.24298L4.269 4L19.335 18.757L18.066 20L14.457 16.465H12.9V14.9399L10.857 12.9388H8.4V11.1758H9.057L7.194 9.35096C5.799 9.50083 4.71 10.6556 4.71 12.0573C4.71 13.5647 5.961 14.7901 7.5 14.7901H11.1V16.465H7.5C5.016 16.465 3 14.4904 3 12.0573C3 10.2149 4.161 8.63691 5.799 7.98457ZM16.5 7.64959H12.9V9.32452H16.5C18.039 9.32452 19.29 10.5499 19.29 12.0573C19.29 13.1769 18.597 14.1466 17.607 14.5609L18.867 15.795C20.145 15.0193 21 13.6353 21 12.0573C21 9.62424 18.984 7.64959 16.5 7.64959ZM14.151 11.1758L15.6 12.595V11.1758H14.151Z" fill="#565656"/>
</svg>
