<svg width="24" height="24" viewBox="0 0 24 24" fill="none" xmlns="http://www.w3.org/2000/svg">
<path d="M17.5137 18.7168V18.9551C17.5137 19.1109 17.3882 19.2363 17.2324 19.2363H16.3359C15.6086 19.3609 14.9859 19.745 14.3686 20.1256C13.6335 20.5789 12.9063 21.0273 12.0195 21.0273C11.1328 21.0273 10.4055 20.5789 9.67048 20.1256C9.05319 19.745 8.43042 19.3609 7.70312 19.2363H6.76758C6.61177 19.2363 6.48633 19.1109 6.48633 18.9551V18.7168H3.01172V13.9121H6.48633V13.6738C6.48633 13.518 6.61177 13.3926 6.76758 13.3926H7.70312C8.06358 13.3308 8.39837 13.2053 8.71953 13.0481C9.04638 12.8881 9.35913 12.6953 9.67048 12.5033C9.84142 12.3979 10.012 12.2927 10.1842 12.1934C10.3326 12.1078 10.4824 12.0265 10.6347 11.9531C10.8561 11.8465 11.083 11.7566 11.3195 11.6944C11.5431 11.6356 11.7753 11.6016 12.0195 11.6016C12.2496 11.6016 12.4689 11.6318 12.6805 11.6844C12.9135 11.7424 13.1371 11.8276 13.355 11.9297C13.5111 12.0028 13.6644 12.0846 13.8162 12.1712C14.0016 12.277 14.1848 12.39 14.3686 12.5033L14.3686 12.5033C14.6675 12.6876 14.9677 12.8727 15.2805 13.0288C15.6135 13.195 15.9608 13.3283 16.3359 13.3926H17.2324C17.3882 13.3926 17.5137 13.518 17.5137 13.6738V13.9121H20.9883V18.7168H17.5137Z" fill="#01488A"/>
<path d="M16.5508 7.26171C16.5508 7.85034 16.0769 8.32421 15.4883 8.32421H13.5156V7.48046H11.9785V7.47266H10.4844V8.31641H8.51172C7.9231 8.31641 7.44922 7.84253 7.44922 7.25391V4.03516C7.44922 3.44653 7.9231 2.97266 8.51172 2.97266C9.0694 2.97265 9.45726 3.1023 9.81172 3.26538C9.91971 3.31506 10.0246 3.36784 10.1302 3.42101C10.6141 3.6645 11.1138 3.91598 12 3.91406C12.8859 3.91214 13.3884 3.66306 13.8734 3.42269C14.3272 3.19776 14.7656 2.98047 15.4883 2.98047C16.0769 2.98047 16.5508 3.45434 16.5508 4.04297V7.26171Z" fill="#01488A"/>
<path d="M11.3195 11.0938C10.8598 11.2159 10.4368 11.4438 10.0195 11.6953V9.44922H13.9805V11.6719C13.564 11.4226 13.141 11.1994 12.6805 11.0837C12.4691 11.0305 12.2497 11 12.0195 11C11.7751 11 11.543 11.0344 11.3195 11.0938Z" fill="#01488A"/>
<path d="M12.7031 7.91406V9.01367H11.2969V7.91406H12.7031Z" fill="#01488A"/>
</svg>
