<svg width="15" height="32" viewBox="0 0 15 32" fill="none" 
    xmlns="http://www.w3.org/2000/svg">
    <g clip-path="url(#clip0)">
        <rect width="15" height="32" fill="white"/>
        <path fill-rule="evenodd" clip-rule="evenodd" d="M0 0H15V32H0V0Z" fill="url(#paint0_linear)"/>
        <g clip-path="url(#clip1)">
            <path d="M12.0977 16.9355C12.0977 19.0514 11.7363 20.6237 11.0137 21.6523C10.291 22.681 9.16146 23.1953 7.625 23.1953C6.10807 23.1953 4.98503 22.694 4.25586 21.6914C3.52669 20.6823 3.14909 19.1784 3.12305 17.1797V14.7676C3.12305 12.6777 3.48438 11.125 4.20703 10.1094C4.92969 9.09375 6.0625 8.58594 7.60547 8.58594C9.13542 8.58594 10.2617 9.07747 10.9844 10.0605C11.707 11.0371 12.0781 12.5475 12.0977 14.5918V16.9355ZM10.291 14.4648C10.291 12.9349 10.0762 11.8216 9.64648 11.125C9.2168 10.4219 8.53646 10.0703 7.60547 10.0703C6.68099 10.0703 6.00716 10.4186 5.58398 11.1152C5.16081 11.8118 4.94271 12.8828 4.92969 14.3281V17.2188C4.92969 18.7552 5.15104 19.8913 5.59375 20.627C6.04297 21.3561 6.72005 21.7207 7.625 21.7207C8.51693 21.7207 9.17773 21.3757 9.60742 20.6855C10.0436 19.9954 10.2715 18.9082 10.291 17.4238V14.4648Z" fill="black"/>
        </g>
        <g clip-path="url(#clip2)">
            <path d="M9.11914 45H7.30273V32.959L3.66016 34.2969V32.6562L8.83594 30.7129H9.11914V45Z" fill="black"/>
        </g>
        <g clip-path="url(#clip3)">
            <path d="M10.1055 -5.25C9.72786 -4.80078 9.27539 -4.43945 8.74805 -4.16602C8.22721 -3.89258 7.6543 -3.75586 7.0293 -3.75586C6.20898 -3.75586 5.49284 -3.95768 4.88086 -4.36133C4.27539 -4.76497 3.80664 -5.33138 3.47461 -6.06055C3.14258 -6.79622 2.97656 -7.60677 2.97656 -8.49219C2.97656 -9.44271 3.1556 -10.2988 3.51367 -11.0605C3.87826 -11.8223 4.39258 -12.4049 5.05664 -12.8086C5.7207 -13.2122 6.49544 -13.4141 7.38086 -13.4141C8.78711 -13.4141 9.89388 -12.8867 10.7012 -11.832C11.515 -10.7839 11.9219 -9.35156 11.9219 -7.53516V-7.00781C11.9219 -4.24089 11.375 -2.2194 10.2812 -0.943359C9.1875 0.326172 7.53711 0.977214 5.33008 1.00977H4.97852V-0.513672H5.35938C6.85026 -0.539714 7.99609 -0.927083 8.79688 -1.67578C9.59766 -2.43099 10.0339 -3.6224 10.1055 -5.25ZM7.32227 -5.25C7.92773 -5.25 8.48438 -5.43555 8.99219 -5.80664C9.50651 -6.17773 9.88086 -6.63672 10.1152 -7.18359V-7.90625C10.1152 -9.09115 9.85807 -10.0547 9.34375 -10.7969C8.82943 -11.5391 8.17839 -11.9102 7.39062 -11.9102C6.59635 -11.9102 5.95833 -11.6042 5.47656 -10.9922C4.99479 -10.3867 4.75391 -9.58594 4.75391 -8.58984C4.75391 -7.61979 4.98503 -6.81901 5.44727 -6.1875C5.91602 -5.5625 6.54102 -5.25 7.32227 -5.25Z" fill="black"/>
        </g>
    </g>
    <defs>
        <linearGradient id="paint0_linear" x1="7.5" y1="0" x2="7.5" y2="32" gradientUnits="userSpaceOnUse">
            <stop offset="0.00" stop-color="#B4B4B4"/>
            <stop offset="0.25" stop-color="#FFFFFF" stop-opacity="0"/>
            <stop offset="0.75" stop-color="#FFFFFF" stop-opacity="0"/>
            <stop offset="1.00" stop-color="#B4B4B4"/>
        </linearGradient>
        <clipPath id="clip0">
            <rect width="15" height="32" fill="white"/>
        </clipPath>
        <clipPath id="clip1">
            <rect x="2" y="5" width="11" height="22" fill="white"/>
        </clipPath>
        <clipPath id="clip2">
            <rect x="2" y="27" width="11" height="22" fill="white"/>
        </clipPath>
        <clipPath id="clip3">
            <rect x="2" y="-17" width="11" height="22" fill="white"/>
        </clipPath>
    </defs>
</svg>
