<svg xmlns="http://www.w3.org/2000/svg" fill="none" viewBox="0 0 15 32"><g clip-path="url(#clip0)"><path fill="#fff" d="M0 0h15v32H0z"/><path fill="url(#paint0_linear)" fill-rule="evenodd" d="M0 0h15v32H0V0z" clip-rule="evenodd"/><g clip-path="url(#clip1)"><path fill="#000" d="M12.098 16.936c0 2.115-.362 3.688-1.084 4.716-.723 1.029-1.853 1.543-3.389 1.543-1.517 0-2.64-.501-3.37-1.504-.728-1.009-1.106-2.513-1.132-4.511v-2.412c0-2.09.361-3.643 1.084-4.659.723-1.015 1.856-1.523 3.398-1.523 1.53 0 2.657.491 3.38 1.474.722.977 1.093 2.487 1.113 4.532v2.344zm-1.807-2.471c0-1.53-.215-2.643-.645-3.34-.43-.703-1.11-1.055-2.04-1.055-.925 0-1.599.349-2.022 1.045-.423.697-.641 1.768-.654 3.213v2.89c0 1.537.221 2.673.664 3.409.449.73 1.126 1.094 2.031 1.094.892 0 1.553-.345 1.982-1.035.437-.69.665-1.778.684-3.262v-2.96z"/></g><g clip-path="url(#clip2)"><path fill="#000" d="M9.12 45H7.302V32.959L3.66 34.297v-1.64l5.176-1.944h.283V45z"/></g><g clip-path="url(#clip3)"><path fill="#000" d="M10.105-5.25c-.377.45-.83.81-1.357 1.084a3.64 3.64 0 01-1.719.41c-.82 0-1.536-.202-2.148-.605-.606-.404-1.074-.97-1.406-1.7-.332-.735-.498-1.546-.498-2.431 0-.95.179-1.807.537-2.568.364-.762.879-1.345 1.543-1.749.664-.403 1.438-.605 2.324-.605 1.406 0 2.513.527 3.32 1.582.814 1.048 1.22 2.48 1.22 4.297v.527c0 2.767-.546 4.789-1.64 6.065C9.187.327 7.537.977 5.331 1.01h-.352V-.514h.38C6.85-.54 7.996-.927 8.797-1.676c.8-.755 1.237-1.946 1.308-3.574zm-2.783 0c.606 0 1.162-.186 1.67-.557.515-.37.889-.83 1.123-1.377v-.722c0-1.185-.257-2.149-.771-2.89-.515-.743-1.166-1.114-1.953-1.114-.795 0-1.433.306-1.914.918-.482.605-.723 1.406-.723 2.402 0 .97.231 1.771.693 2.402.469.625 1.094.938 1.875.938z"/></g></g><defs><clipPath id="clip0"><path fill="#fff" d="M0 0h15v32H0z"/></clipPath><clipPath id="clip1"><path fill="#fff" d="M2 5h11v22H2z"/></clipPath><clipPath id="clip2"><path fill="#fff" d="M2 27h11v22H2z"/></clipPath><clipPath id="clip3"><path fill="#fff" d="M2-17h11V5H2z"/></clipPath><linearGradient id="paint0_linear" x1="7.5" x2="7.5" y1="0" y2="32" gradientUnits="userSpaceOnUse"><stop offset="0" stop-color="#B4B4B4"/><stop offset=".25" stop-color="#FFF" stop-opacity="0"/><stop offset=".75" stop-color="#FFF" stop-opacity="0"/><stop offset="1" stop-color="#B4B4B4"/></linearGradient></defs></svg>