<svg width="15" height="32" viewBox="0 0 15 32" fill="none" xmlns="http://www.w3.org/2000/svg">
<rect width="15" height="32" fill="white"/>
<path fill-rule="evenodd" clip-rule="evenodd" d="M0 0H15V32H0V0Z" fill="url(#paint0_linear)"/>
<g clip-path="url(#clip0)">
<path d="M12.0977 16.9355C12.0977 19.0514 11.7363 20.6237 11.0137 21.6523C10.291 22.681 9.16146 23.1953 7.625 23.1953C6.10807 23.1953 4.98503 22.694 4.25586 21.6914C3.52669 20.6823 3.14909 19.1784 3.12305 17.1797V14.7676C3.12305 12.6777 3.48438 11.125 4.20703 10.1094C4.92969 9.09375 6.0625 8.58594 7.60547 8.58594C9.13542 8.58594 10.2617 9.07747 10.9844 10.0605C11.707 11.0371 12.0781 12.5475 12.0977 14.5918V16.9355ZM10.291 14.4648C10.291 12.9349 10.0762 11.8216 9.64648 11.125C9.2168 10.4219 8.53646 10.0703 7.60547 10.0703C6.68099 10.0703 6.00716 10.4186 5.58398 11.1152C5.16081 11.8118 4.94271 12.8828 4.92969 14.3281V17.2188C4.92969 18.7552 5.15104 19.8913 5.59375 20.627C6.04297 21.3561 6.72005 21.7207 7.625 21.7207C8.51693 21.7207 9.17773 21.3757 9.60742 20.6855C10.0436 19.9954 10.2715 18.9082 10.291 17.4238V14.4648Z" fill="black"/>
</g>
<g clip-path="url(#clip1)">
<path d="M9.11914 23H7.30273V10.959L3.66016 12.2969V10.6562L8.83594 8.71289H9.11914V23Z" fill="black"/>
</g>
<g clip-path="url(#clip2)">
<path d="M12.498 23H3.18164V21.7012L8.10352 16.2324C8.83268 15.4056 9.33398 14.735 9.60742 14.2207C9.88737 13.6999 10.0273 13.1628 10.0273 12.6094C10.0273 11.8672 9.80273 11.2585 9.35352 10.7832C8.9043 10.3079 8.30534 10.0703 7.55664 10.0703C6.6582 10.0703 5.95833 10.3275 5.45703 10.8418C4.96224 11.3496 4.71484 12.0592 4.71484 12.9707H2.9082C2.9082 11.6621 3.32812 10.6042 4.16797 9.79688C5.01432 8.98958 6.14388 8.58594 7.55664 8.58594C8.87826 8.58594 9.92318 8.93424 10.6914 9.63086C11.4596 10.321 11.8438 11.2422 11.8438 12.3945C11.8438 13.7943 10.9518 15.4609 9.16797 17.3945L5.35938 21.5254H12.498V23Z" fill="black"/>
</g>
<g clip-path="url(#clip3)">
<path d="M5.80859 15.0117H7.16602C8.01888 14.9987 8.68945 14.7741 9.17773 14.3379C9.66602 13.9017 9.91016 13.3125 9.91016 12.5703C9.91016 10.9036 9.08008 10.0703 7.41992 10.0703C6.63867 10.0703 6.01367 10.2949 5.54492 10.7441C5.08268 11.1868 4.85156 11.776 4.85156 12.5117H3.04492C3.04492 11.3854 3.45508 10.4512 4.27539 9.70898C5.10221 8.96029 6.15039 8.58594 7.41992 8.58594C8.76107 8.58594 9.8125 8.94076 10.5742 9.65039C11.3359 10.36 11.7168 11.3464 11.7168 12.6094C11.7168 13.2279 11.515 13.8268 11.1113 14.4062C10.7142 14.9857 10.1706 15.4186 9.48047 15.7051C10.2617 15.9525 10.8639 16.3626 11.2871 16.9355C11.7168 17.5085 11.9316 18.2083 11.9316 19.0352C11.9316 20.3112 11.515 21.3236 10.6816 22.0723C9.84831 22.821 8.76432 23.1953 7.42969 23.1953C6.09505 23.1953 5.00781 22.834 4.16797 22.1113C3.33464 21.3887 2.91797 20.4349 2.91797 19.25H4.73438C4.73438 19.9987 4.97852 20.5977 5.4668 21.0469C5.95508 21.4961 6.60938 21.7207 7.42969 21.7207C8.30208 21.7207 8.9694 21.4928 9.43164 21.0371C9.89388 20.5814 10.125 19.9271 10.125 19.0742C10.125 18.2474 9.87109 17.6126 9.36328 17.1699C8.85547 16.7272 8.12305 16.4993 7.16602 16.4863H5.80859V15.0117Z" fill="black"/>
</g>
<g clip-path="url(#clip4)">
<path d="M10.8086 18.2246H12.7812V19.6992H10.8086V23H8.99219V19.6992H2.51758V18.6348L8.88477 8.78125H10.8086V18.2246ZM4.56836 18.2246H8.99219V11.252L8.77734 11.6426L4.56836 18.2246Z" fill="black"/>
</g>
<g clip-path="url(#clip5)">
<path d="M4.01172 15.8711L4.73438 8.78125H12.0195V10.4512H6.26758L5.83789 14.3281C6.53451 13.918 7.32552 13.7129 8.21094 13.7129C9.50651 13.7129 10.5352 14.1426 11.2969 15.002C12.0586 15.8548 12.4395 17.0104 12.4395 18.4688C12.4395 19.9336 12.0423 21.0892 11.248 21.9355C10.4603 22.7754 9.35677 23.1953 7.9375 23.1953C6.68099 23.1953 5.6556 22.847 4.86133 22.1504C4.06706 21.4538 3.61458 20.4902 3.50391 19.2598H5.21289C5.32357 20.0736 5.61328 20.6888 6.08203 21.1055C6.55078 21.5156 7.16927 21.7207 7.9375 21.7207C8.77734 21.7207 9.4349 21.4342 9.91016 20.8613C10.3919 20.2884 10.6328 19.4974 10.6328 18.4883C10.6328 17.5378 10.3724 16.776 9.85156 16.2031C9.33724 15.6237 8.65039 15.334 7.79102 15.334C7.00326 15.334 6.38477 15.5065 5.93555 15.8516L5.45703 16.2422L4.01172 15.8711Z" fill="black"/>
</g>
<g clip-path="url(#clip6)">
<path d="M10.2715 8.77148V10.3047H9.93945C8.5332 10.3307 7.41341 10.7474 6.58008 11.5547C5.74674 12.362 5.26497 13.498 5.13477 14.9629C5.88346 14.1035 6.9056 13.6738 8.20117 13.6738C9.43815 13.6738 10.4245 14.11 11.1602 14.9824C11.9023 15.8548 12.2734 16.9811 12.2734 18.3613C12.2734 19.8262 11.873 20.998 11.0723 21.877C10.278 22.7559 9.21029 23.1953 7.86914 23.1953C6.50846 23.1953 5.40495 22.6745 4.55859 21.6328C3.71224 20.5846 3.28906 19.237 3.28906 17.5898V16.8965C3.28906 14.2793 3.8457 12.2806 4.95898 10.9004C6.07878 9.51367 7.74219 8.80404 9.94922 8.77148H10.2715ZM7.89844 15.1777C7.27995 15.1777 6.71029 15.3633 6.18945 15.7344C5.66862 16.1055 5.30729 16.571 5.10547 17.1309V17.7949C5.10547 18.9668 5.36914 19.9108 5.89648 20.627C6.42383 21.3431 7.08138 21.7012 7.86914 21.7012C8.68294 21.7012 9.32096 21.4017 9.7832 20.8027C10.252 20.2038 10.4863 19.4193 10.4863 18.4492C10.4863 17.4727 10.2487 16.6849 9.77344 16.0859C9.30469 15.4805 8.67969 15.1777 7.89844 15.1777Z" fill="black"/>
</g>
<g clip-path="url(#clip7)">
<path d="M12.3613 9.79688L6.47266 23H4.57812L10.4473 10.2656H2.75195V8.78125H12.3613V9.79688Z" fill="black"/>
</g>
<g clip-path="url(#clip8)">
<path d="M11.8047 12.4922C11.8047 13.2018 11.6159 13.8333 11.2383 14.3867C10.8672 14.9401 10.3626 15.373 9.72461 15.6855C10.4668 16.0046 11.0527 16.4701 11.4824 17.082C11.9186 17.694 12.1367 18.3874 12.1367 19.1621C12.1367 20.3926 11.7201 21.3724 10.8867 22.1016C10.0599 22.8307 8.9694 23.1953 7.61523 23.1953C6.24805 23.1953 5.15104 22.8307 4.32422 22.1016C3.50391 21.3659 3.09375 20.3861 3.09375 19.1621C3.09375 18.3939 3.30208 17.7005 3.71875 17.082C4.14193 16.4635 4.72461 15.9948 5.4668 15.6758C4.83529 15.3633 4.33724 14.9303 3.97266 14.377C3.60807 13.8236 3.42578 13.1953 3.42578 12.4922C3.42578 11.2943 3.8099 10.3438 4.57812 9.64062C5.34635 8.9375 6.35872 8.58594 7.61523 8.58594C8.86523 8.58594 9.87435 8.9375 10.6426 9.64062C11.4173 10.3438 11.8047 11.2943 11.8047 12.4922ZM10.3301 19.123C10.3301 18.3288 10.0762 17.681 9.56836 17.1797C9.06706 16.6784 8.40951 16.4277 7.5957 16.4277C6.7819 16.4277 6.1276 16.6751 5.63281 17.1699C5.14453 17.6647 4.90039 18.3158 4.90039 19.123C4.90039 19.9303 5.13802 20.5651 5.61328 21.0273C6.09505 21.4896 6.76237 21.7207 7.61523 21.7207C8.46159 21.7207 9.12565 21.4896 9.60742 21.0273C10.0892 20.5586 10.3301 19.9238 10.3301 19.123ZM7.61523 10.0703C6.9056 10.0703 6.32943 10.2917 5.88672 10.7344C5.45052 11.1706 5.23242 11.7663 5.23242 12.5215C5.23242 13.2441 5.44727 13.8301 5.87695 14.2793C6.31315 14.722 6.89258 14.9434 7.61523 14.9434C8.33789 14.9434 8.91406 14.722 9.34375 14.2793C9.77995 13.8301 9.99805 13.2441 9.99805 12.5215C9.99805 11.7988 9.77344 11.2096 9.32422 10.7539C8.875 10.2982 8.30534 10.0703 7.61523 10.0703Z" fill="black"/>
</g>
<g clip-path="url(#clip9)">
<path d="M10.1055 16.75C9.72786 17.1992 9.27539 17.5605 8.74805 17.834C8.22721 18.1074 7.6543 18.2441 7.0293 18.2441C6.20898 18.2441 5.49284 18.0423 4.88086 17.6387C4.27539 17.235 3.80664 16.6686 3.47461 15.9395C3.14258 15.2038 2.97656 14.3932 2.97656 13.5078C2.97656 12.5573 3.1556 11.7012 3.51367 10.9395C3.87826 10.1777 4.39258 9.59505 5.05664 9.19141C5.7207 8.78776 6.49544 8.58594 7.38086 8.58594C8.78711 8.58594 9.89388 9.11328 10.7012 10.168C11.515 11.2161 11.9219 12.6484 11.9219 14.4648V14.9922C11.9219 17.7591 11.375 19.7806 10.2812 21.0566C9.1875 22.3262 7.53711 22.9772 5.33008 23.0098H4.97852V21.4863H5.35938C6.85026 21.4603 7.99609 21.0729 8.79688 20.3242C9.59766 19.569 10.0339 18.3776 10.1055 16.75ZM7.32227 16.75C7.92773 16.75 8.48438 16.5645 8.99219 16.1934C9.50651 15.8223 9.88086 15.3633 10.1152 14.8164V14.0938C10.1152 12.9089 9.85807 11.9453 9.34375 11.2031C8.82943 10.4609 8.17839 10.0898 7.39062 10.0898C6.59635 10.0898 5.95833 10.3958 5.47656 11.0078C4.99479 11.6133 4.75391 12.4141 4.75391 13.4102C4.75391 14.3802 4.98503 15.181 5.44727 15.8125C5.91602 16.4375 6.54102 16.75 7.32227 16.75Z" fill="black"/>
</g>
<defs>
<linearGradient id="paint0_linear" x1="7.5" y1="0" x2="7.5" y2="32" gradientUnits="userSpaceOnUse">
<stop stop-color="#B4B4B4"/>
<stop offset="0.1875" stop-color="white" stop-opacity="0"/>
<stop offset="0.833333" stop-color="white" stop-opacity="0"/>
<stop offset="1" stop-color="#AAA9A9"/>
</linearGradient>
<clipPath id="clip0">
<rect x="2" y="5" width="11" height="22" fill="white"/>
</clipPath>
<clipPath id="clip1">
<rect x="2" y="5" width="11" height="22" fill="white"/>
</clipPath>
<clipPath id="clip2">
<rect x="2" y="5" width="11" height="22" fill="white"/>
</clipPath>
<clipPath id="clip3">
<rect x="2" y="5" width="11" height="22" fill="white"/>
</clipPath>
<clipPath id="clip4">
<rect x="2" y="5" width="11" height="22" fill="white"/>
</clipPath>
<clipPath id="clip5">
<rect x="2" y="5" width="11" height="22" fill="white"/>
</clipPath>
<clipPath id="clip6">
<rect x="2" y="5" width="11" height="22" fill="white"/>
</clipPath>
<clipPath id="clip7">
<rect x="2" y="5" width="11" height="22" fill="white"/>
</clipPath>
<clipPath id="clip8">
<rect x="2" y="5" width="11" height="22" fill="white"/>
</clipPath>
<clipPath id="clip9">
<rect x="2" y="5" width="11" height="22" fill="white"/>
</clipPath>
</defs>
</svg>
