<svg xmlns="http://www.w3.org/2000/svg" fill="none" viewBox="0 0 15 32">
    <path fill="#fff" d="M0 0h15v32H0z"/>
    <path fill="url(#paint0_linear)" fill-rule="evenodd" d="M0 0h15v32H0V0z" clip-rule="evenodd"/>
    <g clip-path="url(#clip0)">
        <path fill="#000" d="M12.098 16.936c0 2.115-.362 3.688-1.084 4.716-.723 1.029-1.853 1.543-3.389 1.543-1.517 0-2.64-.501-3.37-1.504-.728-1.009-1.106-2.513-1.132-4.511v-2.412c0-2.09.361-3.643 1.084-4.659.723-1.015 1.856-1.523 3.398-1.523 1.53 0 2.657.491 3.38 1.474.722.977 1.093 2.487 1.113 4.532v2.344zm-1.807-2.471c0-1.53-.215-2.643-.645-3.34-.43-.703-1.11-1.055-2.04-1.055-.925 0-1.599.349-2.022 1.045-.423.697-.641 1.768-.654 3.213v2.89c0 1.537.221 2.673.664 3.409.449.73 1.126 1.094 2.031 1.094.892 0 1.553-.345 1.982-1.035.437-.69.665-1.778.684-3.262v-2.96z"/>
    </g>
    <g clip-path="url(#clip1)">
        <path fill="#000" d="M9.12 23H7.302V10.959L3.66 12.297v-1.64l5.176-1.944h.283V23z"/>
    </g>
    <g clip-path="url(#clip2)">
        <path fill="#000" d="M12.498 23H3.182v-1.299l4.922-5.469c.729-.826 1.23-1.497 1.503-2.011.28-.521.42-1.058.42-1.612 0-.742-.224-1.35-.673-1.826-.45-.475-1.049-.713-1.797-.713-.899 0-1.599.258-2.1.772-.495.508-.742 1.217-.742 2.129H2.908c0-1.309.42-2.367 1.26-3.174.846-.807 1.976-1.211 3.389-1.211 1.321 0 2.366.348 3.134 1.045.769.69 1.153 1.611 1.153 2.764 0 1.4-.892 3.066-2.676 5l-3.809 4.13h7.139V23z"/>
    </g>
    <g clip-path="url(#clip3)">
        <path fill="#000" d="M5.809 15.012h1.357c.853-.013 1.523-.238 2.012-.674.488-.436.732-1.025.732-1.768 0-1.666-.83-2.5-2.49-2.5-.781 0-1.406.225-1.875.674-.462.443-.693 1.032-.693 1.768H3.045c0-1.127.41-2.06 1.23-2.803.827-.749 1.875-1.123 3.145-1.123 1.341 0 2.393.355 3.154 1.064.762.71 1.143 1.696 1.143 2.96 0 .618-.202 1.217-.606 1.796-.397.58-.94 1.013-1.63 1.3.78.247 1.383.657 1.806 1.23.43.573.645 1.272.645 2.1 0 1.275-.417 2.288-1.25 3.036-.834.749-1.918 1.123-3.252 1.123-1.335 0-2.422-.361-3.262-1.084-.833-.722-1.25-1.676-1.25-2.861h1.816c0 .749.245 1.348.733 1.797.488.45 1.142.674 1.963.674.872 0 1.54-.228 2.002-.684.462-.456.693-1.11.693-1.963 0-.827-.254-1.461-.762-1.904-.508-.443-1.24-.67-2.197-.684H5.809v-1.474z"/>
    </g>
    <g clip-path="url(#clip4)">
        <path fill="#000" d="M10.809 18.225h1.972v1.474H10.81V23H8.992v-3.3H2.518v-1.065L8.885 8.78h1.924v9.444zm-6.24 0h4.423v-6.973l-.215.39-4.209 6.583z"/>
    </g>
    <g clip-path="url(#clip5)">
        <path fill="#000" d="M4.012 15.871l.722-7.09h7.286v1.67H6.268l-.43 3.877c.697-.41 1.488-.615 2.373-.615 1.296 0 2.324.43 3.086 1.289.762.853 1.143 2.008 1.143 3.467 0 1.465-.398 2.62-1.192 3.466-.788.84-1.891 1.26-3.31 1.26-1.257 0-2.282-.348-3.077-1.045-.794-.696-1.246-1.66-1.357-2.89h1.709c.11.814.4 1.429.869 1.845.469.41 1.087.616 1.856.616.84 0 1.497-.287 1.972-.86.482-.573.723-1.364.723-2.373 0-.95-.26-1.712-.781-2.285-.515-.58-1.202-.869-2.061-.869-.788 0-1.406.173-1.855.518l-.479.39-1.445-.37z"/>
    </g>
    <g clip-path="url(#clip6)">
        <path fill="#000" d="M10.271 8.771v1.534H9.94c-1.406.026-2.526.442-3.359 1.25-.833.807-1.315 1.943-1.445 3.408.748-.86 1.77-1.29 3.066-1.29 1.237 0 2.223.437 2.96 1.31.741.872 1.112 1.998 1.112 3.378 0 1.465-.4 2.637-1.2 3.516-.795.879-1.863 1.318-3.204 1.318-1.36 0-2.464-.52-3.31-1.562-.847-1.048-1.27-2.396-1.27-4.043v-.694c0-2.617.557-4.615 1.67-5.996 1.12-1.386 2.783-2.096 4.99-2.129h.322zm-2.373 6.407c-.618 0-1.188.185-1.709.556-.52.371-.882.837-1.084 1.397v.664c0 1.172.264 2.116.791 2.832.528.716 1.185 1.074 1.973 1.074.814 0 1.452-.3 1.914-.898.469-.6.703-1.384.703-2.354 0-.976-.237-1.764-.713-2.363-.468-.605-1.093-.908-1.875-.908z"/>
    </g>
    <g clip-path="url(#clip7)">
        <path fill="#000" d="M12.361 9.797L6.473 23H4.578l5.87-12.734H2.751V8.78h9.61v1.016z"/>
    </g>
    <g clip-path="url(#clip8)">
        <path fill="#000" d="M11.805 12.492c0 .71-.19 1.341-.567 1.895a3.784 3.784 0 01-1.513 1.298c.742.32 1.328.785 1.757 1.397.437.612.655 1.305.655 2.08 0 1.23-.417 2.21-1.25 2.94-.827.729-1.918 1.093-3.272 1.093-1.367 0-2.464-.364-3.29-1.093-.821-.736-1.231-1.716-1.231-2.94 0-.768.208-1.461.625-2.08.423-.619 1.006-1.087 1.748-1.406a3.727 3.727 0 01-1.494-1.299 3.349 3.349 0 01-.547-1.885c0-1.198.384-2.148 1.152-2.851.768-.704 1.78-1.055 3.037-1.055 1.25 0 2.26.351 3.028 1.055.774.703 1.162 1.653 1.162 2.851zm-1.475 6.631c0-.794-.254-1.442-.762-1.943-.5-.502-1.158-.752-1.972-.752-.814 0-1.468.247-1.963.742-.488.495-.733 1.146-.733 1.953 0 .807.238 1.442.713 1.904.482.463 1.15.694 2.002.694.847 0 1.51-.231 1.992-.694.482-.468.723-1.103.723-1.904zM7.615 10.07c-.71 0-1.286.222-1.728.664-.436.437-.655 1.032-.655 1.787 0 .723.215 1.31.645 1.758.436.443 1.016.664 1.738.664.723 0 1.3-.221 1.729-.664.436-.449.654-1.035.654-1.758 0-.722-.225-1.311-.674-1.767-.449-.456-1.019-.684-1.709-.684z"/>
    </g>
    <g clip-path="url(#clip9)">
        <path fill="#000" d="M10.105 16.75c-.377.45-.83.81-1.357 1.084-.52.273-1.094.41-1.719.41-.82 0-1.536-.202-2.148-.605-.606-.404-1.074-.97-1.406-1.7-.332-.735-.498-1.546-.498-2.431 0-.95.179-1.807.537-2.568.364-.762.879-1.345 1.543-1.749.664-.403 1.438-.605 2.324-.605 1.406 0 2.513.527 3.32 1.582.814 1.048 1.22 2.48 1.22 4.297v.527c0 2.767-.546 4.789-1.64 6.065-1.094 1.27-2.744 1.92-4.95 1.953h-.352v-1.524h.38c1.491-.026 2.637-.413 3.438-1.162.8-.755 1.237-1.946 1.308-3.574zm-2.783 0c.606 0 1.162-.186 1.67-.557.515-.37.889-.83 1.123-1.377v-.722c0-1.185-.257-2.149-.771-2.89-.515-.743-1.166-1.114-1.953-1.114-.795 0-1.433.306-1.914.918-.482.605-.723 1.406-.723 2.402 0 .97.231 1.771.693 2.402.469.626 1.094.938 1.875.938z"/>
    </g>
    <defs>
        <clipPath id="clip0">
            <path fill="#fff" d="M2 5h11v22H2z"/>
        </clipPath>
        <clipPath id="clip1">
            <path fill="#fff" d="M2 5h11v22H2z"/>
        </clipPath>
        <clipPath id="clip2">
            <path fill="#fff" d="M2 5h11v22H2z"/>
        </clipPath>
        <clipPath id="clip3">
            <path fill="#fff" d="M2 5h11v22H2z"/>
        </clipPath>
        <clipPath id="clip4">
            <path fill="#fff" d="M2 5h11v22H2z"/>
        </clipPath>
        <clipPath id="clip5">
            <path fill="#fff" d="M2 5h11v22H2z"/>
        </clipPath>
        <clipPath id="clip6">
            <path fill="#fff" d="M2 5h11v22H2z"/>
        </clipPath>
        <clipPath id="clip7">
            <path fill="#fff" d="M2 5h11v22H2z"/>
        </clipPath>
        <clipPath id="clip8">
            <path fill="#fff" d="M2 5h11v22H2z"/>
        </clipPath>
        <clipPath id="clip9">
            <path fill="#fff" d="M2 5h11v22H2z"/>
        </clipPath>
        <linearGradient id="paint0_linear" x1="7.5" x2="7.5" y1="0" y2="32" gradientUnits="userSpaceOnUse">
            <stop stop-color="#B4B4B4"/>
            <stop offset=".188" stop-color="#fff" stop-opacity="0"/>
            <stop offset=".833" stop-color="#fff" stop-opacity="0"/>
            <stop offset="1" stop-color="#AAA9A9"/>
        </linearGradient>
    </defs>
</svg>