<svg width="24" height="24" viewBox="0 0 24 24" fill="none" xmlns="http://www.w3.org/2000/svg">
<path fill-rule="evenodd" clip-rule="evenodd" d="M3 12C3 7.032 7.032 3 12 3C16.968 3 21 7.032 21 12C21 16.968 16.968 21 12 21C7.032 21 3 16.968 3 12ZM12 5.69999C13.494 5.69999 14.7 6.90599 14.7 8.39999C14.7 9.89399 13.494 11.1 12 11.1C10.506 11.1 9.3 9.89399 9.3 8.39999C9.3 6.90599 10.506 5.69999 12 5.69999ZM12 18.48C9.75 18.48 7.5 17.5 6.6 15.582C7 13.5 10.2 12.81 12 12.81C13.791 12.81 17 13.5 17.4 15.582C16.5 17.5 14.25 18.48 12 18.48Z" fill="#01488A"/>
</svg>
