<svg width="24" height="24" viewBox="0 0 24 24" fill="none" xmlns="http://www.w3.org/2000/svg">
<path d="M11.9434 3C11.8448 3.00267 11.7481 3.02654 11.6604 3.06984C11.5728 3.11314 11.4964 3.17475 11.4371 3.2501C10.9231 3.90116 10.0775 4.97545 9.1691 6.23338L9.16226 6.24319L8.38951 7.3606L9.30484 8.31253L10.2501 6.9461L10.2569 6.93629L10.2587 6.93466C10.8827 6.07111 11.3818 5.43391 11.8422 4.84629L11.9605 4.69515C12.8392 5.73492 14.0662 7.23182 15.2582 9.0532C16.6317 11.1517 17.7383 13.4365 17.7383 14.6422C17.7383 15.3425 17.5802 16.0113 17.2933 16.6205L18.2402 17.6053C18.7579 16.7218 19.0519 15.714 19.0519 14.6422C19.0519 12.8125 17.7904 10.5556 16.3717 8.38789C14.953 6.22016 13.3383 4.21611 12.4651 3.22395C12.4014 3.15145 12.3214 3.09365 12.2311 3.05486C12.1407 3.01608 12.0424 2.99732 11.9434 3Z" fill="#DB2B39"/>
<path fill-rule="evenodd" clip-rule="evenodd" d="M6.76104 9.87114L5 8.03966L6.08125 7L18.5812 20L17.5 21.0397L16.2352 19.7243C15.0582 20.5226 13.5983 20.9945 12.0255 20.9945C8.17427 20.9945 5.00077 18.1642 5.00077 14.6422C5.00077 13.2311 5.76171 11.5599 6.76104 9.87114Z" fill="#DB2B39"/>
</svg>
