<svg width="24" height="24" viewBox="0 0 24 24" fill="none" xmlns="http://www.w3.org/2000/svg">
<path d="M11.9434 3C11.8448 3.00267 11.7481 3.02654 11.6604 3.06984C11.5728 3.11314 11.4964 3.17475 11.4371 3.2501C10.9231 3.90116 10.0775 4.97545 9.16909 6.23338C9.16678 6.23663 9.16451 6.2399 9.16226 6.24319L7.84865 8.14268C7.84574 8.14701 7.84287 8.15137 7.84007 8.15576C6.36561 10.396 5.00076 12.7523 5.00076 14.6422C5.00076 18.1642 8.17427 20.9945 12.0255 20.9945C15.8771 20.9945 19.0519 18.1642 19.0519 14.6422C19.0519 12.8125 17.7904 10.5556 16.3717 8.38788C14.953 6.22016 13.3383 4.21611 12.4651 3.22395C12.4014 3.15145 12.3214 3.09365 12.2311 3.05486C12.1407 3.01608 12.0424 2.99732 11.9434 3L11.9434 3ZM11.9605 4.69515C12.8392 5.73492 14.0662 7.23182 15.2582 9.0532C16.6317 11.1517 17.7383 13.4365 17.7383 14.6422C17.7383 17.4428 15.2096 19.7391 12.0255 19.7391C8.84191 19.7391 6.31439 17.4428 6.31439 14.6422C6.31439 13.4135 7.51384 11.0101 8.94332 8.83578L8.95015 8.82598C8.95085 8.82491 8.95111 8.82378 8.9519 8.8227L10.2501 6.9461C10.253 6.9421 10.2541 6.94028 10.2569 6.93629L10.2587 6.93466C10.9365 5.99659 11.4671 5.32562 11.9606 4.69515L11.9605 4.69515ZM10.7872 9.18234C10.6805 9.18399 10.5758 9.21046 10.4822 9.25944C10.3887 9.30843 10.309 9.37847 10.2501 9.4635C8.70088 11.6353 7.88271 13.5987 8.04021 15.2748C8.12394 16.1662 8.51605 17.0422 9.22211 17.6875C9.92818 18.3328 10.9594 18.72 12.1658 18.6242C12.2539 18.6203 12.3403 18.5994 12.4198 18.5629C12.4993 18.5264 12.5703 18.4749 12.6286 18.4116C12.6868 18.3482 12.7311 18.2743 12.7588 18.1943C12.7865 18.1142 12.7971 18.0296 12.7899 17.9456C12.7826 17.8616 12.7577 17.7798 12.7167 17.7051C12.6757 17.6305 12.6193 17.5645 12.551 17.5111C12.4827 17.4577 12.4038 17.4181 12.3191 17.3945C12.2344 17.3708 12.1456 17.3638 12.058 17.3737C11.1872 17.4428 10.579 17.1903 10.1304 16.7803C9.6817 16.3703 9.40441 15.775 9.34698 15.1636C9.23671 13.9902 9.87916 12.2139 11.3362 10.1713C11.406 10.0765 11.447 9.96507 11.4546 9.84936C11.4622 9.73365 11.4361 9.61819 11.3793 9.51578C11.3224 9.41336 11.237 9.328 11.1325 9.26914C11.028 9.21029 10.9084 9.18024 10.7872 9.18234Z" fill="#01488A"/>
</svg>
