<svg width="24" height="24" viewBox="0 0 24 24" fill="none" xmlns="http://www.w3.org/2000/svg">
<path fill-rule="evenodd" clip-rule="evenodd" d="M11.6596 3.07009C11.7473 3.02679 11.844 3.00292 11.9426 3.00025C12.0416 2.99758 12.14 3.01634 12.2303 3.05512C12.3206 3.0939 12.4006 3.1517 12.4643 3.2242C13.3375 4.21636 14.9522 6.22041 16.3709 8.38814C17.7896 10.5559 19.0512 12.8128 19.0512 14.6424C19.0512 18.1645 15.8763 20.9948 12.0247 20.9948C8.17351 20.9948 5 18.1645 5 14.6424C5 12.7526 6.36485 10.3963 7.83931 8.15602L7.84789 8.14294L9.1615 6.24344L9.16833 6.23364C10.0768 4.97571 10.9223 3.90141 11.4364 3.25036C11.4957 3.175 11.572 3.11339 11.6596 3.07009ZM9.76614 9.0001C9.65946 9.00176 9.55481 9.02822 9.46123 9.07721C9.36765 9.1262 9.28797 9.19624 9.22907 9.28127C7.67987 11.453 6.8617 13.4164 7.0192 15.0925C7.10293 15.9839 7.49504 16.86 8.2011 17.5053C8.90717 18.1506 9.9384 18.5378 11.1447 18.442C11.2329 18.4381 11.3193 18.4172 11.3988 18.3807C11.4783 18.3441 11.5493 18.2927 11.6076 18.2293C11.6658 18.166 11.7101 18.0921 11.7378 18.012C11.7655 17.932 11.7761 17.8474 11.7688 17.7634C11.7616 17.6793 11.7367 17.5975 11.6957 17.5229C11.6546 17.4482 11.5983 17.3823 11.53 17.3289C11.4617 17.2755 11.3828 17.2358 11.2981 17.2122C11.2134 17.1886 11.1246 17.1815 11.037 17.1915C10.1662 17.2606 9.55799 17.0081 9.10934 16.5981C8.66069 16.188 8.3834 15.5928 8.32596 14.9814C8.2157 13.808 8.85815 12.0316 10.3152 9.98908C10.385 9.89427 10.426 9.78283 10.4336 9.66713C10.4412 9.55142 10.4151 9.43596 10.3583 9.33354C10.3014 9.23113 10.216 9.14576 10.1115 9.08691C10.007 9.02805 9.88743 8.99801 9.76614 9.0001Z" fill="#01488A"/>
</svg>
