<svg width="24" height="24" viewBox="0 0 24 24" fill="none" xmlns="http://www.w3.org/2000/svg">
<path fill-rule="evenodd" clip-rule="evenodd" d="M7.81512 8.15068C6.35322 10.3886 5 12.7425 5 14.6304C5 18.1488 8.14647 20.9761 11.9649 20.9761C15.7837 20.9761 18.9314 18.1488 18.9314 14.6304C18.9314 12.8026 17.6807 10.548 16.274 8.38256C14.8674 6.21708 13.2665 4.21511 12.4007 3.22397C12.3376 3.15155 12.2583 3.0938 12.1687 3.05506C12.0791 3.01632 11.9816 2.99758 11.8835 3.00025C11.7857 3.00292 11.6898 3.02677 11.6029 3.07002C11.516 3.11327 11.4403 3.17482 11.3815 3.2501C10.8719 3.90048 10.0335 4.97366 9.13281 6.23029L9.12604 6.24009L7.82363 8.13762L7.81512 8.15068ZM8.91873 8.81665L10.211 6.93389C10.8443 6.05062 11.4467 5.25903 11.9235 4.64353C12.7974 5.69854 14.0487 7.3216 15.1698 9.04762C15.8621 10.1134 16.4881 11.1593 16.9393 12.1407C17.3967 13.1359 17.629 13.9699 17.629 14.6304C17.629 17.3864 15.139 19.722 11.9649 19.722C8.79155 19.722 6.30242 17.3868 6.30242 14.6304C6.30242 13.9496 6.5539 13.0815 7.04509 12.0406C7.52882 11.0155 8.19464 9.92512 8.91757 8.81844L8.91873 8.81665Z" fill="#DB2B39"/>
<path d="M11.203 14.0888L10.991 11.2413C10.9513 10.6865 10.9314 10.2882 10.9314 10.0465C10.9314 9.71756 11.0264 9.46194 11.2162 9.27964C11.4105 9.09338 11.6643 9.00025 11.9778 9.00025C12.3575 9.00025 12.6114 9.11914 12.7394 9.35692C12.8674 9.59074 12.9314 9.92958 12.9314 10.3734C12.9314 10.635 12.916 10.9005 12.8851 11.17L12.6003 14.1006C12.5694 14.4494 12.5032 14.7169 12.4016 14.9032C12.3001 15.0894 12.1323 15.1825 11.8983 15.1825C11.6599 15.1825 11.4944 15.0934 11.4016 14.915C11.3089 14.7327 11.2427 14.4573 11.203 14.0888ZM11.9381 18.0002C11.6687 18.0002 11.4325 17.923 11.2295 17.7684C11.0308 17.6099 10.9314 17.3899 10.9314 17.1086C10.9314 16.8629 11.0264 16.6548 11.2162 16.4844C11.4105 16.31 11.6467 16.2228 11.9248 16.2228C12.203 16.2228 12.4392 16.31 12.6334 16.4844C12.8321 16.6548 12.9314 16.8629 12.9314 17.1086C12.9314 17.386 12.8321 17.6039 12.6334 17.7625C12.4348 17.921 12.203 18.0002 11.9381 18.0002Z" fill="#DB2B39"/>
</svg>
