<svg xmlns="http://www.w3.org/2000/svg" fill="none" viewBox="0 0 24 24"><defs/><path fill="#01488A" fill-rule="evenodd" d="M8.72 3H9l4.41 9.73V3h2.38c.96 0 1.7.12 2.21.35.52.24.92.6 1.22 1.08a3.04 3.04 0 01-1.1 4.23c.63.22 1.11.48 1.45.77a3.11 3.11 0 011.08 2.45c0 1-.35 1.84-1.06 2.53a3.93 3.93 0 01-2.86 1.04h-3.39l-1.9-4.1H6.24l-1.9 4.1H3L8.72 3zm.14 2.64l-2.08 4.51h4.14l-2.06-4.5zm9.18 8.32a2.26 2.26 0 00.84-3.5c-.35-.42-.83-.7-1.45-.85-.4-.1-1.13-.15-2.15-.15h-.68v4.77h1.5c.88 0 1.53-.1 1.94-.27zM16 4.22h-1.4V8.2h.7c.83 0 1.45-.09 1.84-.25a2 2 0 00.94-.76c.23-.34.35-.73.35-1.15 0-.57-.2-1.02-.59-1.34-.38-.33-1-.5-1.84-.5z" clip-rule="evenodd"/><path fill="#01488A" d="M21 19.63c-2.58-.65-4.75-.04-6.9.56-2.8.79-5.55 1.56-9.1-.56 3.04.45 5.06-.18 6.93-.77 2.57-.8 4.85-1.5 9.07.77zM10.72 17.78c1.64-.46 3.36-.93 5.33-.43-3.07-1.65-4.74-1.13-6.6-.55-1.37.42-2.84.88-5.05.55 2.24 1.56 4.22 1.01 6.32.43z"/></svg>