<svg width="24" height="25" viewBox="0 0 24 25" fill="none" xmlns="http://www.w3.org/2000/svg">
<path d="M10.8151 8.15068C10.7714 8.21754 10.7279 8.2845 10.6844 8.35155H10.5039V7.5078H8.96679V7.5H7.47266V8.34375H5.5C4.91138 8.34375 4.4375 7.86988 4.4375 7.28125V4.0625C4.4375 3.47388 4.91138 3 5.5 3C6.05768 3 6.44554 3.12965 6.8 3.29272C6.90799 3.3424 7.01288 3.39519 7.11853 3.44835C7.60237 3.69184 8.1021 3.94332 8.98828 3.9414C9.87414 3.93949 10.3767 3.69041 10.8616 3.45004C11.3155 3.22511 11.7539 3.00781 12.4766 3.00781C13.0652 3.00781 13.5391 3.48169 13.5391 4.07031V4.33572C13.1504 4.84342 12.7046 5.43689 12.2391 6.0825V4.24129C11.9819 4.27509 11.7855 4.37165 11.4213 4.5518C10.8854 4.81693 10.1628 5.15827 8.99128 5.16081C7.81273 5.16336 7.08824 4.81639 6.55207 4.54709C6.18929 4.36488 5.99453 4.26755 5.7375 4.23355V7.12434H6.17266V6.28059H10.2668V6.2884H11.8039V6.70942L10.8236 8.13762L10.8151 8.15068Z" fill="#01488A"/>
<path d="M7.00781 9.47656H9.97681C9.60891 10.0831 9.26641 10.6898 8.97332 11.2854C8.74154 11.2885 8.52073 11.3223 8.30781 11.3789C7.84804 11.5011 7.42504 11.7289 7.00781 11.9805V9.47656Z" fill="#01488A"/>
<path d="M8.80572 11.6367C8.63441 11.6499 8.46888 11.6794 8.30781 11.7217C8.07128 11.7839 7.84438 11.8738 7.62297 11.9805C7.47065 12.0538 7.32092 12.1351 7.17245 12.2207C7.00023 12.3201 6.82971 12.4252 6.65876 12.5306C6.34741 12.7226 6.03466 12.9155 5.70781 13.0755C5.38665 13.2327 5.05187 13.3582 4.69141 13.4199H3.75586C3.60005 13.4199 3.47461 13.5454 3.47461 13.7012V13.9395H2V18.7441H3.47461V18.9824C3.47461 19.1382 3.60005 19.2637 3.75586 19.2637H4.69141C5.4187 19.3883 6.04147 19.7723 6.65876 20.153C7.3938 20.6062 8.12107 21.0547 9.00781 21.0547C9.89456 21.0547 10.6218 20.6062 11.3569 20.153C10.5 19.5 10.3429 19.3734 10.3033 19.3409C9.71478 19.6906 9.36215 19.8353 9.00781 19.8353C8.62123 19.8353 8.23666 19.6631 7.54558 19.2402C7.48841 19.2053 7.42808 19.1677 7.36472 19.1283C6.77765 18.7633 5.93026 18.2364 4.92501 18.0641L4.80917 18.0443H4.77461V17.5247H3.3V15.1589H4.77461V14.6393H4.80917L4.92502 14.6195C5.93027 14.4472 6.77766 13.9203 7.36472 13.5552C7.42808 13.5158 7.48841 13.4783 7.54558 13.4434C7.82838 13.2703 8.05985 13.1393 8.26114 13.0448C8.39828 12.5882 8.58411 12.1169 8.80572 11.6367Z" fill="#01488A"/>
<path d="M9.69141 7.94141H8.28516V9.04102H9.69141V7.94141Z" fill="#01488A"/>
<path d="M14.0714 9.2597C14.158 9.21071 14.2548 9.18425 14.3535 9.18259C14.4657 9.1805 14.5763 9.21054 14.673 9.2694C14.7697 9.32825 14.8487 9.41362 14.9013 9.51603C14.9539 9.61845 14.9781 9.73391 14.971 9.84961C14.964 9.96532 14.9261 10.0768 14.8615 10.1716C13.5135 12.2141 12.9191 13.9905 13.0211 15.1639C13.0742 15.7753 13.3308 16.3705 13.7458 16.7806C14.1609 17.1906 14.7236 17.4431 15.5293 17.3739C15.6104 17.364 15.6925 17.3711 15.7709 17.3947C15.8493 17.4183 15.9222 17.458 15.9854 17.5114C16.0486 17.5648 16.1007 17.6307 16.1387 17.7054C16.1767 17.78 16.1997 17.8618 16.2064 17.9458C16.2131 18.0299 16.2033 18.1145 16.1777 18.1945C16.1521 18.2746 16.1111 18.3485 16.0572 18.4118C16.0033 18.4751 15.9376 18.5266 15.864 18.5632C15.7905 18.5997 15.7105 18.6205 15.629 18.6245C14.5129 18.7203 13.5588 18.3331 12.9056 17.6878C12.2523 17.0425 11.8895 16.1664 11.8121 15.275C11.6663 13.5989 12.4233 11.6355 13.8566 9.46376C13.9111 9.37873 13.9848 9.30869 14.0714 9.2597Z" fill="#01488A"/>
<path fill-rule="evenodd" clip-rule="evenodd" d="M15.1614 3.07009C15.2425 3.02679 15.332 3.00292 15.4233 3.00025C15.5149 2.99758 15.6058 3.01634 15.6894 3.05512C15.773 3.0939 15.847 3.1517 15.9059 3.2242C16.7138 4.21636 18.2077 6.22041 19.5203 8.38814C20.8328 10.5559 22 12.8128 22 14.6424C22 18.1645 19.0627 20.9948 15.4992 20.9948C11.9361 20.9948 9 18.1645 9 14.6424C9 12.7526 10.2627 10.3963 11.6269 8.15602L11.6348 8.14294L12.8502 6.24345L12.8565 6.23364C13.697 4.97571 14.4793 3.90141 14.9549 3.25036C15.0097 3.175 15.0803 3.11339 15.1614 3.07009ZM15.4391 4.69545C15.4025 4.74598 15.3657 4.79678 15.3286 4.84795C14.903 5.43519 14.4414 6.07206 13.8646 6.93491L13.863 6.93654L13.8566 6.94635L12.6556 8.82296C12.6552 8.82354 12.6549 8.82413 12.6547 8.82473C12.6544 8.82523 12.6542 8.82574 12.6539 8.82623L12.6476 8.83604C11.3251 11.0103 10.2154 13.4138 10.2154 14.6424C10.2154 17.443 12.5538 19.7393 15.4992 19.7393C18.4451 19.7393 20.7847 17.443 20.7847 14.6424C20.7847 13.4367 19.7608 11.152 18.4901 9.05345C17.3872 7.2321 16.2521 5.73521 15.4391 4.69545Z" fill="#01488A"/>
</svg>
