<svg xmlns="http://www.w3.org/2000/svg" fill="none" viewBox="0 0 24 25"><defs/><path fill="#01488A" d="M10.82 8.15l-.14.2h-.18v-.84H8.97V7.5h-1.5v.84H5.5c-.59 0-1.06-.47-1.06-1.06V4.06C4.44 3.47 4.9 3 5.5 3c.56 0 .95.13 1.3.3l.32.15c.48.24.98.5 1.87.5.88-.01 1.39-.26 1.87-.5.46-.22.9-.44 1.62-.44.59 0 1.06.47 1.06 1.06v.27c-.39.5-.84 1.1-1.3 1.74V4.24c-.26.04-.45.13-.82.31a5.05 5.05 0 01-4.87 0 2.5 2.5 0 00-.81-.32v2.9h.43v-.85h5.63v.43l-.98 1.43v.01zM7 9.48h2.98c-.37.6-.71 1.21-1 1.8-.24 0-.46.04-.67.1-.46.12-.88.35-1.3.6v-2.5zM8.8 11.64a3.81 3.81 0 00-1.63.58l-.51.31c-.31.2-.63.39-.95.55-.32.15-.66.28-1.02.34h-.93a.28.28 0 00-.29.28v.24H2v4.8h1.47v.24c0 .16.13.28.29.28h.93c.73.13 1.35.51 1.97.9.73.45 1.46.9 2.35.9.88 0 1.61-.45 2.35-.9l-1.06-.82c-.59.35-.94.5-1.3.5-.38 0-.76-.18-1.45-.6l-.19-.11c-.58-.37-1.43-.9-2.43-1.07l-.12-.02h-.04v-.52H3.3v-2.36h1.47v-.52h.04l.12-.02a6.88 6.88 0 002.62-1.18c.28-.17.51-.3.71-.4.14-.45.32-.92.55-1.4z"/><path fill="#01488A" d="M9.7 7.94H8.28v1.1h1.4v-1.1zM14.07 9.26a.6.6 0 01.6 0c.1.07.18.15.23.26a.64.64 0 01-.04.65c-1.35 2.04-1.94 3.82-1.84 5 .05.6.31 1.2.73 1.61.41.41.97.66 1.78.6a.59.59 0 01.46.13.62.62 0 01.22.44.65.65 0 01-.15.46.61.61 0 01-.43.21 3.4 3.4 0 01-2.72-.93 3.85 3.85 0 01-1.1-2.42c-.14-1.67.61-3.63 2.05-5.8a.62.62 0 01.21-.21z"/><path fill="#01488A" fill-rule="evenodd" d="M15.16 3.07a.6.6 0 01.75.15c.8 1 2.3 3 3.61 5.17S22 12.8 22 14.64A6.44 6.44 0 0115.5 21 6.43 6.43 0 019 14.64c0-1.89 1.26-4.24 2.63-6.48v-.02l1.22-1.9a85.65 85.65 0 012.1-2.99.61.61 0 01.21-.18zm.28 1.63l-.11.15c-.43.59-.89 1.22-1.47 2.08v.02l-1.2 1.87-.01.02c-1.32 2.17-2.43 4.57-2.43 5.8 0 2.8 2.33 5.1 5.28 5.1s5.28-2.3 5.28-5.1c0-1.2-1.02-3.49-2.29-5.59a44.22 44.22 0 00-3.05-4.35z" clip-rule="evenodd"/></svg>