<svg width="24" height="24" viewBox="0 0 24 24" fill="none" xmlns="http://www.w3.org/2000/svg">
<path fill-rule="evenodd" clip-rule="evenodd" d="M8.68421 3C7.11456 3 5.84211 4.27245 5.84211 5.84211V15.3158C5.84211 16.8854 7.11456 18.1579 8.68421 18.1579H18.1579C19.7275 18.1579 21 16.8854 21 15.3158V5.84211C21 4.27245 19.7275 3 18.1579 3H8.68421ZM4.89474 5.84211C3.5 5.84211 3 6.44944 3 7.73685V18.1579C3 19.7276 4.27245 21 5.84211 21H15.3158C16.5983 21 17.2105 20.5 17.2105 19.1053H6.5C5.5 19.1053 4.89474 18.5 4.89474 17.5V5.84211ZM18 8.75H9V7H18V8.75ZM9 11.375H18V9.625H9V11.375ZM15.75 14H9V12.25H15.75V14Z" fill="#01488A"/>
</svg>
