<svg width="24" height="24" viewBox="0 0 24 24" fill="none" xmlns="http://www.w3.org/2000/svg">
<path fill-rule="evenodd" clip-rule="evenodd" d="M12.9982 4.80557V6.00557H14.1982H15.2622C15.5854 6.00557 15.8 6.26178 15.8 6.50783V19.2977C15.8 19.5399 15.5891 19.8 15.2533 19.8H8.73778C8.41836 19.8 8.2 19.5477 8.2 19.2887V6.50783C8.2 6.26178 8.41463 6.00557 8.73778 6.00557H9.82189H11.0219V4.80557V4.2H12.9982V4.80557ZM14.1982 3H12.9982H11.0219H9.82189V3.60557V4.2V4.80557H8.73778C7.72236 4.80557 7 5.62896 7 6.50783V19.2887C7 20.174 7.71983 21 8.73778 21H15.2533C16.2751 21 17 20.1792 17 19.2977V6.50783C17 5.62896 16.2776 4.80557 15.2622 4.80557H14.1982V4.2V3.60557V3ZM9.5 13.6522L12.625 7L12 12L14.5 11.913L10.75 19L12 13.5L9.5 13.6522Z" fill="#01488A"/>
</svg>
