<svg width="24" height="24" viewBox="0 0 24 24" fill="none" xmlns="http://www.w3.org/2000/svg">
<path d="M9.5 13.5882H14.5V15.7059H9.5V13.5882Z" fill="#01488A"/>
<path d="M14.5 16.7647H9.5V18.8824H14.5V16.7647Z" fill="#01488A"/>
<path fill-rule="evenodd" clip-rule="evenodd" d="M12.9982 6.00557V4.80557V4.2H11.0219V4.80557V6.00557H9.82189H8.73778C8.41463 6.00557 8.2 6.26178 8.2 6.50783V19.2887C8.2 19.5477 8.41836 19.8 8.73778 19.8H15.2533C15.5891 19.8 15.8 19.5399 15.8 19.2977V6.50783C15.8 6.26178 15.5854 6.00557 15.2622 6.00557H14.1982H12.9982ZM12.9982 3H14.1982V3.60557V4.2V4.80557H15.2622C16.2776 4.80557 17 5.62896 17 6.50783V19.2977C17 20.1792 16.2751 21 15.2533 21H8.73778C7.71983 21 7 20.174 7 19.2887V6.50783C7 5.62896 7.72236 4.80557 8.73778 4.80557H9.82189V4.2V3.60557V3H11.0219H12.9982Z" fill="#01488A"/>
</svg>
