<svg xmlns="http://www.w3.org/2000/svg" fill="none" viewBox="0 0 24 24"><defs/><path fill="#828282" d="M12.99 6V4.2H11V6H8.73a.52.52 0 00-.54.5v.42l-1.1-.96c.22-.64.84-1.15 1.64-1.15H9.8V3h4.38v1.8h1.06c1.02 0 1.74.83 1.74 1.7v8.05l-1.2-1.04v-7c0-.25-.21-.5-.54-.5H13z"/><path fill="#828282" fill-rule="evenodd" d="M7 9.66l-3-2.6.98-1.13 15 13-.98 1.14-2-1.74v.97c0 .88-.73 1.7-1.76 1.7H8.73a1.73 1.73 0 01-1.74-1.71V9.66zm8.8 7.63v2c0 .25-.22.51-.56.51H8.73a.53.53 0 01-.54-.51v-8.6l7.6 6.6z" clip-rule="evenodd"/></svg>