<svg width="24" height="24" viewBox="0 0 24 24" fill="none" xmlns="http://www.w3.org/2000/svg">
<path d="M12.9894 6.00557V4.2H11.0131V6.00557H8.72898C8.40583 6.00557 8.1912 6.26178 8.1912 6.50783V6.92192L7.08474 5.96299C7.31108 5.3165 7.9291 4.80557 8.72898 4.80557H9.81309V3H14.1894V4.80557H15.2534C16.2688 4.80557 16.9912 5.62896 16.9912 6.50783V14.5486L15.7912 13.5086V6.50783C15.7912 6.26178 15.5766 6.00557 15.2534 6.00557H12.9894Z" fill="#828282"/>
<path fill-rule="evenodd" clip-rule="evenodd" d="M6.9912 9.65914L4 7.06677L4.9824 5.93324L19.9824 18.9332L19 20.0668L16.9912 18.3258V19.2977C16.9912 20.1792 16.2663 21 15.2445 21H8.72898C7.71103 21 6.9912 20.174 6.9912 19.2887V9.65914ZM15.7912 17.2858V19.2977C15.7912 19.5399 15.5803 19.8 15.2445 19.8H8.72898C8.40955 19.8 8.1912 19.5477 8.1912 19.2887V10.6991L15.7912 17.2858Z" fill="#828282"/>
</svg>
