<svg xmlns="http://www.w3.org/2000/svg" fill="none" viewBox="0 0 24 24"><defs/><g clip-path="url(#clip0)"><path fill="#01488A" fill-rule="evenodd" d="M9.72 5.46c.54.15 1.15.31 1.9.4.43.07.91-.04 1.4-.15.84-.2 1.6-.18 2.44-.05 1.06.17 1.88.07 2.82-.43.28-.16.5-.27.61-.22.13.05.11.12.06.35-.05.24-.13.63-.14 1.33-.01.47.1.74.23 1.03.06.14.12.28.17.45.23.73.37 1.57.5 2.45.15.9.3 1.83.56 2.7.58 1.95 1.17 4.1.25 4.33l-1.86.48c-1.03.27-2.22.58-3.2.82-1.43.08-2.53-.42-3.17-1.48-.11-.02-.14.17-.16.38-.02.24-.06.52-.23.58-.1.1-.24.02-.41-.1-.31-.19-.56-.26-.89-.1-.3.13-.74.34-1.2.12 0-.01 0 0 0 0a6.42 6.42 0 01-4.13 3.46c-1.92.68-5.58-.66-5.25-.57.8.3 3.97.3 4.6.05 1.94-.72 2.97-2.1 3.86-3.88h.01c-.06-.1-.05-.55.15-.63.03-.47-.4-.74-.79-.97l-.12-.08c-.08-.18.07-.28.24-.39.18-.12.39-.25.34-.53-.07-.3-.24-.48-.45-.7-.38-.41-.89-.96-1.11-2.64-.02-.54-.11-1.27-.2-2.04-.24-1.87-.5-3.94.27-4.02 1-.32 1.9-.22 2.9.05zM11 10.21c0-.34.1-.67.3-1.02.2-.34.5-.63.9-.85.39-.23.84-.34 1.36-.34.48 0 .91.1 1.28.29.37.18.65.44.86.76a1.95 1.95 0 01.13 1.85c-.12.22-.26.42-.42.58l-.85.83c-.1.1-.2.2-.27.29a1.12 1.12 0 00-.23.43l-.08.36c-.06.37-.26.55-.6.55a.6.6 0 01-.44-.18c-.11-.12-.17-.3-.17-.53a1.92 1.92 0 01.47-1.34c.15-.17.34-.36.58-.59.22-.2.37-.34.46-.44.1-.1.18-.22.25-.34a.95.95 0 00-.2-1.11c-.2-.2-.46-.3-.77-.3-.37 0-.64.1-.81.3-.17.2-.32.48-.44.86-.11.4-.33.6-.65.6a.63.63 0 01-.47-.2.67.67 0 01-.19-.46zM13.44 16a.78.78 0 01-.54-.2.77.77 0 01-.22-.6c0-.21.07-.4.22-.55a.72.72 0 01.54-.23.7.7 0 01.53.23c.14.15.21.34.21.56 0 .24-.07.44-.22.58a.74.74 0 01-.52.21z" clip-rule="evenodd"/></g><defs><clipPath id="clip0"><path fill="#fff" d="M0 0h24v24H0z"/></clipPath></defs></svg>