<svg width="24" height="24" viewBox="0 0 24 24" fill="none" xmlns="http://www.w3.org/2000/svg">
<g clip-path="url(#clip0)">
<path fill-rule="evenodd" clip-rule="evenodd" d="M9.71706 5.46283C10.2618 5.60956 10.8682 5.77292 11.6149 5.86064C12.0489 5.92677 12.5324 5.8168 13.0195 5.70597C13.8633 5.51404 14.6112 5.52519 15.4623 5.66086C16.5168 5.82895 17.3396 5.73296 18.2759 5.22818C18.5609 5.07451 18.7708 4.96135 18.8949 5.01243C19.0152 5.05797 19.0002 5.12988 18.9517 5.36224C18.9028 5.59625 18.8199 5.99297 18.8071 6.68937C18.7984 7.15668 18.9186 7.43339 19.0423 7.71834C19.103 7.85802 19.1645 7.99971 19.2122 8.16677C19.4421 8.89516 19.577 9.73962 19.7169 10.6152C19.8605 11.5138 20.0094 12.4452 20.2715 13.3177C20.8497 15.2659 21.4443 17.4183 20.5199 17.6499C20.0991 17.7553 19.425 17.9308 18.6558 18.1312C17.6338 18.3974 16.4439 18.7073 15.4568 18.9546C14.0271 19.0293 12.9338 18.5283 12.2859 17.4747C12.175 17.4546 12.1549 17.6384 12.1316 17.8515C12.1053 18.0928 12.0748 18.3716 11.9037 18.4338C11.804 18.5368 11.6616 18.4475 11.4871 18.338C11.1787 18.1445 10.9321 18.0689 10.6026 18.2227C10.306 18.3611 9.86492 18.5669 9.40944 18.3462C9.40797 18.3399 9.4066 18.3572 9.4066 18.3572C8.35106 20.6125 6.553 21.3807 5.26985 21.8064C3.34874 22.4859 -0.312041 21.1512 0.0213017 21.2426C0.812407 21.5355 3.98995 21.5437 4.62552 21.2857C6.56289 20.5691 7.5873 19.1821 8.48376 17.4142L8.49261 17.412C8.42531 17.3074 8.44119 16.8587 8.63772 16.779C8.66968 16.3091 8.23892 16.043 7.85362 15.8051C7.81031 15.7783 7.76758 15.7519 7.72614 15.7256C7.65485 15.5485 7.80131 15.4518 7.96602 15.3431C8.14927 15.2222 8.35511 15.0864 8.30875 14.8082C8.24033 14.5116 8.07106 14.3303 7.86499 14.1095C7.48182 13.6991 6.97141 13.1523 6.74561 11.4749C6.7315 10.9292 6.64049 10.1966 6.54517 9.42929C6.31309 7.56106 6.05547 5.48732 6.8203 5.40675C7.82115 5.09267 8.71192 5.19207 9.71706 5.46283ZM11 10.2087C11 9.87406 11.1017 9.53589 11.305 9.19419C11.5083 8.84897 11.805 8.56363 12.195 8.33818C12.585 8.11273 13.04 8 13.56 8C14.0433 8 14.47 8.09511 14.84 8.28534C15.21 8.47204 15.495 8.72743 15.695 9.05152C15.8983 9.37561 16 9.72787 16 10.1083C16 10.4078 15.9417 10.6702 15.825 10.8956C15.7117 11.1211 15.575 11.3166 15.415 11.4822C15.2583 11.6442 14.975 11.919 14.565 12.3065C14.4517 12.4157 14.36 12.5125 14.29 12.5971C14.2233 12.6781 14.1733 12.7539 14.14 12.8243C14.1067 12.8912 14.08 12.9599 14.06 13.0304C14.0433 13.0973 14.0167 13.2171 13.98 13.3897C13.9167 13.7561 13.7183 13.9392 13.385 13.9392C13.2117 13.9392 13.065 13.8793 12.945 13.7596C12.8283 13.6398 12.77 13.4619 12.77 13.2259C12.77 12.93 12.8133 12.6746 12.9 12.4597C12.9867 12.2413 13.1017 12.0511 13.245 11.889C13.3883 11.7235 13.5817 11.528 13.825 11.3025C14.0383 11.1052 14.1917 10.9573 14.285 10.8587C14.3817 10.7565 14.4617 10.6438 14.525 10.5205C14.5917 10.3972 14.625 10.2633 14.625 10.1189C14.625 9.83708 14.525 9.5993 14.325 9.40555C14.1283 9.2118 13.8733 9.11493 13.56 9.11493C13.1933 9.11493 12.9233 9.21356 12.75 9.41083C12.5767 9.60458 12.43 9.89168 12.31 10.2721C12.1967 10.6702 11.9817 10.8692 11.665 10.8692C11.4783 10.8692 11.32 10.8005 11.19 10.6631C11.0633 10.5222 11 10.3708 11 10.2087ZM13.44 16C13.2367 16 13.0583 15.9313 12.905 15.7939C12.755 15.653 12.68 15.4575 12.68 15.2074C12.68 14.9855 12.7533 14.7988 12.9 14.6473C13.0467 14.4958 13.2267 14.4201 13.44 14.4201C13.65 14.4201 13.8267 14.4958 13.97 14.6473C14.1133 14.7988 14.185 14.9855 14.185 15.2074C14.185 15.454 14.11 15.6477 13.96 15.7886C13.81 15.9295 13.6367 16 13.44 16Z" fill="#01488A"/>
</g>
<defs>
<clipPath id="clip0">
<rect width="24" height="24" fill="white"/>
</clipPath>
</defs>
</svg>
