<svg xmlns="http://www.w3.org/2000/svg" fill="none" viewBox="0 0 24 24"><defs/><path fill="#01488A" fill-rule="evenodd" d="M18.94 12.25c0 .32-.03.61-.06.9l1.95 1.54c.17.13.22.38.11.59l-1.85 3.2a.45.45 0 01-.57.2l-2.3-.92c-.48.36-1 .67-1.56.9l-.35 2.46a.45.45 0 01-.46.38h-3.7a.45.45 0 01-.45-.38l-.35-2.46a6.76 6.76 0 01-1.57-.9l-2.3.92c-.2.08-.45 0-.57-.2l-1.85-3.2a.47.47 0 01.12-.6l1.95-1.52a7.34 7.34 0 010-1.81L3.18 9.82a.46.46 0 01-.12-.6l1.85-3.2c.12-.2.36-.28.57-.2l2.3.93c.48-.36 1-.68 1.57-.9l.35-2.46a.45.45 0 01.45-.39h3.7c.23 0 .43.17.46.39l.35 2.45c.56.23 1.08.54 1.56.9l2.3-.92c.2-.07.46 0 .57.2l1.85 3.2c.11.21.06.46-.11.6l-1.95 1.53c.03.3.06.59.06.9zm-10.18 0a3.24 3.24 0 106.49 0 3.24 3.24 0 00-6.49 0z" clip-rule="evenodd"/></svg>