<svg width="24" height="24" viewBox="0 0 24 24" fill="none" xmlns="http://www.w3.org/2000/svg">
<path fill-rule="evenodd" clip-rule="evenodd" d="M18.9414 12.2525C18.9414 12.5671 18.9136 12.8631 18.8766 13.1592L20.8289 14.6859C21.0047 14.8247 21.051 15.0745 20.9399 15.278L19.0894 18.4794C18.9784 18.683 18.7378 18.7662 18.525 18.683L16.2212 17.7577C15.74 18.1185 15.2219 18.4331 14.6575 18.6644L14.3059 21.1164C14.2782 21.3384 14.0839 21.505 13.8525 21.505H10.1515C9.92024 21.505 9.72593 21.3384 9.69818 21.1164L9.34658 18.6644C8.78218 18.4331 8.26404 18.1278 7.78291 17.7577L5.47905 18.683C5.27549 18.757 5.02567 18.683 4.91464 18.4794L3.06415 15.278C2.95312 15.0745 2.99938 14.8247 3.17518 14.6859L5.12745 13.1592C5.09044 12.8631 5.06268 12.5578 5.06268 12.2525C5.06268 11.9471 5.09044 11.6418 5.12745 11.3457L3.17518 9.81908C2.99938 9.68029 2.94387 9.43047 3.06415 9.22692L4.91464 6.02556C5.02567 5.82201 5.26624 5.73873 5.47905 5.82201L7.78291 6.74725C8.26404 6.38641 8.78218 6.07182 9.34658 5.84051L9.69818 3.3886C9.72593 3.16654 9.92024 3 10.1515 3H13.8525C14.0839 3 14.2782 3.16654 14.3059 3.3886L14.6575 5.84051C15.2219 6.07182 15.74 6.37715 16.2212 6.74725L18.525 5.82201C18.7286 5.74799 18.9784 5.82201 19.0894 6.02556L20.9399 9.22692C21.051 9.43047 21.0047 9.68029 20.8289 9.81908L18.8766 11.3457C18.9136 11.6418 18.9414 11.9379 18.9414 12.2525ZM8.76366 12.2525C8.76366 14.0382 10.2163 15.4908 12.002 15.4908C13.7878 15.4908 15.2404 14.0382 15.2404 12.2525C15.2404 10.4668 13.7878 9.01411 12.002 9.01411C10.2163 9.01411 8.76366 10.4668 8.76366 12.2525Z" fill="#01488A"/>
</svg>
