<svg fill="none" xmlns="http://www.w3.org/2000/svg" viewBox="0 0 24 24">
  <defs/>
  <path fill-rule="evenodd" clip-rule="evenodd" d="M8.716 3h.293l4.412 9.732V3h2.382c.958 0 1.697.118 2.21.352a2.74 2.74 0 011.221 1.08c.297.486.45 1.023.45 1.615 0 .556-.131 1.058-.398 1.511-.26.453-.648.824-1.153 1.104.626.22 1.109.48 1.449.773.344.297.604.656.798 1.078.19.418.281.875.281 1.364 0 .998-.355 1.844-1.064 2.535-.71.69-1.661 1.037-2.858 1.037h-3.387l-1.897-4.096H6.239L4.35 15.45H3L8.716 3zm.145 2.64l-2.08 4.512h4.14L8.86 5.641zm9.18 8.323c.41-.18.74-.456.992-.834.249-.378.373-.786.373-1.226 0-.553-.179-1.036-.53-1.449-.348-.41-.83-.692-1.445-.843-.41-.104-1.127-.153-2.148-.153h-.68v4.771h1.492c.89 0 1.533-.09 1.947-.266zm-2.04-9.745h-1.399v3.987h.692c.838 0 1.456-.082 1.848-.24.395-.161.706-.416.936-.762.234-.347.348-.731.348-1.156 0-.57-.194-1.017-.582-1.339-.384-.326-.999-.49-1.844-.49z" fill="#01488A"/>
  <path d="M21 19.628c-2.582-.645-4.755-.037-6.893.562-2.81.787-5.562 1.557-9.103-.562 3.034.448 5.057-.18 6.929-.763 2.566-.798 4.849-1.508 9.067.763zM10.716 17.78c1.645-.455 3.36-.93 5.334-.427-3.072-1.656-4.735-1.138-6.605-.556-1.364.424-2.838.883-5.048.556 2.244 1.557 4.223 1.009 6.32.428z" fill="#01488A"/>
</svg>
