<svg width="25" height="25" viewBox="0 0 25 25" fill="none" xmlns="http://www.w3.org/2000/svg">
<path fill-rule="evenodd" clip-rule="evenodd" d="M8.1398 3.56474L5.25082 9.6546H11.0001L8.1398 3.56474ZM7.93854 0H8.3461L14.4732 13.1364V0H17.7813C19.1127 0 20.1391 0.158626 20.8506 0.475738C21.567 0.792132 22.1312 1.27846 22.5478 1.93362C22.9594 2.58969 23.1729 3.31423 23.1729 4.11316C23.1729 4.86323 22.99 5.54086 22.619 6.15338C22.2581 6.76452 21.7195 7.26469 21.0182 7.64332C21.8872 7.93988 22.558 8.29053 23.0306 8.68602C23.5082 9.08707 23.8691 9.57177 24.1384 10.1415C24.4026 10.7065 24.5296 11.3227 24.5296 11.9834C24.5296 13.3301 24.0368 14.4715 23.051 15.4045C22.065 16.3353 20.7439 16.8042 19.0822 16.8042H16.1839H14.4732H14.3774L11.7426 11.276H4.49884L1.87316 16.8042H0L7.93854 0ZM20.8913 14.7985C21.4604 14.5568 21.9177 14.1826 22.2683 13.6731C22.6139 13.163 22.7867 12.612 22.7867 12.0176C22.7867 11.2716 22.5376 10.6196 22.0498 10.0627C21.567 9.50857 20.8962 9.1275 20.0426 8.9237C19.4734 8.78351 18.4774 8.71754 17.0598 8.71754H16.1145V15.158H18.1877C19.4226 15.158 20.3171 15.0366 20.8913 14.7985ZM18.0557 1.64449H16.1145V7.02634H17.0749C18.2387 7.02634 19.0974 6.91567 19.6412 6.70147C20.1899 6.48458 20.6219 6.14021 20.942 5.67304C21.2673 5.20502 21.4248 4.68664 21.4248 4.11316C21.4248 3.34407 21.1555 2.74041 20.6168 2.30559C20.0832 1.86487 19.2295 1.64449 18.0557 1.64449ZM25 22.446C21.4143 21.5747 18.3965 22.3959 15.427 23.2039C11.5225 24.2664 7.70157 25.3061 2.78321 22.446C6.99758 23.0509 9.8067 22.2017 12.4069 21.4156C15.9705 20.3383 19.1416 19.3796 25 22.446ZM10.7171 19.9521C13.0006 19.337 15.3845 18.6949 18.125 19.375C13.859 17.14 11.5482 17.8388 8.95138 18.624C7.05668 19.197 5.00975 19.8159 1.94012 19.375C5.05642 21.4768 7.80509 20.7365 10.7171 19.9521Z" fill="#003769"/>
</svg>
