<svg xmlns="http://www.w3.org/2000/svg" fill="none" viewBox="0 0 24 24">
  <path fill="#01488A" d="M10.81 8.15l-.13.2h-.18v-.84H8.97V7.5h-1.5v.84H5.5a1.06 1.06 0 01-1.06-1.06V4.06A1.06 1.06 0 015.5 3c.56 0 .95.13 1.3.3l.32.15c.48.24.98.5 1.87.5.88-.01 1.39-.26 1.87-.5.46-.23.9-.44 1.62-.44a1.06 1.06 0 011.06 1.06v.27a76.03 76.03 0 00-1.3 1.74V4.24c-.26.03-.46.13-.82.31a5.06 5.06 0 01-4.87 0c-.36-.19-.56-.28-.81-.32v2.9h.43v-.85h5.63v.43l-.98 1.43v.01zm-3.8 1.33h2.97c-.37.6-.71 1.21-1 1.8a2.72 2.72 0 00-.67.1c-.46.12-.89.35-1.3.6v-2.5zm1.8 2.16a2.8 2.8 0 00-.5.08 3.81 3.81 0 00-.69.26 6.86 6.86 0 00-.45.24l-.51.31c-.31.2-.62.39-.95.55a3.74 3.74 0 01-1.02.34h-.93a.28.28 0 00-.28.28v.24H2v4.8h1.48v.24a.28.28 0 00.28.28h.93c.73.13 1.35.51 1.97.9.73.45 1.46.9 2.35.9.88 0 1.61-.45 2.35-.9a52.36 52.36 0 01-1.06-.82c-.59.35-.94.5-1.3.5-.38 0-.76-.18-1.45-.6l-.19-.11a6.88 6.88 0 00-2.44-1.07l-.11-.02h-.04v-.52H3.3v-2.36h1.48v-.52h.03l.12-.02c1-.17 1.85-.7 2.44-1.06l.18-.12a7.64 7.64 0 01.71-.4c.14-.45.32-.92.55-1.4z"/>
  <path fill="#01488A" d="M9.7 7.94H8.28v1.1h1.4v-1.1zm4.37 1.32a.6.6 0 01.6.01.62.62 0 01.23.25.64.64 0 01-.04.65c-1.35 2.04-1.94 3.82-1.84 5 .05.6.31 1.2.73 1.61.41.41.97.66 1.78.6a.59.59 0 01.46.13.62.62 0 01.22.44.65.65 0 01-.15.46.61.61 0 01-.43.22 3.4 3.4 0 01-2.72-.94 3.85 3.85 0 01-1.1-2.41c-.14-1.68.61-3.64 2.05-5.82a.62.62 0 01.21-.2z"/>
  <path fill="#01488A" fill-rule="evenodd" d="M15.16 3.07a.6.6 0 01.75.15 49.74 49.74 0 013.61 5.17C20.83 10.56 22 12.8 22 14.64A6.44 6.44 0 0115.5 21 6.44 6.44 0 019 14.64c0-1.89 1.26-4.24 2.63-6.48v-.02l1.22-1.9a85.65 85.65 0 012.1-2.99.61.61 0 01.21-.18zm.28 1.63l-.11.15a60.17 60.17 0 00-1.46 2.09h-.01l-1.2 1.88-.01.02c-1.33 2.17-2.44 4.57-2.44 5.8 0 2.8 2.34 5.1 5.29 5.1 2.94 0 5.28-2.3 5.28-5.1 0-1.2-1.02-3.49-2.29-5.59a44.62 44.62 0 00-3.05-4.36z" clip-rule="evenodd"/>
</svg>
