<svg fill="none" xmlns="http://www.w3.org/2000/svg" viewBox="0 0 24 24">
  <defs/>
  <path fill-rule="evenodd" clip-rule="evenodd" d="M16.423 3a.593.593 0 00-.468.25 85.649 85.649 0 00-2.098 2.984l-.007.01-1.215 1.899-.008.013C11.263 10.396 10 12.753 10 14.642c0 3.523 2.936 6.353 6.5 6.353 3.563 0 6.5-2.83 6.5-6.353 0-1.83-1.167-4.086-2.48-6.254a49.737 49.737 0 00-3.614-5.164.61.61 0 00-.483-.224zm-1.962 6.077a.681.681 0 01.65.01c.105.059.19.144.247.247a.605.605 0 01-.043.655c-1.457 2.043-2.1 3.819-1.989 4.992.057.612.335 1.207.783 1.617.449.41 1.057.663 1.928.594a.684.684 0 01.493.137.607.607 0 01.078.9.656.656 0 01-.463.213c-1.207.096-2.238-.291-2.944-.937a3.73 3.73 0 01-1.182-2.412c-.157-1.677.66-3.64 2.21-5.812a.647.647 0 01.232-.204z" fill="#01488A"/>
  <path d="M10.815 8.15l-.13.202h-.181v-.844H8.967V7.5H7.473v.844H5.5A1.06 1.06 0 014.437 7.28V4.063A1.06 1.06 0 015.5 3c.558 0 .946.13 1.3.293.108.05.213.102.319.155.483.244.983.495 1.87.493.907 0 1.304-.202 1.726-.417.048-.024.097-.05.147-.074.454-.225.892-.442 1.615-.442a1.06 1.06 0 011.062 1.062v.266a76.034 76.034 0 00-1.3 1.746c-.067.093-.117.176-.166.255a2 2 0 01-.27.372l-.98 1.429-.008.013zM7.008 9.477h2.969c-.368.606-.71 1.213-1.004 1.808a2.718 2.718 0 00-.665.094c-.46.122-.883.35-1.3.601V9.477zm1.3 2.245c.16-.043.326-.072.498-.085-1.477 3.2-.806 6.863 2.224 8.675-.735.453-1.135.743-2.022.743-.887 0-1.614-.449-2.35-.902-.617-.38-1.24-.765-1.967-.89h-.935a.28.28 0 01-.281-.28v-.239H2V13.94h1.475v-.24a.28.28 0 01.28-.281h.936c.36-.062.696-.187 1.017-.345.327-.16.64-.352.95-.544.172-.106.342-.21.514-.31.149-.086.299-.167.451-.24.221-.107.448-.197.685-.26z" fill="#01488A"/>
  <path d="M9.691 7.941H8.285v1.1h1.406v-1.1z" fill="#01488A"/>
</svg>
