<svg xmlns="http://www.w3.org/2000/svg" fill="none" viewBox="0 0 24 24">
  <path fill="#01488A" fill-rule="evenodd" d="M16.42 3a.6.6 0 00-.47.25 85.65 85.65 0 00-2.1 2.98v.01l-1.22 1.9v.02C11.26 10.4 10 12.76 10 14.64A6.44 6.44 0 0016.5 21c3.56 0 6.5-2.83 6.5-6.35 0-1.83-1.17-4.08-2.48-6.25a49.74 49.74 0 00-3.61-5.17.61.61 0 00-.49-.22zm-1.96 6.08a.68.68 0 01.65 0c.1.07.2.15.25.25a.6.6 0 01-.05.66c-1.45 2.04-2.1 3.82-1.98 5 .05.6.33 1.2.78 1.6.45.42 1.06.67 1.93.6a.68.68 0 01.49.14.6.6 0 01.08.9.66.66 0 01-.47.21c-1.2.1-2.23-.29-2.94-.94a3.73 3.73 0 01-1.18-2.4c-.16-1.68.66-3.65 2.2-5.82a.65.65 0 01.24-.2z" clip-rule="evenodd"/>
  <path fill="#01488A" d="M10.81 8.15l-.13.2h-.18v-.84H8.97V7.5h-1.5v.84H5.5a1.06 1.06 0 01-1.06-1.06V4.06A1.06 1.06 0 015.5 3c.56 0 .95.13 1.3.3l.32.15c.48.24.98.5 1.87.5.9 0 1.3-.21 1.73-.43l.14-.07c.46-.23.9-.44 1.62-.44a1.06 1.06 0 011.06 1.06v.27a76.03 76.03 0 00-1.3 1.74l-.17.26a2 2 0 01-.27.37l-.98 1.43v.01zm-3.8 1.33h2.97c-.37.6-.71 1.21-1 1.8a2.72 2.72 0 00-.67.1c-.46.12-.89.35-1.3.6v-2.5zm1.3 2.24c.16-.04.32-.07.5-.08-1.48 3.2-.81 6.86 2.22 8.67-.73.46-1.14.75-2.02.75-.89 0-1.62-.45-2.35-.9-.62-.39-1.24-.77-1.97-.9h-.93a.28.28 0 01-.29-.28v-.24H2v-4.8h1.48v-.24a.28.28 0 01.28-.28h.93c.36-.06.7-.19 1.02-.35.33-.16.64-.35.95-.54a23.38 23.38 0 01.96-.55c.22-.1.45-.2.69-.26z"/>
  <path fill="#01488A" d="M9.7 7.94H8.28v1.1h1.4v-1.1z"/>
</svg>
