<svg fill="none" xmlns="http://www.w3.org/2000/svg" viewBox="0 0 24 24">
  <defs/>
  <path d="M10.815 8.15l-.13.202h-.181v-.844H8.967V7.5H7.473v.844H5.5A1.06 1.06 0 014.437 7.28V4.063A1.06 1.06 0 015.5 3c.558 0 .946.13 1.3.293.108.05.213.102.319.155.483.244.983.495 1.87.493.885-.002 1.388-.25 1.873-.491.454-.225.892-.442 1.615-.442a1.06 1.06 0 011.062 1.062v.266a76.034 76.034 0 00-1.3 1.746v-1.84c-.257.033-.454.13-.818.31-.536.265-1.258.606-2.43.609-1.178.002-1.903-.345-2.439-.614-.363-.182-.557-.28-.814-.313v2.89h.435v-.843h4.094v.007h1.537v.421l-.98 1.429-.009.013zM7.008 9.477h2.969c-.368.606-.71 1.213-1.004 1.808a2.718 2.718 0 00-.665.094c-.46.122-.883.35-1.3.601V9.477zm1.798 2.16a2.802 2.802 0 00-.498.085 3.812 3.812 0 00-.685.258 6.863 6.863 0 00-.45.24c-.173.1-.343.205-.514.31-.312.193-.624.386-.951.546a3.744 3.744 0 01-1.017.344h-.935a.28.28 0 00-.281.281v.239H2v4.804h1.475v.238a.28.28 0 00.28.282h.936c.728.124 1.35.508 1.968.889.735.453 1.462.902 2.349.902.887 0 1.614-.449 2.349-.902a52.36 52.36 0 01-1.054-.812c-.588.35-.94.494-1.295.494-.387 0-.771-.172-1.462-.595l-.181-.112c-.587-.365-1.435-.892-2.44-1.064l-.116-.02h-.034v-.52H3.3V15.16h1.475v-.52h.034l.116-.02c1.005-.172 1.853-.699 2.44-1.064l.18-.112a7.64 7.64 0 01.716-.398c.137-.457.323-.928.545-1.408z" fill="#01488A"/>
  <path d="M9.691 7.941H8.285v1.1h1.406v-1.1zm4.38 1.319a.593.593 0 01.602.01.62.62 0 01.228.246.644.644 0 01-.04.656c-1.348 2.042-1.942 3.819-1.84 4.992.053.611.31 1.207.725 1.617.415.41.978.662 1.783.593a.59.59 0 01.456.137.624.624 0 01.221.435.648.648 0 01-.149.466.612.612 0 01-.428.213c-1.116.095-2.07-.292-2.723-.937-.654-.645-1.017-1.522-1.094-2.413-.146-1.676.611-3.64 2.045-5.811a.616.616 0 01.214-.204z" fill="#01488A"/>
  <path fill-rule="evenodd" clip-rule="evenodd" d="M15.161 3.07a.593.593 0 01.745.154 49.737 49.737 0 013.614 5.164c1.313 2.168 2.48 4.425 2.48 6.254 0 3.523-2.937 6.353-6.5 6.353-3.564 0-6.5-2.83-6.5-6.353 0-1.89 1.263-4.246 2.627-6.486l.008-.013 1.215-1.9.007-.01a85.649 85.649 0 012.098-2.983.612.612 0 01.206-.18zm.278 1.625l-.11.153a60.173 60.173 0 00-1.464 2.087l-.002.002-.006.01-1.201 1.876-.001.002-.001.001-.006.01c-1.323 2.174-2.433 4.578-2.433 5.806 0 2.801 2.339 5.097 5.284 5.097 2.946 0 5.286-2.296 5.286-5.097 0-1.205-1.024-3.49-2.295-5.589-1.103-1.82-2.238-3.318-3.05-4.358z" fill="#01488A"/>
</svg>
