<svg fill="none" xmlns="http://www.w3.org/2000/svg" viewBox="0 0 24 24">
  <defs/>
  <path fill-rule="evenodd" clip-rule="evenodd" d="M8.684 3a2.842 2.842 0 00-2.842 2.842v9.474a2.842 2.842 0 002.842 2.842h9.474A2.842 2.842 0 0021 15.316V5.842A2.842 2.842 0 0018.158 3H8.684zm-3.79 2.842C3.5 5.842 3 6.45 3 7.737v10.42A2.842 2.842 0 005.842 21h9.474c1.282 0 1.894-.5 1.894-1.895H6.5c-1 0-1.605-.605-1.605-1.605V5.842zM18 8.75H9V7h9v1.75zm-9 2.625h9v-1.75H9v1.75zM15.75 14H9v-1.75h6.75V14z" fill="#01488A"/>
</svg>
