<svg width="24" height="24" viewBox="0 0 24 24" fill="none" xmlns="http://www.w3.org/2000/svg">
<path d="M12.6667 6.00557V4.2H11.3333V6.00557H9.39751C9.38867 6.01103 9.3662 6.0273 9.33703 6.06472C9.26501 6.15715 9.2 6.31935 9.2 6.50783V7.68571L8 6.63571V6.50783C8 5.62896 8.57789 4.80557 9.39022 4.80557H10.1333V3H13.8667V4.80557H14.6098C15.4221 4.80557 16 5.62896 16 6.50783V13.6357L14.8 12.5857V6.50783C14.8 6.31935 14.735 6.15715 14.663 6.06472C14.6338 6.0273 14.6113 6.01103 14.6025 6.00557H12.6667Z" fill="#828282"/>
<path fill-rule="evenodd" clip-rule="evenodd" d="M8 8.63899L4.93032 6L4 7.04463L8 10.4834V19.2887C8 20.174 8.57587 21 9.39022 21H14.6027C15.4201 21 16 20.1792 16 19.2977V17.361L19.0697 20L20 18.9554L8.66193 9.20806L8 8.62886V8.63899ZM14.8 16.3294V19.2977C14.8 19.487 14.7349 19.648 14.6633 19.7392C14.631 19.7804 14.6067 19.7961 14.5995 19.8H9.39767C9.38881 19.7944 9.36682 19.7782 9.33828 19.7413C9.26626 19.6484 9.2 19.4834 9.2 19.2887V11.5151L14.8 16.3294Z" fill="#828282"/>
<rect x="0.05" y="0.05" width="23.9" height="23.9" stroke="#BB6BD9" stroke-width="0.1"/>
</svg>
