<svg xmlns="http://www.w3.org/2000/svg" fill="none" viewBox="0 0 24 24"><defs/><path fill="#828282" d="M12.67 6V4.2h-1.34V6H9.4l-.06.06a.75.75 0 00-.14.45v1.18L8 6.64V6.5c0-.88.58-1.7 1.39-1.7h.74V3h3.74v1.8h.74c.81 0 1.39.83 1.39 1.7v7.14l-1.2-1.05V6.5a.75.75 0 00-.14-.45.25.25 0 00-.06-.05h-1.93z"/><path fill="#828282" fill-rule="evenodd" d="M8 8.64L4.93 6 4 7.04l4 3.44v8.8c0 .9.58 1.72 1.39 1.72h5.21c.82 0 1.4-.82 1.4-1.7v-1.94L19.07 20l.93-1.04L8.66 9.2 8 8.63zm6.8 7.69v2.97c0 .19-.07.35-.14.44a.23.23 0 01-.06.06H9.4l-.06-.06a.76.76 0 01-.14-.45v-7.77l5.6 4.8z" clip-rule="evenodd"/><path stroke="#BB6BD9" stroke-width=".1" d="M.05.05h23.9v23.9H.05z"/></svg>