<svg xmlns="http://www.w3.org/2000/svg" fill="none" viewBox="0 0 24 24"><defs/><path fill="#01488A" d="M10 7.24h4v2.11h-4V7.24zM14 10.41h-4v2.12h4V10.4zM10 13.59h4v2.12h-4v-2.12zM14 16.76h-4v2.12h4v-2.12z"/><path fill="#01488A" fill-rule="evenodd" d="M13.87 3v1.8h.74c.81 0 1.39.83 1.39 1.7v12.8c0 .88-.58 1.7-1.4 1.7H9.4C8.58 21 8 20.17 8 19.29V6.5c0-.88.58-1.7 1.39-1.7h.74V3h3.74zm-1.2 3V4.2h-1.34V6H9.4l-.06.06a.75.75 0 00-.14.45v12.78c0 .2.07.36.14.45l.06.06h5.2l.06-.06c.07-.1.14-.25.14-.44V6.5a.75.75 0 00-.14-.44.25.25 0 00-.06-.05h-1.93z" clip-rule="evenodd"/><path stroke="#BB6BD9" stroke-width=".1" d="M.05.05h23.9v23.9H.05z"/></svg>