<svg fill="none" xmlns="http://www.w3.org/2000/svg" viewBox="0 0 24 24">
  <defs/>
  <path d="M9.5 7.235h5v2.118h-5V7.235zm5 3.177h-5v2.117h5v-2.117zm-5 3.176h5v2.118h-5v-2.118zm5 3.177h-5v2.117h5v-2.117z" fill="#01488A"/>
  <path fill-rule="evenodd" clip-rule="evenodd" d="M12.998 6.006V4.2h-1.976v1.806H8.738a.524.524 0 00-.538.502v12.78c0 .26.218.512.538.512h6.515c.336 0 .547-.26.547-.502V6.508a.524.524 0 00-.538-.502h-2.264zm0-3.006h1.2v1.806h1.064c1.016 0 1.738.823 1.738 1.702v12.79c0 .881-.725 1.702-1.747 1.702H8.738A1.725 1.725 0 017 19.289V6.508c0-.879.722-1.702 1.738-1.702h1.084V3h3.176z" fill="#01488A"/>
</svg>
