<svg fill="none" xmlns="http://www.w3.org/2000/svg" viewBox="0 0 24 24">
  <defs/>
  <path fill-rule="evenodd" clip-rule="evenodd" d="M12.998 4.806v1.2h2.264c.323 0 .538.256.538.502v12.79c0 .242-.21.502-.547.502H8.738a.526.526 0 01-.538-.511V6.508c0-.246.215-.502.538-.502h2.284V4.2h1.976v.606zM14.198 3H9.822v1.806H8.738A1.724 1.724 0 007 6.508v12.78C7 20.175 7.72 21 8.738 21h6.515C16.275 21 17 20.18 17 19.298V6.508c0-.879-.722-1.702-1.738-1.702h-1.064V3zM9.5 13.652L12.625 7 12 12l2.5-.087L10.75 19 12 13.5l-2.5.152z" fill="#01488A"/>
</svg>
