<svg fill="none" xmlns="http://www.w3.org/2000/svg" viewBox="0 0 24 24">
  <defs/>
  <path d="M12.99 6.006V4.2h-1.977v1.806H8.73a.524.524 0 00-.538.502v.414l-1.106-.959A1.729 1.729 0 018.73 4.806h1.084V3h4.376v1.806h1.064c1.016 0 1.738.823 1.738 1.702v8.04l-1.2-1.04v-7a.524.524 0 00-.538-.502H12.99z" fill="#828282"/>
  <path fill-rule="evenodd" clip-rule="evenodd" d="M6.991 9.66L4 7.066l.982-1.134 15 13L19 20.067l-2.009-1.741v.972c0 .881-.725 1.702-1.746 1.702H8.729a1.725 1.725 0 01-1.738-1.711v-9.63zm8.8 7.626v2.012c0 .242-.21.502-.546.502H8.729a.526.526 0 01-.538-.511v-8.59l7.6 6.587z" fill="#828282"/>
</svg>
