<svg width="24" height="24" viewBox="0 0 24 24" fill="none" xmlns="http://www.w3.org/2000/svg">
<path fill-rule="evenodd" clip-rule="evenodd" d="M13.8667 3H10.1333V4.80557H9.39022C8.57789 4.80557 8 5.62896 8 6.50783V19.2887C8 20.174 8.57587 21 9.39022 21H14.6027C15.4201 21 16 20.1792 16 19.2977V6.50783C16 5.62896 15.4221 4.80557 14.6098 4.80557H13.8667V3ZM12.6667 6.00557H14.6025C14.6113 6.01103 14.6338 6.0273 14.663 6.06472C14.735 6.15715 14.8 6.31935 14.8 6.50783V19.2977C14.8 19.487 14.7349 19.648 14.6633 19.7392C14.631 19.7804 14.6067 19.7961 14.5995 19.8H9.39767C9.38881 19.7944 9.36682 19.7782 9.33828 19.7413C9.26626 19.6484 9.2 19.4834 9.2 19.2887V6.50783C9.2 6.31935 9.26501 6.15715 9.33703 6.06472C9.3662 6.0273 9.38867 6.01103 9.39751 6.00557H11.3333V4.2H12.6667V6.00557Z" fill="#EB5757"/>
<rect x="0.05" y="0.05" width="23.9" height="23.9" stroke="#BB6BD9" stroke-width="0.1"/>
</svg>
