<svg xmlns="http://www.w3.org/2000/svg" fill="none" viewBox="0 0 24 24"><defs/><path fill="#01488A" d="M14 10.41h-4v2.12h4V10.4zM10 13.59h4v2.12h-4v-2.12zM14 16.76h-4v2.12h4v-2.12z"/><path fill="#01488A" fill-rule="evenodd" d="M13.87 3h-3.74v1.8H9.4C8.58 4.8 8 5.64 8 6.5V19.3c0 .88.58 1.71 1.39 1.71h5.21c.82 0 1.4-.82 1.4-1.7V6.5c0-.87-.58-1.7-1.39-1.7h-.74V3zm-1.2 3h1.93l.06.06c.07.1.14.26.14.45V19.3c0 .19-.07.35-.14.44a.23.23 0 01-.06.06H9.4l-.06-.06a.76.76 0 01-.14-.45V6.5c0-.2.07-.35.14-.45a.25.25 0 01.06-.05h1.93V4.2h1.34V6z" clip-rule="evenodd"/><path stroke="#BB6BD9" stroke-width=".1" d="M.05.05h23.9v23.9H.05z"/></svg>