<svg fill="none" xmlns="http://www.w3.org/2000/svg" viewBox="0 0 24 24">
  <defs/>
  <path fill-rule="evenodd" clip-rule="evenodd" d="M5.799 7.985L3 5.243 4.269 4l15.066 14.757L18.066 20l-3.609-3.535H12.9V14.94l-2.043-2.001H8.4v-1.763h.657L7.194 9.35c-1.395.15-2.484 1.305-2.484 2.706 0 1.508 1.251 2.733 2.79 2.733h3.6v1.675H7.5c-2.484 0-4.5-1.975-4.5-4.408 0-1.842 1.161-3.42 2.799-4.072zM16.5 7.65h-3.6v1.675h3.6c1.539 0 2.79 1.225 2.79 2.732 0 1.12-.693 2.09-1.683 2.504l1.26 1.234c1.278-.776 2.133-2.16 2.133-3.738 0-2.433-2.016-4.407-4.5-4.407zm-2.349 3.526l1.449 1.419v-1.42h-1.449z" fill="#565656"/>
</svg>
