<svg xmlns="http://www.w3.org/2000/svg" fill="none" viewBox="0 0 24 24"><defs/><path fill="#01488A" fill-rule="evenodd" d="M15.93 11.95l-.24-1.13a4.25 4.25 0 00-4.21-3.32c-1.66 0-3.1.9-3.82 2.22l-.39.72-.83.08a3.05 3.05 0 00-2.79 2.98c0 1.65 1.4 3 3.13 3h10.18c1.3 0 2.34-1 2.34-2.25 0-1.18-.95-2.14-2.18-2.22l-1.2-.08zM6.27 9.03A4.57 4.57 0 002.1 13.5a4.6 4.6 0 004.7 4.5h10.17a3.84 3.84 0 003.91-3.75 3.8 3.8 0 00-3.64-3.72A5.8 5.8 0 0011.48 6a5.9 5.9 0 00-5.2 3.03z" clip-rule="evenodd"/><path stroke="#BB6BD9" stroke-width=".1" d="M.05.05h23.9v23.9H.05z"/></svg>