<svg xmlns="http://www.w3.org/2000/svg" fill="none" viewBox="0 0 24 24"><defs/><path fill="#828282" fill-rule="evenodd" d="M6.3 6L5.26 7.09l2.08 2.14H7A4.58 4.58 0 003 13.83a4.57 4.57 0 004.5 4.63h8.8L17.8 20l1.05-1.09L6.32 6zm1.2 10.91c-1.66 0-3-1.38-3-3.08 0-1.71 1.34-3.1 3-3.1h1.3l6 6.18H7.5z" clip-rule="evenodd"/><path fill="#828282" d="M17.51 10.77A3.8 3.8 0 0121 14.6c0 1.19-.53 2.23-1.35 2.94l-1.06-1.09c.55-.42.91-1.09.91-1.85 0-1.28-1-2.32-2.25-2.32h-1.13v-.38A4.18 4.18 0 0012 7.65c-.58 0-1.12.13-1.62.36L9.26 6.86A5.42 5.42 0 0112 6.1c2.73 0 5 2 5.51 4.66z"/><path stroke="#BB6BD9" stroke-width=".1" d="M.05.05h23.9v23.9H.05z"/></svg>