<svg width="24" height="24" viewBox="0 0 24 24" fill="none" xmlns="http://www.w3.org/2000/svg">
<path fill-rule="evenodd" clip-rule="evenodd" d="M6.3075 6L5.25 7.0882L7.3275 9.22602H7.0125C4.755 9.47299 3 11.441 3 13.8258C3 16.3804 5.0175 18.4564 7.5 18.4564H16.2975L17.7975 20L18.855 18.9118L6.3075 6ZM7.5 16.9129C5.8425 16.9129 4.5 15.5314 4.5 13.8258C4.5 12.1202 5.8425 10.7387 7.5 10.7387H8.7975L14.7975 16.9129H7.5Z" fill="#828282"/>
<path d="M17.5125 10.7696C19.4625 10.9085 21 12.5601 21 14.5976C21 15.7861 20.4675 16.828 19.65 17.538L18.5925 16.4498C19.14 16.0254 19.5 15.3616 19.5 14.5976C19.5 13.3164 18.495 12.2823 17.25 12.2823H16.125V11.8964C16.125 9.55017 14.28 7.65161 12 7.65161C11.4225 7.65161 10.8825 7.78281 10.38 8.00662L9.2625 6.85668C10.0725 6.3859 11.0025 6.10806 12 6.10806C14.73 6.10806 17.0025 8.10695 17.5125 10.7696Z" fill="#828282"/>
<rect x="0.05" y="0.05" width="23.9" height="23.9" stroke="#BB6BD9" stroke-width="0.1"/>
</svg>
