<svg width="24" height="24" viewBox="0 0 24 24" fill="none" xmlns="http://www.w3.org/2000/svg">
<path d="M10.0435 16L7.30435 13.375L8.40783 12.3175L10.0435 13.885L14.0974 10L15.2009 11.0575L10.0435 16Z" fill="#01488A"/>
<path fill-rule="evenodd" clip-rule="evenodd" d="M2.08696 13.5C2.08696 11.1825 3.91826 9.27 6.27392 9.03C7.25218 7.23 9.21652 6 11.4783 6C14.327 6 16.6983 7.9425 17.2304 10.53C19.2652 10.665 20.8696 12.27 20.8696 14.25C20.8696 16.32 19.1165 18 16.9565 18H6.78261C4.19218 18 2.08696 15.9825 2.08696 13.5ZM15.6948 10.8201L15.9266 11.9471L17.1223 12.0264C18.3525 12.108 19.3044 13.0734 19.3044 14.25C19.3044 15.4916 18.2521 16.5 16.9565 16.5H6.78261C5.05662 16.5 3.65218 15.1541 3.65218 13.5C3.65218 11.9559 4.87298 10.6812 6.43939 10.5216L7.27429 10.4365L7.66213 9.7229C8.38191 8.39851 9.82368 7.5 11.4783 7.5C13.5644 7.5 15.3043 8.92161 15.6948 10.8201Z" fill="#01488A"/>
<rect x="0.05" y="0.05" width="23.9" height="23.9" stroke="#BB6BD9" stroke-width="0.1"/>
</svg>
