<svg xmlns="http://www.w3.org/2000/svg" fill="none" viewBox="0 0 24 24"><defs/><path fill="#01488A" d="M10.04 16L7.3 13.37l1.1-1.05 1.64 1.56L14.1 10l1.1 1.06L10.04 16z"/><path fill="#01488A" fill-rule="evenodd" d="M2.09 13.5a4.57 4.57 0 014.18-4.47A5.9 5.9 0 0111.47 6a5.8 5.8 0 015.76 4.53 3.8 3.8 0 013.64 3.72A3.84 3.84 0 0116.96 18H6.78a4.6 4.6 0 01-4.7-4.5zm13.6-2.68l.24 1.13 1.2.08a2.27 2.27 0 012.17 2.22 2.3 2.3 0 01-2.34 2.25H6.78a3.07 3.07 0 01-3.13-3 3.05 3.05 0 012.79-2.98l.83-.08.4-.72a4.33 4.33 0 013.8-2.22 4.25 4.25 0 014.22 3.32z" clip-rule="evenodd"/><path stroke="#BB6BD9" stroke-width=".1" d="M.05.05h23.9v23.9H.05z"/></svg>