<svg width="24" height="24" viewBox="0 0 24 24" fill="none" xmlns="http://www.w3.org/2000/svg">
<path fill-rule="evenodd" clip-rule="evenodd" d="M15.9266 11.9471L15.6948 10.8201C15.3043 8.92161 13.5644 7.5 11.4783 7.5C9.82368 7.5 8.38191 8.39851 7.66213 9.7229L7.27429 10.4365L6.43939 10.5216C4.87298 10.6812 3.65218 11.9559 3.65218 13.5C3.65218 15.1541 5.05662 16.5 6.78261 16.5H16.9565C18.2521 16.5 19.3044 15.4916 19.3044 14.25C19.3044 13.0734 18.3525 12.108 17.1223 12.0264L15.9266 11.9471ZM6.27392 9.03C3.91826 9.27 2.08696 11.1825 2.08696 13.5C2.08696 15.9825 4.19218 18 6.78261 18H16.9565C19.1165 18 20.8696 16.32 20.8696 14.25C20.8696 12.27 19.2652 10.665 17.2304 10.53C16.6983 7.9425 14.327 6 11.4783 6C9.21652 6 7.25218 7.23 6.27392 9.03Z" fill="#01488A"/>
<rect x="0.05" y="0.05" width="23.9" height="23.9" stroke="#BB6BD9" stroke-width="0.1"/>
</svg>
