<svg fill="none" xmlns="http://www.w3.org/2000/svg" viewBox="0 0 24 24">
  <defs/>
  <path fill-rule="evenodd" clip-rule="evenodd" d="M11.297 9.014h1.406v-1.1h-1.406v1.1zm-1.277.435v2.504a6.003 6.003 0 011-.506c.314-.116.644-.19 1-.19.34 0 .658.068.96.176a5.68 5.68 0 011 .497V9.45h-3.96zm4.96 3.42c-.206-.116-.41-.241-.611-.366-.18-.11-.358-.22-.538-.323a6.55 6.55 0 00-.476-.25 4.121 4.121 0 00-.375-.155 2.854 2.854 0 00-.96-.173c-.356 0-.686.072-1 .187-.131.048-.26.103-.385.164-.158.076-.312.16-.466.249-.167.097-.332.199-.499.301-.214.133-.43.266-.65.388-.413.229-.843.42-1.317.502h-.935a.28.28 0 00-.282.28v.24H3.012v4.804h3.474v.238a.28.28 0 00.282.281h.935c.727.125 1.35.509 1.967.89.736.453 1.463.901 2.35.901.886 0 1.614-.448 2.349-.901.617-.381 1.24-.765 1.967-.89h.896a.28.28 0 00.282-.28v-.24h3.474v-4.804h-3.474v-.238a.28.28 0 00-.282-.281h-.896c-.49-.084-.93-.285-1.355-.524zm5.008 2.043h-3.474v-.52h-.263l-.084-.014c-.93-.16-1.72-.649-2.315-1.018l-.182-.112c-.683-.418-1.146-.646-1.65-.646-.505 0-.968.228-1.651.646l-.182.112c-.595.37-1.384.859-2.315 1.018l-.084.015h-.302v.52H4.012v2.804h3.474v.52h.302l.084.014c.93.16 1.72.649 2.315 1.018l.182.112c.683.418 1.146.646 1.65.646.505 0 .968-.228 1.651-.646l.182-.112c.595-.37 1.384-.859 2.315-1.018l.084-.015h.263v-.52h3.474v-2.804zm-9.504-6.596v-.843h1.495v.007h1.537v.844h1.972a1.06 1.06 0 001.063-1.062V4.043a1.06 1.06 0 00-1.063-1.063c-.722 0-1.16.218-1.615.443-.485.24-.987.49-1.873.491-.886.002-1.386-.25-1.87-.493-.452-.228-.89-.448-1.618-.448a1.06 1.06 0 00-1.063 1.062v3.219a1.06 1.06 0 001.063 1.062h1.972zm-1-1h-.972a.06.06 0 01-.063-.062V4.035a.06.06 0 01.063-.062c.489 0 .746.129 1.197.355l.02.01c.521.262 1.184.578 2.273.576 1.084-.002 1.746-.314 2.268-.572l.019-.01c.453-.224.712-.352 1.2-.352a.06.06 0 01.062.063v3.219a.06.06 0 01-.063.062h-.972V6.48h-1.537v-.007H9.483v.843z" fill="#01488A"/>
  <path d="M12 15.367l-1.406-1.406-.938.937 1.406 1.407-1.406 1.406.938.937L12 17.242l1.406 1.406.938-.937-1.406-1.406 1.406-1.407-.938-.937L12 15.367z" fill="#01488A"/>
</svg>
