<svg width="24" height="24" viewBox="0 0 24 24" fill="none" xmlns="http://www.w3.org/2000/svg">
<g clip-path="url(#clip0)">
<path d="M11.7909 17.4926L11.5873 15.0118V13.9741H12.4127V15.0118L12.2202 17.4926H11.7909ZM11.6169 18.6548V18.0003H12.3831V18.6548H11.6169ZM15.1897 16.3145C15.1897 16.7333 15.1072 17.1481 14.9469 17.5351C14.7866 17.9221 14.5517 18.2737 14.2555 18.5699C13.9593 18.8661 13.6076 19.1011 13.2207 19.2614C12.8337 19.4217 12.4189 19.5042 12 19.5042C11.5811 19.5042 11.1663 19.4217 10.7793 19.2614C10.3924 19.1011 10.0407 18.8661 9.74453 18.5699C9.44833 18.2737 9.21338 17.9221 9.05308 17.5351C8.89279 17.1481 8.81028 16.7333 8.81028 16.3145C8.81028 15.4685 9.14634 14.6572 9.74453 14.059C10.3427 13.4608 11.154 13.1247 12 13.1247C12.846 13.1247 13.6573 13.4608 14.2555 14.059C14.8537 14.6572 15.1897 15.4685 15.1897 16.3145ZM12.0195 11.6016C10.3881 11.6016 9.29646 13.1196 7.70312 13.3926H6.76758C6.61177 13.3926 6.48633 13.518 6.48633 13.6738V13.9121H3.01172V18.7168H6.48633V18.9551C6.48633 19.1109 6.61177 19.2363 6.76758 19.2363H7.70312C9.29646 19.5093 10.3881 21.0273 12.0195 21.0273C13.651 21.0273 14.7426 19.5093 16.3359 19.2363H17.2324C17.3882 19.2363 17.5137 19.1109 17.5137 18.9551V18.7168H20.9883V13.9121H17.5137V13.6738C17.5137 13.518 17.3882 13.3926 17.2324 13.3926H16.3359C14.7426 13.1196 13.651 11.6016 12.0195 11.6016ZM10.0195 9.44922V11.9531C10.6395 11.5794 11.2723 11.2578 12.0195 11.2578C12.7512 11.2578 13.3728 11.566 13.9805 11.9297V9.44922H10.0195ZM11.2969 7.91406V9.01367H12.7031V7.91406H11.2969ZM8.51172 2.97266C7.9231 2.97266 7.44922 3.44653 7.44922 4.03516V7.25391C7.44922 7.84253 7.9231 8.31641 8.51172 8.31641H10.4844V7.47266H11.9785V7.48046H13.5156V8.32421H15.4883C16.0769 8.32421 16.5508 7.85034 16.5508 7.26171V4.04297C16.5508 3.45434 16.0769 2.98047 15.4883 2.98047C13.9933 2.98047 13.7148 3.91035 12 3.91406C10.2852 3.91778 10.0174 2.97266 8.51172 2.97266V2.97266Z" fill="#333333"/>
</g>
<rect x="0.05" y="0.05" width="23.9" height="23.9" stroke="#BB6BD9" stroke-width="0.1"/>
<defs>
<clipPath id="clip0">
</clipPath>
</defs>
</svg>
