<svg width="24" height="24" fill="none" xmlns="http://www.w3.org/2000/svg"><g clip-path="url(#clip0)"><path d="M11.8 17.5L11.58 15v-1.04h.82v1.04l-.19 2.48h-.43zm-.18 1.15V18h.76v.65h-.76zm3.57-2.34a3.19 3.19 0 11-6.38 0 3.19 3.19 0 016.38 0zm-3.17-4.7c-1.63 0-2.72 1.51-4.32 1.78h-.93a.28.28 0 00-.28.28v.24H3v4.8H6.5v.25c0 .15.12.28.28.28h.93c1.6.27 2.69 1.79 4.32 1.79 1.63 0 2.72-1.52 4.32-1.8h.9c.15 0 .27-.12.27-.27v-.24H21v-4.8H17.5v-.25a.28.28 0 00-.28-.28h-.9c-1.59-.27-2.68-1.79-4.31-1.79zm-2-2.16v2.5c.62-.37 1.25-.7 2-.7.73 0 1.35.32 1.96.68V9.45h-3.96zM11.3 7.9v1.1h1.4v-1.1h-1.4zM8.5 2.97c-.59 0-1.06.48-1.06 1.07v3.21c0 .6.47 1.07 1.06 1.07h1.97v-.85h1.5v.01h1.54v.84h1.97c.59 0 1.06-.47 1.06-1.06V4.04c0-.59-.47-1.06-1.06-1.06-1.5 0-1.78.93-3.49.93-1.71 0-1.98-.94-3.49-.94z" fill="#333"/></g><path stroke="#BB6BD9" stroke-width=".1" d="M.05.05h23.9v23.9H.05z"/><defs><clipPath id="clip0"/></defs></svg>