<svg fill="none" xmlns="http://www.w3.org/2000/svg" viewBox="0 0 24 24">
  <defs/>
  <path fill-rule="evenodd" clip-rule="evenodd" d="M7.786 14.612v.52H4.312v2.365h3.474v.52h.035l.116.02c1.005.172 1.852.699 2.44 1.064l.18.112c.691.423 1.076.595 1.463.595.386 0 .77-.172 1.462-.595l.18-.112c.588-.365 1.435-.892 2.44-1.064l.112-.02v-.52h3.474v-2.365h-3.474v-.52l-.112-.02c-1.005-.172-1.852-.699-2.44-1.064l-.18-.112c-.691-.423-1.076-.595-1.462-.595-.387 0-.772.172-1.463.595l-.18.112c-.588.365-1.435.892-2.44 1.064l-.116.02h-.035zm13.202-.7v4.805h-3.474v.238a.28.28 0 01-.282.281h-.896c-.727.125-1.35.509-1.967.89-.736.453-1.463.901-2.35.901-.886 0-1.614-.448-2.349-.901-.617-.381-1.24-.765-1.967-.89h-.935a.28.28 0 01-.282-.28v-.24H3.012v-4.804h3.474v-.238a.28.28 0 01.282-.281h.935c.36-.062.695-.188 1.017-.345.326-.16.64-.353.95-.545.171-.105.342-.21.514-.31a7.8 7.8 0 01.45-.24 3.82 3.82 0 01.685-.259 2.724 2.724 0 011.361-.01c.234.058.457.144.675.246.156.073.31.155.461.241.186.106.369.219.553.332.299.185.599.37.912.526.332.166.68.3 1.055.364h.896a.28.28 0 01.282.28v.24h3.474zm-5.5-5.588a1.06 1.06 0 001.063-1.062V4.043a1.06 1.06 0 00-1.063-1.063c-.722 0-1.16.218-1.615.443-.485.24-.987.49-1.873.491-.886.002-1.386-.25-1.87-.493-.105-.053-.21-.106-.318-.156a2.92 2.92 0 00-1.3-.292 1.06 1.06 0 00-1.063 1.062v3.219a1.06 1.06 0 001.063 1.062h1.972v-.843h1.495v.007h1.537v.844h1.972zm-2.785-.41h-1.406v1.1h1.406v-1.1zM10.02 9.45v2.504c.417-.251.84-.48 1.3-.601a2.676 2.676 0 011.36-.01c.461.115.884.338 1.3.588V9.45h-3.96zm4.796-2.344V6.26h-1.538v-.008H9.184v.844H8.75v-2.89c.257.033.452.13.815.313.536.269 1.26.616 2.439.613 1.172-.002 1.894-.343 2.43-.609.364-.18.56-.276.818-.31v2.89h-.435z" fill="#DB2B39"/>
</svg>
