<svg fill="none" xmlns="http://www.w3.org/2000/svg" viewBox="0 0 24 24">
  <defs/>
  <path d="M17.514 18.717v.238a.28.28 0 01-.282.281h-.896c-.727.125-1.35.509-1.967.89-.736.453-1.463.901-2.35.901-.886 0-1.614-.448-2.349-.901-.617-.381-1.24-.765-1.967-.89h-.935a.28.28 0 01-.282-.28v-.24H3.012v-4.804h3.474v-.238a.28.28 0 01.282-.281h.935c.36-.062.695-.188 1.017-.345.326-.16.64-.353.95-.545.171-.105.342-.21.514-.31a7.8 7.8 0 01.45-.24 3.82 3.82 0 01.685-.259 2.724 2.724 0 011.361-.01c.234.058.457.144.675.246.156.073.31.155.461.241.186.106.369.219.553.332.299.185.599.37.912.526.332.166.68.3 1.055.364h.896a.28.28 0 01.282.28v.24h3.474v4.804h-3.474zM16.55 7.262a1.06 1.06 0 01-1.062 1.062h-1.972V7.48h-1.537v-.007h-1.495v.843H8.512a1.06 1.06 0 01-1.063-1.062V4.035a1.06 1.06 0 011.063-1.062c.557 0 .945.13 1.3.292.108.05.213.103.318.156.484.244.984.495 1.87.493.886-.002 1.388-.25 1.873-.491.454-.225.893-.443 1.615-.443a1.06 1.06 0 011.063 1.063v3.219z" fill="#01488A"/>
  <path d="M11.32 11.094c-.46.122-.883.35-1.3.601V9.45h3.96v2.223c-.416-.25-.839-.473-1.3-.588a2.693 2.693 0 00-.66-.084c-.245 0-.477.034-.7.094zm1.383-3.18v1.1h-1.406v-1.1h1.406z" fill="#01488A"/>
</svg>
