<svg fill="none" xmlns="http://www.w3.org/2000/svg" viewBox="0 0 24 24">
  <defs/>
  <path fill-rule="evenodd" clip-rule="evenodd" d="M7.788 14.402h-.302v.52H4.012v2.805h3.474v.52h.302l.084.014c.93.159 1.72.649 2.315 1.018l.182.112c.683.418 1.146.646 1.65.646.505 0 .968-.228 1.651-.646l.182-.112c.595-.37 1.384-.86 2.315-1.018l.084-.015h.263v-.52h3.474v-2.804h-3.474v-.52h-.263l-.084-.014c-.93-.16-1.72-.65-2.315-1.018a7.039 7.039 0 00-.182-.112c-.683-.418-1.146-.647-1.65-.647-.505 0-.968.229-1.651.646l-.182.113c-.595.369-1.384.859-2.315 1.018l-.084.014zm13.2-.48v4.805h-3.474v.238a.28.28 0 01-.282.281h-.896c-.727.125-1.35.509-1.967.89-.736.453-1.463.901-2.35.901-.886 0-1.614-.448-2.349-.902-.617-.38-1.24-.764-1.967-.889h-.935a.28.28 0 01-.282-.281v-.238H3.012v-4.805h3.474v-.238a.28.28 0 01.282-.282h.935c.474-.08.904-.272 1.317-.501.22-.123.436-.255.65-.388.167-.102.332-.204.5-.301.153-.09.307-.173.465-.25.126-.06.254-.115.385-.163a2.875 2.875 0 011-.188c.34 0 .657.066.96.174.128.045.252.097.375.155.161.075.32.16.476.25.18.103.359.213.538.323.202.125.405.25.611.366.425.239.867.44 1.356.523h.896a.28.28 0 01.282.282v.238h3.474zM10.02 9.459v2.504a5.995 5.995 0 011-.506c.314-.117.644-.19 1-.19.34 0 .658.068.96.176.348.124.676.302 1 .497V9.459h-3.96zm5.468-1.125a1.06 1.06 0 001.063-1.063V4.053a1.06 1.06 0 00-1.063-1.063c-.722 0-1.16.218-1.615.442-.485.24-.987.49-1.873.492-.886.002-1.386-.25-1.87-.493-.452-.228-.89-.449-1.618-.449a1.06 1.06 0 00-1.063 1.063v3.219a1.06 1.06 0 001.063 1.062h1.972v-.844h1.495v.008h1.537v.844h1.972zm-2.785-.41h-1.406v1.1h1.406v-1.1zm1.813-.59h.972a.06.06 0 00.063-.063V4.053a.06.06 0 00-.063-.063c-.487 0-.746.128-1.2.353l-.018.009c-.521.258-1.184.57-2.268.572-1.09.002-1.752-.314-2.273-.576l-.02-.01c-.451-.226-.708-.356-1.197-.356a.06.06 0 00-.063.063v3.219a.06.06 0 00.063.062h.972v-.844h3.495v.008h1.537v.844z" fill="#01488A"/>
  <path d="M11.961 14.24v.94H9.35v2.267h2.612v.94l3.55-2.074-3.55-2.073z" fill="#01488A"/>
</svg>
