<svg fill="none" xmlns="http://www.w3.org/2000/svg" viewBox="0 0 24 24">
  <defs/>
  <path fill-rule="evenodd" clip-rule="evenodd" d="M7.786 14.612v.52H4.312v2.365h3.474v.52h.035l.116.02c1.005.172 1.852.699 2.44 1.064l.18.112c.691.423 1.076.595 1.463.595.386 0 .77-.172 1.462-.595l.18-.112c.465-.289 1.092-.679 1.832-.915l-5.239-4.583c-.58.359-1.38.828-2.318.99l-.116.019h-.035zm1.488-1.867a7.912 7.912 0 01-.554.303 3.748 3.748 0 01-1.017.345h-.935a.28.28 0 00-.282.28v.24H3.012v4.804h3.474v.238a.28.28 0 00.282.281h.935c.727.125 1.35.509 1.967.89.736.453 1.463.901 2.35.901.886 0 1.614-.448 2.349-.901.617-.381 1.24-.765 1.967-.89h.358l2.746 2.404 1.12-1.28-16-14-1.12 1.28 5.834 5.105zm11.554 5.972l-1.385-1.22h.245v-2.365h-2.934l-.54-.476v-.045l-.063-.01-3.237-2.849c.15.05.297.11.441.178.156.073.31.155.461.241.186.106.369.219.553.332.299.185.599.37.912.526.332.166.68.3 1.055.364h.896a.28.28 0 01.282.28v.24h3.474v4.804h-.16zm-8.147-7.375a2.802 2.802 0 00-.3-.06L10.297 9.45h3.683v2.48c-.416-.249-.839-.472-1.3-.588zM8.72 8.316h-.208a1.06 1.06 0 01-1.063-1.062V4.035a1.06 1.06 0 011.063-1.062c.727 0 1.166.22 1.618.448.484.244.984.495 1.87.493.886-.002 1.388-.25 1.873-.491.454-.225.893-.443 1.615-.443a1.06 1.06 0 011.063 1.063v3.219a1.06 1.06 0 01-1.063 1.062h-1.972V7.48h-1.537v-.007h-1.495v.843H8.72zm.464-1.219H8.75v-2.89c.257.033.452.13.815.313.536.269 1.26.616 2.439.613 1.172-.002 1.894-.343 2.43-.609.364-.18.56-.276.818-.31v2.89h-.435v-.843h-1.538v-.008H9.184v.844zm3.52 1.917v-1.1h-1.408v1.1h1.406z" fill="#565656"/>
</svg>
