<svg width="24" height="24" viewBox="0 0 24 24" fill="none" xmlns="http://www.w3.org/2000/svg">
<path d="M18.01 3.24797C18.332 2.91987 18.8569 2.91699 19.1824 3.24155L20.754 4.80865C21.0795 5.13321 21.0823 5.6623 20.7604 5.9904L20.0305 6.73417L17.2801 3.99174L18.01 3.24797Z" fill="#01488A"/>
<path d="M16.8425 4.43768L19.5929 7.18012L13.4661 13.4234L10.7157 10.681L16.8425 4.43768Z" fill="#01488A"/>
<path d="M9.4651 14.7279L10.2781 11.1269L13.0284 13.8694L9.4651 14.7279Z" fill="#01488A"/>
<path d="M6.31598 3.45172H15.1176L13.4417 5.12299H6.31598C5.4003 5.12299 4.65799 5.87124 4.65799 6.79425V17.6575C4.65799 18.5805 5.4003 19.3287 6.31598 19.3287H17.3692C18.2849 19.3287 19.0272 18.5805 19.0272 17.6575V10.2293L20.6852 8.57591V17.6575C20.6852 19.5035 19.2006 21 17.3692 21H6.31598C4.48461 21 3 19.5035 3 17.6575V6.79425C3 4.94822 4.48461 3.45172 6.31598 3.45172Z" fill="#01488A"/>
<rect x="0.05" y="0.05" width="23.9" height="23.9" stroke="#BB6BD9" stroke-width="0.1"/>
</svg>
