<svg fill="none" xmlns="http://www.w3.org/2000/svg" viewBox="0 0 24 24">
  <defs/>
  <path d="M18.01 3.248a.824.824 0 011.172-.006l1.572 1.567a.84.84 0 01.006 1.181l-.73.744-2.75-2.742.73-.744zm-1.167 1.19l2.75 2.742-6.127 6.243-2.75-2.742 6.127-6.243zm-7.378 10.29l.813-3.601 2.75 2.742-3.563.859z" fill="#01488A"/>
  <path d="M6.316 3.452h8.802l-1.676 1.671H6.316c-.916 0-1.658.748-1.658 1.671v10.863c0 .924.742 1.672 1.658 1.672h11.053c.916 0 1.658-.748 1.658-1.672V10.23l1.658-1.653v9.081c0 1.846-1.484 3.343-3.316 3.343H6.316C4.485 21 3 19.503 3 17.657V6.794c0-1.846 1.485-3.342 3.316-3.342z" fill="#01488A"/>
</svg>
