<svg xmlns="http://www.w3.org/2000/svg" fill="none" viewBox="0 0 24 24"><defs/><path fill="#01488A" d="M18.01 3.25a.82.82 0 011.17 0l1.57 1.56c.33.32.33.85.01 1.18l-.73.74L17.28 4l.73-.74zM16.84 4.44l2.75 2.74-6.12 6.24-2.75-2.74 6.12-6.24zM9.47 14.73l.8-3.6 2.76 2.74-3.56.86z"/><path fill="#01488A" d="M6.32 3.45h8.8l-1.68 1.67H6.32c-.92 0-1.66.75-1.66 1.67v10.87c0 .92.74 1.67 1.66 1.67h11.05c.91 0 1.66-.75 1.66-1.67v-7.43l1.66-1.65v9.08A3.33 3.33 0 0117.37 21H6.32A3.33 3.33 0 013 17.66V6.79a3.33 3.33 0 013.32-3.34z"/><path stroke="#BB6BD9" stroke-width=".1" d="M.05.05h23.9v23.9H.05z"/></svg>