<svg xmlns="http://www.w3.org/2000/svg" fill="none" viewBox="0 0 24 24"><defs/><path fill="#EB5757" fill-rule="evenodd" d="M11.35 16.25c-.14.18-.2.4-.2.67 0 .26.06.49.2.66.14.17.35.26.63.26.27 0 .48-.09.62-.26.15-.17.22-.4.22-.66 0-.27-.07-.49-.22-.67-.14-.18-.35-.27-.62-.27-.28 0-.49.09-.63.27zm-.05-1.2h1.27l.11-5.57H11.2l.1 5.57zM11.9 3a.67.67 0 00-.5.25 85.83 85.83 0 00-2.26 2.99l-1.3 1.9v.01c-1.47 2.24-2.82 4.6-2.82 6.48 0 3.52 3.14 6.35 6.96 6.35s6.97-2.83 6.97-6.35c0-1.83-1.25-4.08-2.66-6.25-1.4-2.16-3-4.17-3.87-5.16A.65.65 0 0011.9 3z" clip-rule="evenodd"/><path stroke="#BB6BD9" stroke-width=".1" d="M.05.05h23.9v23.9H.05z"/></svg>