<svg width="24" height="24" viewBox="0 0 24 24" fill="none" xmlns="http://www.w3.org/2000/svg">
<path fill-rule="evenodd" clip-rule="evenodd" d="M11.3519 16.2534C11.2145 16.4308 11.1458 16.6524 11.1458 16.9184C11.1458 17.1843 11.2145 17.406 11.3519 17.5833C11.4944 17.7547 11.703 17.8404 11.9777 17.8404C12.2525 17.8404 12.4611 17.7547 12.6036 17.5833C12.746 17.406 12.8173 17.1843 12.8173 16.9184C12.8173 16.6524 12.746 16.4308 12.6036 16.2534C12.4611 16.0703 12.2525 15.9786 11.9777 15.9786C11.703 15.9786 11.4944 16.0703 11.3519 16.2534ZM11.2985 15.0535H12.573L12.6799 9.47954H11.1993L11.2985 15.0535ZM11.8993 2.99999C11.8015 3.00266 11.7056 3.02651 11.6187 3.06976C11.5318 3.11301 11.4562 3.17456 11.3974 3.24984C10.8877 3.90022 10.0494 4.9734 9.14865 6.23003C9.14636 6.23328 9.14411 6.23654 9.14188 6.23983L7.83947 8.13736C7.83657 8.14168 7.83374 8.14603 7.83096 8.15042C6.36906 10.3883 5.01584 12.7422 5.01584 14.6301C5.01584 18.1485 8.16231 20.9759 11.9807 20.9759C15.7995 20.9759 18.9473 18.1485 18.9473 14.6301C18.9473 12.8024 17.6965 10.5478 16.2899 8.3823C14.8832 6.21682 13.2823 4.21484 12.4165 3.22371C12.3534 3.15128 12.2741 3.09354 12.1845 3.0548C12.095 3.01606 11.9975 2.99732 11.8993 2.99999L11.8993 2.99999Z" fill="#EB5757"/>
<rect x="0.05" y="0.05" width="23.9" height="23.9" stroke="#BB6BD9" stroke-width="0.1"/>
</svg>
