<svg width="24" height="24" viewBox="0 0 24 24" fill="none" xmlns="http://www.w3.org/2000/svg">
<path d="M11.9434 3C11.8448 3.00267 11.7481 3.02654 11.6604 3.06984C11.5728 3.11314 11.4964 3.17475 11.4371 3.2501C10.9231 3.90116 10.0775 4.97545 9.1691 6.23338L9.16226 6.24319L8.38951 7.3606L9.30484 8.31253L10.2501 6.9461L10.2569 6.93629L10.2587 6.93466C10.8827 6.07111 11.3818 5.43391 11.8422 4.84629L11.9605 4.69515C12.8392 5.73492 14.0662 7.23182 15.2582 9.0532C16.6317 11.1517 17.7383 13.4365 17.7383 14.6422C17.7383 15.3425 17.5802 16.0113 17.2933 16.6205L18.2402 17.6053C18.7579 16.7218 19.0519 15.714 19.0519 14.6422C19.0519 12.8125 17.7904 10.5556 16.3717 8.38789C14.953 6.22016 13.3383 4.21611 12.4651 3.22395C12.4014 3.15145 12.3214 3.09365 12.2311 3.05486C12.1407 3.01608 12.0424 2.99732 11.9434 3Z" fill="#828282"/>
<path fill-rule="evenodd" clip-rule="evenodd" d="M6.76104 9.87114L5 8.03966L6.08125 7L18.5812 20L17.5 21.0397L16.2352 19.7243C15.0582 20.5226 13.5983 20.9945 12.0255 20.9945C8.17427 20.9945 5.00077 18.1642 5.00077 14.6422C5.00077 13.2311 5.76171 11.5599 6.76104 9.87114ZM15.3428 18.7962C14.4111 19.3893 13.2682 19.7391 12.0255 19.7391C8.84192 19.7391 6.31439 17.4428 6.31439 14.6422C6.31439 13.7914 6.88948 12.3774 7.71782 10.8662L8.76292 11.9531C8.2041 13.1529 7.94541 14.2659 8.04021 15.2748C8.12394 16.1662 8.51605 17.0423 9.22212 17.6875C9.92818 18.3328 10.9594 18.72 12.1658 18.6242C12.2539 18.6203 12.3403 18.5994 12.4198 18.5629C12.4993 18.5264 12.5703 18.4749 12.6286 18.4116C12.6868 18.3482 12.7311 18.2743 12.7588 18.1943C12.7865 18.1142 12.7971 18.0296 12.7899 17.9456C12.7826 17.8616 12.7577 17.7798 12.7167 17.7051C12.6757 17.6305 12.6193 17.5645 12.551 17.5111C12.4827 17.4577 12.4038 17.4181 12.3191 17.3945C12.2344 17.3708 12.1456 17.3638 12.058 17.3737C11.1872 17.4428 10.579 17.1903 10.1304 16.7803C9.68171 16.3703 9.40441 15.775 9.34698 15.1636C9.2917 14.5753 9.42562 13.8355 9.75655 12.9865L15.3428 18.7962Z" fill="#828282"/>
<path d="M11.3362 10.1713C11.3013 10.2203 11.2668 10.269 11.2329 10.3177L10.3254 9.37388C10.3712 9.32856 10.424 9.28993 10.4822 9.25945C10.5758 9.21046 10.6805 9.18399 10.7872 9.18234C10.9084 9.18024 11.028 9.21029 11.1325 9.26914C11.237 9.328 11.3224 9.41336 11.3793 9.51578C11.4361 9.61819 11.4622 9.73365 11.4546 9.84936C11.447 9.96507 11.406 10.0765 11.3362 10.1713Z" fill="#828282"/>
<rect x="0.05" y="0.05" width="23.9" height="23.9" stroke="#BB6BD9" stroke-width="0.1"/>
</svg>
