<svg xmlns="http://www.w3.org/2000/svg" fill="none" viewBox="0 0 24 24"><defs/><g filter="url(#filter0_d)"><path fill="#003769" d="M11.94 3a.68.68 0 00-.5.25 86 86 0 00-2.28 3l-1.31 1.9h-.01C6.37 10.4 5 12.76 5 14.66c0 3.51 3.17 6.34 7.03 6.34 3.85 0 7.02-2.83 7.02-6.35 0-1.83-1.26-4.08-2.68-6.25a49.93 49.93 0 00-3.9-5.17.66.66 0 00-.53-.22zm.02 1.7c.88 1.03 2.1 2.53 3.3 4.35 1.37 2.1 2.48 4.39 2.48 5.6 0 2.8-2.53 5.09-5.71 5.09-3.19 0-5.72-2.3-5.72-5.1 0-1.23 1.2-3.63 2.63-5.8l.01-.01 1.3-1.88v-.01c.69-.94 1.22-1.61 1.71-2.24zm-1.17 4.48c-.1 0-.21.03-.3.08a.65.65 0 00-.24.2c-1.55 2.18-2.37 4.14-2.21 5.81.08.9.48 1.77 1.18 2.42.7.64 1.74 1.03 2.95.93a.68.68 0 00.46-.2.62.62 0 00.16-.47.6.6 0 00-.24-.44.67.67 0 00-.5-.14 2.42 2.42 0 01-1.92-.59c-.45-.41-.73-1-.78-1.62-.11-1.17.53-2.95 1.99-4.99a.61.61 0 00-.2-.9.68.68 0 00-.35-.09z"/></g><path stroke="#BB6BD9" stroke-width=".1" d="M.05.05h23.9v23.9H.05z"/><defs><filter id="filter0_d" width="16.05" height="19.99" x="4.5" y="2.5" color-interpolation-filters="sRGB" filterUnits="userSpaceOnUse"><feFlood flood-opacity="0" result="BackgroundImageFix"/><feColorMatrix in="SourceAlpha" values="0 0 0 0 0 0 0 0 0 0 0 0 0 0 0 0 0 0 127 0"/><feOffset dx=".5" dy=".5"/><feGaussianBlur stdDeviation=".5"/><feColorMatrix values="0 0 0 0 0 0 0 0 0 0 0 0 0 0 0 0 0 0 0.25 0"/><feBlend in2="BackgroundImageFix" result="effect1_dropShadow"/><feBlend in="SourceGraphic" in2="effect1_dropShadow" result="shape"/></filter></defs></svg>