<svg xmlns="http://www.w3.org/2000/svg" fill="none" viewBox="0 0 24 24"><defs/><path fill="#828282" d="M11.94 3a.68.68 0 00-.5.25 86 86 0 00-2.27 2.98v.01l-.78 1.12.91.95.95-1.36v-.01c.63-.87 1.13-1.5 1.6-2.1l.11-.14c.88 1.03 2.1 2.53 3.3 4.35 1.37 2.1 2.48 4.39 2.48 5.6 0 .7-.16 1.36-.45 1.97l.95.99c.52-.89.81-1.9.81-2.97 0-1.83-1.26-4.08-2.68-6.25a49.92 49.92 0 00-3.9-5.17.66.66 0 00-.53-.22z"/><path fill="#828282" fill-rule="evenodd" d="M6.76 9.87L5 8.04 6.08 7l12.5 13-1.08 1.04-1.26-1.32A7.5 7.5 0 0112.03 21C8.17 21 5 18.16 5 14.64c0-1.4.76-3.08 1.76-4.77zm8.58 8.93c-.93.59-2.07.94-3.31.94-3.19 0-5.72-2.3-5.72-5.1 0-.85.58-2.26 1.4-3.77l1.05 1.08a6.52 6.52 0 00-.72 3.32c.08.9.48 1.77 1.18 2.42.7.64 1.74 1.03 2.95.93a.68.68 0 00.46-.2.62.62 0 00.16-.47.6.6 0 00-.24-.44.67.67 0 00-.5-.14 2.42 2.42 0 01-1.92-.59c-.45-.41-.73-1-.78-1.62-.06-.58.08-1.32.4-2.17l5.6 5.8z" clip-rule="evenodd"/><path fill="#828282" d="M11.34 10.17l-.1.15-.91-.95a.65.65 0 01.46-.19c.12 0 .24.03.34.09.1.06.2.14.25.25a.6.6 0 01-.04.65z"/><path stroke="#BB6BD9" stroke-width=".1" d="M.05.05h23.9v23.9H.05z"/></svg>