<svg fill="none" xmlns="http://www.w3.org/2000/svg" viewBox="0 0 24 24">
  <defs/>
  <path fill-rule="evenodd" clip-rule="evenodd" d="M11.896 6.02a.194.194 0 01.229.044c.248.282.708.853 1.112 1.47.404.617.763 1.26.763 1.78 0 1.003-.904 1.809-2 1.809-1.097 0-2-.806-2-1.809 0-.538.389-1.208.808-1.846l.003-.004.374-.54.002-.003c.258-.359.499-.664.645-.85a.186.186 0 01.064-.051zm-.54 1.688a.193.193 0 00-.152.08c-.441.618-.674 1.177-.63 1.654.025.254.136.504.337.687.201.184.495.294.838.267a.194.194 0 00.132-.06.177.177 0 00.046-.133.171.171 0 00-.068-.124.19.19 0 00-.14-.04c-.248.02-.421-.051-.55-.168a.72.72 0 01-.222-.46c-.032-.334.151-.84.566-1.421a.174.174 0 00-.058-.257.194.194 0 00-.098-.025zm3.54 2.312a.192.192 0 01.229.044c.248.282.708.853 1.112 1.47.404.617.763 1.26.763 1.78 0 1.003-.904 1.809-2 1.809-1.097 0-2-.806-2-1.809 0-.538.389-1.209.808-1.846l.003-.004.374-.54.002-.003c.258-.359.499-.664.645-.85a.185.185 0 01.064-.051zm-.54 1.688a.193.193 0 00-.152.08c-.441.618-.674 1.177-.63 1.654.025.254.136.504.337.687.201.184.495.294.838.267a.194.194 0 00.132-.06.177.177 0 00.046-.133.171.171 0 00-.068-.124.19.19 0 00-.14-.04c-.248.02-.421-.051-.55-.168a.72.72 0 01-.222-.46c-.032-.334.151-.84.566-1.421a.174.174 0 00-.058-.257.193.193 0 00-.098-.025zM9.976 12a.192.192 0 00-.144.071c-.146.186-.387.491-.645.85l-.002.002-.374.541-.003.004c-.42.637-.808 1.308-.808 1.846 0 1.003.903 1.809 2 1.809 1.096 0 2-.806 2-1.809 0-.52-.36-1.163-.763-1.78a14.222 14.222 0 00-1.112-1.47.186.186 0 00-.149-.064zm-.706 1.73a.193.193 0 01.255.073.172.172 0 01-.012.187c-.415.581-.598 1.087-.566 1.42a.72.72 0 00.223.461c.128.117.3.189.549.169a.194.194 0 01.14.04.18.18 0 01.068.123.171.171 0 01-.046.132.187.187 0 01-.132.06 1.097 1.097 0 01-.838-.266 1.062 1.062 0 01-.336-.687c-.045-.477.188-1.036.629-1.654a.185.185 0 01.066-.058z" fill="#01488A"/>
  <path d="M7.874 19.398a.6.6 0 00.252-1.123 7.467 7.467 0 01-3.559-8.14c.105.138.202.285.274.449a.125.125 0 00.008.008v.007a.113.113 0 00.014.022.111.111 0 00.023.015h.008a.117.117 0 00.021.008.128.128 0 00.008.008.111.111 0 00.04 0l-.005-.002a.12.12 0 00.024-.008.125.125 0 00.008-.008.116.116 0 00.021-.007.125.125 0 00.008-.008.125.125 0 00.008-.008.119.119 0 00.007-.006.11.11 0 00.016-.023.111.111 0 00.006-.024v-.008l.695-4.132a.11.11 0 00.008-.008.113.113 0 00-.008-.024v-.021a.113.113 0 00-.015-.024v-.007a.113.113 0 00-.016-.014.113.113 0 00-.021-.016.113.113 0 00-.008-.007.112.112 0 00-.024-.008h-.045a.112.112 0 00-.023.008h-.008a.113.113 0 00-.021.015L2.359 9.006a.113.113 0 00-.023.031.113.113 0 00-.008.008.117.117 0 00-.008.005v.024a.113.113 0 00-.006.023.112.112 0 00.006.022.112.112 0 00.008.023.112.112 0 00.007.024.112.112 0 00.008.006.113.113 0 00.031.023.11.11 0 00.006.008.112.112 0 00.024.008h.036c.382-.04.76.013 1.101.144a8.636 8.636 0 00-.06 4.727 8.651 8.651 0 004.053 5.234.6.6 0 00.34.082zM19.675 9.197l.004-.002a.113.113 0 00.022-.008.112.112 0 00.023-.008.105.105 0 00.008-.006.11.11 0 00.03-.023v-.008a.108.108 0 00.015-.021.114.114 0 00.008-.024V9.06l-.73-4.127a.114.114 0 00-.009-.023.117.117 0 00-.015-.022v-.007a.104.104 0 00-.032-.024.093.093 0 00-.013-.016h-.024a.113.113 0 00-.021-.007.112.112 0 00-.024.007h-.023a.113.113 0 00-.03.024.125.125 0 00-.007.008.125.125 0 00-.008.008.125.125 0 00-.008.007 2.398 2.398 0 01-.686.898 8.625 8.625 0 00-4.058-2.415 8.64 8.64 0 00-6.555.892.6.6 0 10.606 1.035 7.443 7.443 0 018.824.989 2.256 2.256 0 01-.545.011h-.023a.115.115 0 00-.022.006.125.125 0 00-.008.008.112.112 0 00-.03.024.086.086 0 00-.009.007.107.107 0 00-.006.022.114.114 0 00-.007.023v.024a.11.11 0 000 .021.114.114 0 00.008.024.093.093 0 00.005.007.112.112 0 00.024.03l3.234 2.672a.125.125 0 00.014.016.113.113 0 00.023.007.113.113 0 00.022.008h.023zm-5.379 12.238a.133.133 0 00.008-.007.114.114 0 00.022-.008.11.11 0 00.038-.03.109.109 0 00.008-.008.133.133 0 00.007-.007.114.114 0 00.008-.023v-.045a.111.111 0 00-.008-.023.114.114 0 00-.007-.023 2.38 2.38 0 01-.431-1.031 8.62 8.62 0 006.63-8.435.6.6 0 10-1.203.007 7.428 7.428 0 01-5.264 7.152c.069-.159.147-.316.253-.46a.114.114 0 00.007-.023.108.108 0 00.008-.008.106.106 0 00.007-.022v-.023a.108.108 0 00-.007-.023.114.114 0 00-.008-.022.108.108 0 00-.007-.008.112.112 0 00-.03-.037.09.09 0 00-.008-.008.11.11 0 00-.023-.008h-.075l-3.928 1.47h-.008a.11.11 0 00-.03.022.109.109 0 00-.008.007.09.09 0 00-.007.008.108.108 0 00-.008.007.108.108 0 00-.007.023.108.108 0 00-.008.023v.023a.105.105 0 00.008.022.108.108 0 00.007.023.109.109 0 00.008.007.108.108 0 00.007.008.108.108 0 00.023.03h.008l.015.008 3.912 1.418a.134.134 0 00.008.007h.007l.015.008h.008a.114.114 0 00.022.007h.031v.002z" fill="#01488A"/>
  <circle cx="12" cy="12" r="10.579" transform="rotate(90 12 12)" stroke="#DB2B39" stroke-width=".1"/>
</svg>
