<svg xmlns="http://www.w3.org/2000/svg" fill="none" viewBox="0 0 24 24">
  <path fill="#01488A" fill-rule="evenodd" d="M11.9 6.02a.2.2 0 01.23.04c.24.29.7.86 1.1 1.47.41.62.77 1.26.77 1.78 0 1-.9 1.81-2 1.81s-2-.8-2-1.8c0-.54.39-1.21.8-1.85h.01l.37-.55.65-.85a.19.19 0 01.07-.05zm-.54 1.69a.2.2 0 00-.16.08c-.44.62-.67 1.17-.63 1.65.03.26.14.5.34.69.2.18.5.3.84.27a.2.2 0 00.13-.06.18.18 0 00.05-.14.17.17 0 00-.07-.12.19.19 0 00-.14-.04.69.69 0 01-.55-.17.72.72 0 01-.22-.46c-.04-.33.15-.84.56-1.42a.17.17 0 00-.05-.26.2.2 0 00-.1-.02zm3.54 2.31a.2.2 0 01.23.04c.24.29.7.86 1.1 1.47.41.62.77 1.26.77 1.78 0 1-.9 1.81-2 1.81s-2-.8-2-1.8c0-.54.39-1.22.8-1.85h.01l.38-.55.64-.85a.18.18 0 01.07-.05zm-.54 1.69a.2.2 0 00-.16.08c-.44.62-.67 1.18-.63 1.65.03.26.14.5.34.69.2.18.5.3.84.27a.2.2 0 00.13-.06.18.18 0 00.05-.14.17.17 0 00-.07-.12.19.19 0 00-.14-.04.69.69 0 01-.55-.17.72.72 0 01-.22-.46c-.04-.33.15-.84.56-1.42a.17.17 0 00-.05-.26.2.2 0 00-.1-.02zM9.98 12a.2.2 0 00-.15.07l-.64.85-.38.54c-.42.64-.81 1.32-.81 1.85 0 1 .9 1.81 2 1.81s2-.8 2-1.8c0-.53-.36-1.17-.76-1.79a14.22 14.22 0 00-1.12-1.47.19.19 0 00-.14-.06zm-.71 1.73a.2.2 0 01.26.07.17.17 0 01-.02.19c-.41.58-.6 1.09-.56 1.42a.72.72 0 00.22.46c.13.12.3.19.55.17a.2.2 0 01.14.04.18.18 0 01.07.12.17.17 0 01-.05.14.19.19 0 01-.13.06 1.1 1.1 0 01-.84-.27 1.06 1.06 0 01-.33-.69c-.05-.48.18-1.03.62-1.65a.18.18 0 01.07-.06z" clip-rule="evenodd"/>
  <path fill="#01488A" d="M7.87 19.4a.6.6 0 00.26-1.12 7.47 7.47 0 01-3.56-8.15c.1.14.2.29.27.45a.13.13 0 000 .01.11.11 0 00.02.03.11.11 0 00.03.02.12.12 0 00.02 0 .13.13 0 00.01.01.11.11 0 00.04 0 .12.12 0 00.02 0 .13.13 0 00.01-.02.12.12 0 00.02 0 .13.13 0 000-.01.13.13 0 00.02 0 .12.12 0 000-.02.11.11 0 00.02-.02.11.11 0 000-.02v-.01l.7-4.13a.11.11 0 000-.01.11.11 0 000-.02v-.02a.11.11 0 00-.01-.03.11.11 0 00-.02-.02.11.11 0 00-.02-.02.11.11 0 00-.03-.01h-.05a.11.11 0 00-.02 0 .11.11 0 00-.03.02l-3.21 2.7a.11.11 0 00-.02.03.11.11 0 00-.01 0 .12.12 0 00-.01.01v.02a.11.11 0 000 .03.11.11 0 000 .02.11.11 0 000 .02.11.11 0 00.02.03.11.11 0 00.03.02.11.11 0 00.01.01.11.11 0 00.02.01h.04c.38-.04.76.01 1.1.14a8.64 8.64 0 00-.06 4.73 8.65 8.65 0 004.05 5.24.6.6 0 00.34.08zm11.8-10.2a.11.11 0 00.03-.01.11.11 0 00.02-.01.1.1 0 00.01 0 .11.11 0 00.03-.03.1.1 0 00.02-.03.11.11 0 000-.02v-.04l-.73-4.13a.11.11 0 000-.02.12.12 0 00-.02-.02.1.1 0 00-.03-.03.1.1 0 00-.01-.02h-.03a.11.11 0 00-.02 0 .11.11 0 00-.02 0h-.03a.11.11 0 00-.03.03.13.13 0 00-.01.01 2.4 2.4 0 01-.7.9 8.63 8.63 0 00-4.05-2.4 8.64 8.64 0 00-6.56.88.6.6 0 10.6 1.04 7.44 7.44 0 018.83.99 2.26 2.26 0 01-.54 0h-.03a.12.12 0 00-.02.01.13.13 0 000 .01.11.11 0 00-.04.03.1.1 0 00-.01.03.11.11 0 000 .02v.02a.11.11 0 000 .02.11.11 0 000 .03.11.11 0 00.03.03l3.23 2.68a.13.13 0 00.02.01.11.11 0 00.02 0 .11.11 0 00.02.02h.02zM14.3 21.43a.11.11 0 00.03-.01.11.11 0 00.03-.03.1.1 0 00.01 0 .13.13 0 000-.02.11.11 0 00.02-.02v-.04a.11.11 0 00-.01-.03.11.11 0 000-.02 2.38 2.38 0 01-.44-1.03 8.62 8.62 0 006.63-8.44.6.6 0 10-1.2.01 7.43 7.43 0 01-5.27 7.15c.07-.16.15-.31.26-.46a.11.11 0 000-.02.1.1 0 00.01 0 .1.1 0 000-.03v-.02a.1.1 0 000-.03.11.11 0 000-.02.1.1 0 00-.01 0 .11.11 0 00-.03-.04.09.09 0 00-.01-.01.11.11 0 00-.02 0h-.08l-3.93 1.46a.11.11 0 00-.03.02.1.1 0 00-.01.01.09.09 0 00-.01 0 .1.1 0 000 .02.1.1 0 00-.01.02.1.1 0 00-.01.02v.03a.1.1 0 000 .02.1.1 0 00.01.02.1.1 0 00.01 0 .1.1 0 000 .02.1.1 0 00.03.03h.02l3.92 1.42h.01l.02.02a.11.11 0 00.03 0h.03z"/>
  <circle cx="12" cy="12" r="10.58" stroke="#DB2B39" stroke-width=".1" transform="rotate(90 12 12)"/>
</svg>
