<svg fill="none" xmlns="http://www.w3.org/2000/svg" viewBox="0 0 24 24">
  <defs/>
  <path d="M11.943 3a.681.681 0 00-.283.07.65.65 0 00-.223.18 86.002 86.002 0 00-2.275 2.993l-1.313 1.9a.653.653 0 00-.009.013C6.366 10.396 5 12.752 5 14.642c0 3.522 3.174 6.352 7.025 6.352 3.852 0 7.027-2.83 7.027-6.352 0-1.83-1.262-4.086-2.68-6.254a49.926 49.926 0 00-3.907-5.164.683.683 0 00-.522-.224zm.018 1.695c.878 1.04 2.105 2.537 3.297 4.358 1.374 2.099 2.48 4.383 2.48 5.59 0 2.8-2.528 5.096-5.713 5.096-3.183 0-5.71-2.296-5.71-5.097 0-1.228 1.199-3.632 2.628-5.806l.007-.01.002-.003 1.298-1.877.007-.01.002-.001c.678-.938 1.208-1.61 1.702-2.24zm-1.174 4.487a.681.681 0 00-.305.077.647.647 0 00-.232.204C8.7 11.636 7.883 13.6 8.04 15.276a3.73 3.73 0 001.182 2.412c.706.646 1.737 1.033 2.944.937a.681.681 0 00.463-.212.623.623 0 00.16-.466.61.61 0 00-.238-.435.667.667 0 00-.493-.137c-.87.069-1.479-.184-1.928-.594a2.528 2.528 0 01-.783-1.616c-.11-1.174.532-2.95 1.99-4.993a.61.61 0 00-.204-.902.68.68 0 00-.346-.087z" fill="#01488A"/>
</svg>
