<svg fill="none" xmlns="http://www.w3.org/2000/svg" viewBox="0 0 24 24">
  <defs/>
  <path fill-rule="evenodd" clip-rule="evenodd" d="M7.815 8.15C6.353 10.39 5 12.743 5 14.63c0 3.519 3.146 6.346 6.965 6.346s6.966-2.827 6.966-6.346c0-1.827-1.25-4.082-2.657-6.247a49.83 49.83 0 00-3.873-5.159.673.673 0 00-1.02.026c-.51.65-1.348 1.724-2.248 2.98l-.007.01-1.302 1.898-.009.013zm1.104.667l1.292-1.883a77.37 77.37 0 011.713-2.29 49.697 49.697 0 013.246 4.404c.692 1.065 1.318 2.111 1.77 3.093.457.995.689 1.829.689 2.49 0 2.755-2.49 5.091-5.664 5.091-3.173 0-5.663-2.335-5.663-5.092 0-.68.252-1.549.743-2.59.484-1.024 1.15-2.115 1.873-3.222v-.001z" fill="#DB2B39"/>
  <path d="M11.203 14.089l-.212-2.848c-.04-.554-.06-.953-.06-1.194 0-.33.095-.585.285-.767.195-.187.448-.28.762-.28.38 0 .633.12.761.357.128.234.192.573.192 1.016 0 .262-.015.527-.046.797L12.6 14.1c-.03.35-.097.617-.198.803-.102.186-.27.28-.504.28-.238 0-.404-.09-.496-.268-.093-.182-.16-.458-.199-.826zM11.938 18c-.27 0-.506-.077-.709-.232-.198-.158-.298-.378-.298-.66 0-.245.095-.453.285-.624.195-.174.43-.261.709-.261.278 0 .514.087.708.261.2.17.298.379.298.625 0 .277-.099.495-.298.653-.198.159-.43.238-.695.238z" fill="#DB2B39"/>
</svg>
