<svg fill="none" xmlns="http://www.w3.org/2000/svg" viewBox="0 0 24 24">
  <defs/>
  <path d="M11.943 3a.681.681 0 00-.283.07.65.65 0 00-.223.18A85.992 85.992 0 009.17 6.233l-.007.01-.772 1.118.915.952.945-1.367.007-.01.002-.001c.624-.864 1.123-1.501 1.583-2.089l.118-.15c.88 1.039 2.106 2.536 3.298 4.357 1.374 2.099 2.48 4.383 2.48 5.59 0 .7-.158 1.368-.445 1.977l.947.985a5.833 5.833 0 00.812-2.963c0-1.83-1.262-4.086-2.68-6.254a49.925 49.925 0 00-3.907-5.164.683.683 0 00-.522-.224z" fill="#565656"/>
  <path fill-rule="evenodd" clip-rule="evenodd" d="M6.761 9.871L5 8.04 6.081 7l12.5 13-1.081 1.04-1.265-1.316a7.496 7.496 0 01-4.21 1.27c-3.85 0-7.024-2.83-7.024-6.352 0-1.41.76-3.082 1.76-4.77zm8.582 8.925a6.166 6.166 0 01-3.318.943c-3.183 0-5.71-2.296-5.71-5.097 0-.85.574-2.265 1.403-3.776l1.045 1.087c-.559 1.2-.818 2.313-.723 3.322a3.73 3.73 0 001.182 2.412c.706.646 1.737 1.033 2.944.937a.681.681 0 00.463-.212.623.623 0 00.16-.466.61.61 0 00-.238-.435.667.667 0 00-.493-.137c-.87.069-1.479-.184-1.928-.594a2.528 2.528 0 01-.783-1.616c-.055-.589.079-1.329.41-2.178l5.586 5.81z" fill="#565656"/>
  <path d="M11.336 10.171c-.035.05-.07.098-.103.147l-.908-.944a.681.681 0 01.807-.105c.105.059.19.144.247.247a.605.605 0 01-.043.655z" fill="#565656"/>
</svg>
