<svg fill="none" xmlns="http://www.w3.org/2000/svg" viewBox="0 0 24 24">
  <defs/>
  <path fill-rule="evenodd" clip-rule="evenodd" d="M11.66 3.07a.681.681 0 01.804.154 49.925 49.925 0 013.907 5.164c1.419 2.168 2.68 4.425 2.68 6.254 0 3.523-3.175 6.353-7.026 6.353S5 18.165 5 14.642c0-1.89 1.365-4.246 2.84-6.486l.008-.013 1.314-1.9.006-.01a85.928 85.928 0 012.268-2.983.65.65 0 01.224-.18zM9.766 9a.68.68 0 00-.305.077.647.647 0 00-.232.204c-1.55 2.172-2.367 4.135-2.21 5.811a3.731 3.731 0 001.182 2.413c.706.646 1.737 1.033 2.944.937a.682.682 0 00.463-.213.621.621 0 00.16-.466.607.607 0 00-.238-.434.667.667 0 00-.493-.137c-.87.069-1.479-.184-1.928-.594a2.528 2.528 0 01-.783-1.617c-.11-1.173.532-2.95 1.99-4.992a.61.61 0 00-.205-.902A.68.68 0 009.766 9z" fill="#01488A"/>
</svg>
