<svg fill="none" xmlns="http://www.w3.org/2000/svg" viewBox="0 0 24 24">
  <defs/>
  <path d="M11.943 3a.681.681 0 00-.283.07.65.65 0 00-.223.18A85.992 85.992 0 009.17 6.233l-.007.01-.772 1.118.915.952.945-1.367.007-.01.002-.001c.624-.864 1.123-1.501 1.583-2.089l.118-.15c.88 1.039 2.106 2.536 3.298 4.357 1.374 2.099 2.48 4.383 2.48 5.59 0 .7-.158 1.368-.445 1.977l.947.985a5.833 5.833 0 00.812-2.963c0-1.83-1.262-4.086-2.68-6.254a49.925 49.925 0 00-3.907-5.164.683.683 0 00-.522-.224z" fill="#DB2B39"/>
  <path fill-rule="evenodd" clip-rule="evenodd" d="M6.761 9.871L5 8.04 6.081 7l12.5 13-1.081 1.04-1.265-1.316a7.496 7.496 0 01-4.21 1.27c-3.85 0-7.024-2.83-7.024-6.352 0-1.41.76-3.082 1.76-4.77z" fill="#DB2B39"/>
</svg>
