<svg fill="none" xmlns="http://www.w3.org/2000/svg" viewBox="0 0 24 24">
  <defs/>
  <path fill-rule="evenodd" clip-rule="evenodd" d="M18.941 12.252c0 .315-.027.611-.064.907l1.952 1.527a.467.467 0 01.11.592l-1.85 3.201a.451.451 0 01-.564.204l-2.304-.925c-.481.36-1 .675-1.563.906l-.352 2.452a.451.451 0 01-.454.389h-3.7a.451.451 0 01-.454-.389l-.351-2.452a6.76 6.76 0 01-1.564-.906l-2.304.925a.465.465 0 01-.564-.204l-1.85-3.201a.467.467 0 01.11-.592l1.952-1.527a7.338 7.338 0 01-.064-.907c0-.305.027-.61.064-.906L3.175 9.819a.456.456 0 01-.11-.592l1.85-3.201a.45.45 0 01.564-.204l2.304.925c.481-.36 1-.675 1.564-.906l.351-2.452A.451.451 0 0110.152 3h3.7c.232 0 .426.167.454.389l.352 2.452a6.762 6.762 0 011.563.906l2.304-.925a.465.465 0 01.564.204l1.85 3.2a.467.467 0 01-.11.593l-1.952 1.527c.037.296.064.592.064.906zm-10.177 0a3.242 3.242 0 003.238 3.239 3.242 3.242 0 003.238-3.239 3.242 3.242 0 00-3.238-3.238 3.242 3.242 0 00-3.238 3.239z" fill="#01488A"/>
</svg>
