<svg xmlns="http://www.w3.org/2000/svg" fill="none" viewBox="0 0 24 24"><defs/><path fill="#828282" d="M21 3v16.86l-1.42-1.61V4.7h-1.9v11.4l-1.42-1.61V3H21z"/><path fill="#828282" fill-rule="evenodd" d="M16.26 19.48l-1.9-2.14v3.8H9.64v-9.18l-6.27-7.1L4.64 3.4l16 18.15L19.36 23l-1.63-1.86h-1.47v-1.66zm-5.2-5.9v5.86h1.89v-3.72l-1.9-2.14z" clip-rule="evenodd"/><path fill="#828282" d="M14.37 8.67v3.67l-1.42-1.61v-.36h-.32l-1.5-1.7h3.24z"/><path fill="#828282" fill-rule="evenodd" d="M7.74 14.34H3v6.8h4.74v-6.8zm-1.42 1.7v3.4h-1.9v-3.4h1.9z" clip-rule="evenodd"/><path stroke="#BB6BD9" stroke-width=".1" d="M.05.05h23.9v23.9H.05z"/></svg>