<svg width="24" height="24" viewBox="0 0 24 24" fill="none" xmlns="http://www.w3.org/2000/svg">
<path d="M21 3V19.8613L19.5789 18.2498V4.70103H17.6842V16.1011L16.2632 14.4896V3H21Z" fill="#828282"/>
<path fill-rule="evenodd" clip-rule="evenodd" d="M16.2632 19.484L14.3684 17.3354V21.1443H9.63158V11.9637L3.3636 4.8557L4.63639 3.41233L20.6364 21.5566L19.3636 23L17.7272 21.1443H16.2632V19.484ZM11.0526 13.5752V19.4433H12.9474V15.7239L11.0526 13.5752Z" fill="#828282"/>
<path d="M14.3684 8.67009V12.341L12.9474 10.7295V10.3711H12.6314L11.1314 8.67009H14.3684Z" fill="#828282"/>
<path fill-rule="evenodd" clip-rule="evenodd" d="M7.73684 14.3402H3V21.1443H7.73684V14.3402ZM6.31579 16.0412V19.4433H4.42105V16.0412H6.31579Z" fill="#828282"/>
<rect x="0.05" y="0.05" width="23.9" height="23.9" stroke="#BB6BD9" stroke-width="0.1"/>
</svg>
