<svg width="24" height="24" viewBox="0 0 24 24" fill="none" xmlns="http://www.w3.org/2000/svg">
<path fill-rule="evenodd" clip-rule="evenodd" d="M7.68944 4.76028C7.73769 4.74273 7.7846 4.72566 7.83016 4.71138C8.72591 4.44067 9.43418 4.63202 10.3086 4.86824C10.8304 5.00922 11.4114 5.16617 12.1267 5.25045C12.5424 5.31398 13.0055 5.20833 13.4722 5.10185C13.8835 5.008 14.2977 4.91352 14.6847 4.93364C15.0925 4.94344 15.4613 5.0024 15.8123 5.05851C16.4014 5.15268 16.9403 5.23883 17.5291 5.07103C17.9158 4.9628 18.245 4.7848 18.5076 4.6428C18.7806 4.49516 18.9817 4.38643 19.1006 4.43551C19.2159 4.47926 19.2015 4.54835 19.155 4.7716C19.1082 4.99642 19.0288 5.37759 19.0165 6.04666C19.024 6.34005 19.1368 6.6657 19.2519 6.99768C19.3058 7.15332 19.3602 7.31035 19.4045 7.46611C19.6248 8.16593 19.754 8.97725 19.8881 9.81852C20.0256 10.6819 20.1682 11.5767 20.4193 12.415C20.9732 14.2867 21.5428 16.3547 20.6573 16.5772C20.2542 16.6785 19.6085 16.8471 18.8717 17.0396C17.8926 17.2954 16.7526 17.5932 15.807 17.8307C14.4375 17.9025 13.3901 17.4212 12.7695 16.4089C12.6632 16.3895 12.644 16.5662 12.6217 16.7709C12.5964 17.0028 12.5672 17.2706 12.4033 17.3303C12.3078 17.4293 12.1714 17.3435 12.0042 17.2383C11.8262 17.1264 11.6134 16.9925 11.3782 17.0365C11.3203 17.051 11.2453 17.0862 11.1569 17.1275C10.8728 17.2605 10.4502 17.4583 10.0139 17.2462C10.0125 17.2401 10.0112 17.2568 10.0112 17.2568C9.90446 17.5341 7.73973 19.9177 6.11957 20.547L6.04831 20.5707C4.20796 21.2235 0.701077 19.9412 1.02041 20.029C1.77826 20.3104 4.82222 20.3183 5.43107 20.0704C6.03987 19.8446 6.54602 19.5681 6.98103 19.2756L8.29987 17.9869L9.12712 16.3508L9.1356 16.3487C9.07113 16.2481 9.08634 15.817 9.27461 15.7405C9.30522 15.289 8.89256 15.0334 8.52345 14.8047C8.48197 14.779 8.44104 14.7537 8.40135 14.7284C8.33306 14.5583 8.47336 14.4654 8.63114 14.361C8.80669 14.2448 9.00388 14.1143 8.95947 13.847C8.89393 13.5621 8.73177 13.3878 8.53436 13.1758C8.1673 12.7814 7.67835 12.2561 7.46203 10.6444C7.44919 10.1461 7.39232 9.49983 7.33245 8.81932C7.17595 7.04067 6.99889 5.02835 7.53359 4.81436C7.58702 4.79754 7.63897 4.77864 7.68944 4.76028ZM13.0138 12.7729C13.0138 12.8369 13.0148 12.934 13.0188 13.0622H13.934C13.9412 12.6758 13.9665 12.3974 14.0133 12.2253C14.0585 12.0549 14.129 11.9029 14.2244 11.7691C14.3201 11.6373 14.5222 11.4321 14.8325 11.152C15.2945 10.738 15.603 10.3846 15.762 10.0951C15.9206 9.80581 16 9.48895 16 9.14646C16 8.55127 15.7745 8.04567 15.3233 7.62813C14.8723 7.20877 14.2678 7 13.5099 7C12.7954 7 12.2198 7.19402 11.785 7.5841C11.3499 7.97418 11.0884 8.53653 11 9.2691L11.978 9.38817C12.0628 8.84058 12.2396 8.43758 12.5121 8.17939C12.7828 7.92293 13.1202 7.79287 13.5262 7.79287C13.9447 7.79287 14.3003 7.93585 14.5891 8.21976C14.8777 8.50541 15.0221 8.83519 15.0221 9.21052C15.0221 9.41746 14.9734 9.60986 14.8741 9.78374C14.7748 9.95967 14.562 10.1941 14.2317 10.4909C13.9033 10.7857 13.6742 11.0092 13.5479 11.1631C13.3747 11.3755 13.2502 11.5843 13.1725 11.7912C13.0661 12.066 13.0138 12.3937 13.0138 12.7729ZM12.9611 13.8992V15H14.0437V13.8992H12.9611Z" fill="#01488A"/>
<rect x="0.05" y="0.05" width="23.9" height="23.9" stroke="#BB6BD9" stroke-width="0.1"/>
</svg>
