<svg xmlns="http://www.w3.org/2000/svg" fill="none" viewBox="0 0 24 24"><defs/><path fill="#01488A" fill-rule="evenodd" d="M7.69 4.76l.14-.05c.9-.27 1.6-.08 2.48.16.52.14 1.1.3 1.82.38.41.06.88-.04 1.34-.15.41-.1.83-.19 1.21-.17.41.01.78.07 1.13.13.6.1 1.13.18 1.72.01.39-.1.71-.29.98-.43s.47-.25.6-.2c.1.04.1.1.05.33s-.13.6-.14 1.28c0 .29.12.62.23.95.06.15.11.31.15.47.22.7.35 1.5.49 2.35.14.86.28 1.76.53 2.6.55 1.87 1.12 3.93.24 4.16l-1.79.46-3.06.8c-1.37.06-2.42-.42-3.04-1.43-.1-.02-.13.16-.15.36-.02.23-.05.5-.22.56-.1.1-.23.01-.4-.1-.17-.1-.39-.24-.62-.2l-.22.1c-.29.13-.71.33-1.15.12 0-.01 0 0 0 0-.1.28-2.27 2.67-3.89 3.3l-.07.02c-1.84.65-5.35-.63-5.03-.54.76.28 3.8.29 4.41.04a7.3 7.3 0 001.55-.8L8.3 18l.83-1.64c-.06-.1-.04-.53.14-.61.04-.45-.38-.7-.75-.94l-.12-.07c-.07-.17.07-.26.23-.37.18-.12.37-.25.33-.51-.07-.29-.23-.46-.43-.67-.36-.4-.85-.92-1.07-2.54-.01-.5-.07-1.14-.13-1.82-.15-1.78-.33-3.8.2-4l.16-.06zM13 12.77v.3h.92c.01-.4.04-.67.08-.84.05-.18.12-.33.21-.46.1-.13.3-.34.61-.62.46-.41.77-.77.93-1.05.16-.3.24-.61.24-.95a2 2 0 00-.68-1.52A2.56 2.56 0 0013.51 7c-.71 0-1.29.2-1.72.58-.44.4-.7.96-.79 1.69l.98.12c.08-.55.26-.95.53-1.21s.61-.39 1.02-.39c.41 0 .77.15 1.06.43.29.29.43.62.43 1 0 .2-.05.39-.15.56-.1.18-.3.41-.64.71-.33.3-.56.52-.68.67a2.26 2.26 0 00-.54 1.61zm-.05 1.13V15h1.08v-1.1h-1.08z" clip-rule="evenodd"/><path stroke="#BB6BD9" stroke-width=".1" d="M.05.05h23.9v23.9H.05z"/></svg>