<svg fill="none" xmlns="http://www.w3.org/2000/svg" viewBox="0 0 24 24">
  <defs/>
  <path fill-rule="evenodd" clip-rule="evenodd" d="M6.111 4.548c0-.303-.2-.548-.448-.548-.247 0-.448.245-.448.548v12.871l.003.066c.052.691.246 1.238.55 1.668a2.67 2.67 0 001.175.921c.049.021.098.03.146.03h9.822a.377.377 0 00.166-.038c.464-.2.858-.493 1.155-.913.307-.433.501-.986.552-1.686v-.048h.001V4.548c0-.303-.2-.548-.448-.548s-.448.245-.448.548v13.61H6.11V4.549zM2.008 19.914c.016.564.16.717.393.476l.849-.98.84-.988c.236-.31.23-.636.009-.919l-.849-.98-.847-.96c-.252-.255-.39-.081-.403.443 0 .703.005 3.22.008 3.908zm19.984 0c-.016.564-.16.717-.393.476l-.849-.98-.84-.988c-.236-.31-.23-.636-.009-.919l.849-.98.847-.96c.252-.255.391-.081.403.443 0 .703-.005 3.22-.008 3.908z" fill="#DB2B39"/>
</svg>
