<svg fill="none" xmlns="http://www.w3.org/2000/svg" viewBox="0 0 24 24">
  <defs/>
  <path fill-rule="evenodd" clip-rule="evenodd" d="M6.111 4.539c0-.3-.2-.545-.448-.545-.247 0-.448.244-.448.545V17.33c0 .022 0 .044.003.065.052.688.246 1.23.55 1.658a2.67 2.67 0 001.175.916c.048.02.098.03.146.03h9.822a.38.38 0 00.166-.038 2.66 2.66 0 001.155-.908c.307-.43.501-.98.552-1.675l.001-.048V4.54c0-.3-.2-.545-.448-.545-.247 0-.448.244-.448.545v.339H6.11v-.34zM2.008 6.94c.016.56.16.712.393.473l.849-.975.84-.98c.236-.308.23-.633.009-.914L3.25 3.57l-.847-.955c-.252-.253-.39-.08-.403.44 0 .7.005 3.201.008 3.885zm19.984 0c-.016.56-.16.712-.393.473l-.849-.975-.84-.98c-.236-.308-.23-.633-.009-.914l.849-.974.847-.955c.252-.253.39-.08.403.44 0 .7-.005 3.201-.008 3.885z" fill="#01488A"/>
</svg>
