<svg fill="none" xmlns="http://www.w3.org/2000/svg" viewBox="0 0 24 24">
  <defs/>
  <path fill-rule="evenodd" clip-rule="evenodd" d="M6.111 4.544c0-.3-.2-.544-.448-.544-.247 0-.448.244-.448.544v12.788c0 .022 0 .044.003.065.052.687.246 1.23.55 1.658a2.67 2.67 0 001.175.915c.048.02.098.03.146.03h9.822a.38.38 0 00.166-.038 2.66 2.66 0 001.155-.907c.307-.431.501-.98.552-1.675v-.048h.001V4.544c0-.3-.2-.544-.448-.544s-.448.244-.448.544v6.627H6.11V4.544zm-4.103 8.16c.016.56.16.712.393.473l.849-.975.84-.98c.236-.308.23-.632.01-.913l-.85-.974-.847-.955c-.252-.252-.39-.08-.403.44 0 .7.005 3.2.008 3.884zm19.984 0c-.016.56-.16.712-.393.473l-.849-.975-.84-.98c-.236-.308-.23-.632-.009-.913l.849-.974.847-.955c.252-.252.39-.08.403.44 0 .7-.005 3.2-.008 3.884z" fill="#01488A"/>
</svg>
