<svg xmlns="http://www.w3.org/2000/svg" fill="none" viewBox="0 0 24 24">
  <path fill="#01488A" fill-rule="evenodd" d="M6.11 4.54c0-.3-.2-.54-.45-.54-.24 0-.45.24-.45.54V17.4c.06.68.25 1.23.56 1.66a2.67 2.67 0 001.17.91l.15.03h9.82a.38.38 0 00.17-.04 2.66 2.66 0 001.15-.9c.3-.44.5-.98.55-1.68V4.54c0-.3-.2-.54-.44-.54s-.45.24-.45.54v6.63H6.1V4.54zm-4.1 8.16c.01.56.16.72.4.48l.84-.98.84-.98c.24-.3.23-.63.01-.91l-.85-.97-.85-.96c-.25-.25-.39-.08-.4.44v3.88zm19.98 0c-.01.56-.16.72-.4.48l-.84-.98-.84-.98c-.24-.3-.23-.63 0-.91l.84-.97.85-.96c.25-.25.39-.08.4.44v3.88z" clip-rule="evenodd"/>
</svg>
