<svg xmlns="http://www.w3.org/2000/svg" fill="none" viewBox="0 0 24 24">
  <path fill="#DB2B39" fill-rule="evenodd" d="M6.11 4.55c0-.3-.2-.55-.45-.55-.24 0-.45.24-.45.55v12.93c.06.7.25 1.24.56 1.67a2.67 2.67 0 001.17.92l.15.03h9.82a.38.38 0 00.17-.03c.46-.2.85-.5 1.15-.92.3-.43.5-.98.55-1.68V4.55c0-.3-.2-.55-.44-.55s-.45.24-.45.55v13.6H6.1V4.56zM2.01 19.9c.01.57.16.72.4.48l.84-.98.84-.99c.24-.3.23-.63 0-.92l-.84-.98-.85-.96c-.25-.25-.39-.08-.4.45v3.9zm19.98 0c-.01.57-.16.72-.4.48l-.84-.98-.84-.99c-.24-.3-.23-.63 0-.92l.84-.98.85-.96c.25-.25.39-.08.4.45v3.9z" clip-rule="evenodd"/>
</svg>
