<svg xmlns="http://www.w3.org/2000/svg" fill="none" viewBox="0 0 24 24">
  <path fill="#01488A" fill-rule="evenodd" d="M6.11 4.54c0-.3-.2-.55-.45-.55-.24 0-.45.25-.45.55V17.4c.06.68.25 1.23.56 1.65a2.67 2.67 0 001.17.92l.15.03h9.82a.38.38 0 00.17-.04 2.66 2.66 0 001.15-.9c.3-.44.5-.99.55-1.68V4.54c0-.3-.2-.55-.44-.55-.25 0-.45.25-.45.55v.34H6.1v-.34zm-4.1 2.4c.01.56.16.71.4.47l.84-.97.84-.98c.24-.31.23-.63 0-.92l-.84-.97-.85-.95c-.25-.26-.39-.09-.4.43v3.89zm19.98 0c-.01.56-.16.71-.4.47l-.84-.97-.84-.98c-.24-.31-.23-.63 0-.92l.84-.97.85-.95c.25-.26.39-.08.4.44v3.88z" clip-rule="evenodd"/>
</svg>
