<svg width="24" height="24" viewBox="0 0 24 24" fill="none" xmlns="http://www.w3.org/2000/svg">
<path fill-rule="evenodd" clip-rule="evenodd" d="M11.2969 9.01367H12.7031V7.91406H11.2969V9.01367ZM10.0195 9.44922V11.9531C10.3445 11.7572 10.6729 11.5757 11.0195 11.4472C11.3342 11.3306 11.6639 11.2578 12.0195 11.2578C12.3605 11.2578 12.6776 11.3247 12.9805 11.433C13.3275 11.5571 13.656 11.7355 13.9805 11.9297V9.44922H10.0195ZM14.9805 12.8692C14.7736 12.753 14.5708 12.628 14.3686 12.5033C14.1897 12.393 14.0113 12.283 13.8309 12.1796C13.6743 12.0899 13.5162 12.0052 13.355 11.9297C13.2322 11.8721 13.1076 11.82 12.9805 11.775C12.6774 11.6678 12.3602 11.6016 12.0195 11.6016C11.6642 11.6016 11.3344 11.6736 11.0195 11.7891C10.889 11.837 10.7609 11.8923 10.6347 11.9531C10.4773 12.0289 10.3228 12.1131 10.1695 12.2019C10.0023 12.2987 9.83657 12.4009 9.67048 12.5033C9.45555 12.6358 9.23996 12.7688 9.01953 12.891C8.60685 13.1199 8.1772 13.3113 7.70312 13.3926H6.76758C6.61177 13.3926 6.48633 13.518 6.48633 13.6738V13.9121H3.01172V18.7168H6.48633V18.9551C6.48633 19.1109 6.61177 19.2363 6.76758 19.2363H7.70312C8.43042 19.3609 9.05319 19.745 9.67048 20.1256C10.4055 20.5789 11.1328 21.0273 12.0195 21.0273C12.9063 21.0273 13.6335 20.5789 14.3686 20.1256C14.9859 19.745 15.6086 19.3609 16.3359 19.2363H17.2324C17.3882 19.2363 17.5137 19.1109 17.5137 18.9551V18.7168H20.9883V13.9121H17.5137V13.6738C17.5137 13.518 17.3882 13.3926 17.2324 13.3926H16.3359C15.8469 13.3088 15.4051 13.1077 14.9805 12.8692ZM19.9883 14.9121H16.5137V14.3926H16.2509L16.1671 14.3782C15.2363 14.2187 14.447 13.7291 13.8522 13.3602C13.7893 13.3211 13.7286 13.2835 13.6701 13.2477C12.9873 12.8299 12.5243 12.6016 12.0195 12.6016C11.5148 12.6016 11.0518 12.8299 10.369 13.2477C10.3105 13.2835 10.2497 13.3211 10.1868 13.3602C9.59211 13.7291 8.80278 14.2187 7.87201 14.3782L7.78818 14.3926H7.48633V14.9121H4.01172V17.7168H7.48633V18.2363H7.78818L7.87201 18.2507C8.80278 18.4102 9.59211 18.8998 10.1868 19.2687C10.2497 19.3078 10.3105 19.3454 10.369 19.3812C11.0518 19.799 11.5148 20.0273 12.0195 20.0273C12.5243 20.0273 12.9873 19.799 13.6701 19.3812C13.7286 19.3454 13.7893 19.3078 13.8522 19.2687C14.447 18.8998 15.2363 18.4102 16.1671 18.2507L16.2509 18.2363H16.5137V17.7168H19.9883V14.9121ZM10.4844 8.31641V7.47266H11.9785V7.48047H13.5156V8.32422H15.4883C16.0769 8.32422 16.5508 7.85034 16.5508 7.26172V4.04297C16.5508 3.45434 16.0769 2.98047 15.4883 2.98047C14.7656 2.98047 14.3272 3.19776 13.8734 3.42269C13.3884 3.66306 12.8859 3.91214 12 3.91406C11.1138 3.91598 10.6141 3.6645 10.1302 3.42101C9.67783 3.19334 9.23931 2.97266 8.51172 2.97266C7.92309 2.97266 7.44922 3.44653 7.44922 4.03516V7.25391C7.44922 7.84253 7.92309 8.31641 8.51172 8.31641H10.4844ZM9.48438 7.31641H8.51172C8.47538 7.31641 8.44922 7.29025 8.44922 7.25391V4.03516C8.44922 3.99882 8.47538 3.97266 8.51172 3.97266C9.00066 3.97266 9.25771 4.10179 9.70856 4.32829L9.72862 4.33837C10.25 4.60026 10.9128 4.91641 12.0022 4.91406C13.0865 4.91171 13.7485 4.60015 14.27 4.34219L14.2888 4.33288C14.7423 4.10849 15.001 3.98047 15.4883 3.98047C15.5246 3.98047 15.5508 4.00663 15.5508 4.04297V7.26172C15.5508 7.29806 15.5246 7.32422 15.4883 7.32422H14.5156V6.48047H12.9785V6.47266H9.48438V7.31641Z" fill="#003769"/>
<path d="M12 15.3672L10.5938 13.9609L9.65625 14.8984L11.0625 16.3047L9.65625 17.7109L10.5938 18.6484L12 17.2422L13.4062 18.6484L14.3438 17.7109L12.9375 16.3047L14.3438 14.8984L13.4062 13.9609L12 15.3672Z" fill="#003769"/>
<rect x="0.05" y="0.05" width="23.9" height="23.9" stroke="#BB6BD9" stroke-width="0.1"/>
</svg>
