<svg xmlns="http://www.w3.org/2000/svg" fill="none" viewBox="0 0 24 24"><defs/><path fill="#828282" fill-rule="evenodd" d="M7.79 14.61v.52H4.3v2.37H7.8v.52h.03l.12.02c1 .17 1.85.7 2.44 1.06l.18.11c.69.43 1.07.6 1.46.6.39 0 .77-.17 1.46-.6l.18-.1c.47-.3 1.1-.69 1.83-.92l-5.23-4.59c-.58.36-1.39.83-2.32 1l-.12.01H7.8zm1.48-1.87c-.18.11-.36.22-.55.3-.32.17-.66.3-1.02.35h-.93a.28.28 0 00-.28.28v.24H3v4.81H6.5v.24c0 .15.12.28.28.28h.93c.73.12 1.35.5 1.97.89.74.45 1.46.9 2.35.9.89 0 1.61-.45 2.35-.9.62-.38 1.24-.77 1.97-.9h.35l2.75 2.41 1.12-1.28-16-14-1.12 1.28 5.83 5.1zm11.56 5.98l-1.39-1.22h.25v-2.37H16.75l-.54-.47v-.05l-.06-.01-3.24-2.85a4.04 4.04 0 01.9.42c.2.1.37.22.56.33.3.19.6.37.91.53.33.17.68.3 1.06.36h.9c.15 0 .27.13.27.28v.24H21v4.81h-.16zm-8.15-7.38a2.8 2.8 0 00-.3-.06L10.3 9.45H13.98v2.48a4.88 4.88 0 00-1.3-.59zM8.72 8.32h-.2c-.6 0-1.07-.48-1.07-1.07V4.04c0-.6.47-1.07 1.06-1.07.73 0 1.17.22 1.62.45.48.24.98.5 1.87.5.89 0 1.39-.26 1.87-.5.46-.22.9-.44 1.62-.44.59 0 1.06.47 1.06 1.06v3.22c0 .59-.47 1.06-1.06 1.06h-1.97V7.48h-3.04v.84H8.72zm.46-1.22h-.43V4.2c.26.04.45.14.81.32.54.27 1.26.62 2.44.61 1.17 0 1.9-.34 2.43-.6.37-.19.56-.28.82-.32v2.9h-.43v-.85H9.18v.84zM12.7 9V7.91h-1.4v1.1h1.4z" clip-rule="evenodd"/><path stroke="#BB6BD9" stroke-width=".1" d="M.05.05h23.9v23.9H.05z"/></svg>