<svg width="24" height="24" viewBox="0 0 24 24" fill="none" xmlns="http://www.w3.org/2000/svg">
<g filter="url(#filter0_d)">
<path fill-rule="evenodd" clip-rule="evenodd" d="M7.78818 14.4023H7.48633V14.9219H4.01172V17.7266H7.48633V18.2461H7.78818L7.87201 18.2605C8.80278 18.4199 9.5921 18.9096 10.1868 19.2785C10.2497 19.3175 10.3105 19.3552 10.369 19.391C11.0518 19.8088 11.5148 20.0371 12.0195 20.0371C12.5243 20.0371 12.9873 19.8088 13.6701 19.391C13.7286 19.3552 13.7893 19.3175 13.8522 19.2785C14.447 18.9096 15.2363 18.4199 16.1671 18.2605L16.2509 18.2461H16.5137V17.7266H19.9883V14.9219H16.5137V14.4023H16.2509L16.1671 14.388C15.2363 14.2285 14.447 13.7389 13.8522 13.3699C13.7893 13.3309 13.7286 13.2932 13.6701 13.2575C12.9873 12.8397 12.5243 12.6113 12.0195 12.6113C11.5148 12.6113 11.0518 12.8397 10.369 13.2574C10.3105 13.2932 10.2498 13.3309 10.1868 13.3699C9.59211 13.7389 8.80278 14.2285 7.87202 14.388L7.78818 14.4023ZM20.9883 13.9219V18.7266H17.5137V18.9648C17.5137 19.1207 17.3882 19.2461 17.2324 19.2461H16.3359C15.6086 19.3707 14.9859 19.7547 14.3686 20.1354C13.6335 20.5886 12.9063 21.0371 12.0195 21.0371C11.1328 21.0371 10.4055 20.5886 9.67047 20.1354C9.05319 19.7547 8.43042 19.3707 7.70312 19.2461H6.76758C6.61177 19.2461 6.48633 19.1207 6.48633 18.9648V18.7266H3.01172V13.9219H6.48633V13.6836C6.48633 13.5278 6.61177 13.4023 6.76758 13.4023H7.70313C8.1772 13.3211 8.60686 13.1297 9.01954 12.9008C9.23997 12.7785 9.45555 12.6456 9.67048 12.5131C9.83657 12.4106 10.0023 12.3085 10.1695 12.2116C10.3228 12.1229 10.4774 12.0387 10.6347 11.9629C10.7609 11.9021 10.889 11.8467 11.0195 11.7988C11.3344 11.6833 11.6642 11.6113 12.0195 11.6113C12.3602 11.6113 12.6774 11.6775 12.9805 11.7848C13.1076 11.8297 13.2322 11.8819 13.355 11.9395C13.5162 12.0149 13.6743 12.0996 13.8309 12.1894C14.0113 12.2927 14.1897 12.4027 14.3686 12.5131C14.5708 12.6377 14.7736 12.7628 14.9805 12.879C15.4051 13.1175 15.8469 13.3185 16.3359 13.4023H17.2324C17.3882 13.4023 17.5137 13.5278 17.5137 13.6836V13.9219H20.9883ZM10.0195 9.45898V11.9629C10.3445 11.767 10.6729 11.5854 11.0195 11.457C11.3342 11.3404 11.6639 11.2676 12.0195 11.2676C12.3605 11.2676 12.6776 11.3345 12.9805 11.4428C13.3275 11.5669 13.656 11.7453 13.9805 11.9395V9.45898H10.0195ZM15.4883 8.33398C16.0769 8.33398 16.5508 7.86011 16.5508 7.27148V4.05273C16.5508 3.46411 16.0769 2.99023 15.4883 2.99023C14.7656 2.99023 14.3272 3.20753 13.8734 3.43246C13.3884 3.67283 12.8859 3.92191 12 3.92383C11.1138 3.92574 10.6141 3.67426 10.1302 3.43078C9.67783 3.2031 9.23931 2.98242 8.51172 2.98242C7.92309 2.98242 7.44922 3.4563 7.44922 4.04492V7.26367C7.44922 7.8523 7.92309 8.32617 8.51172 8.32617H10.4844V7.48242H11.9785V7.49023H13.5156V8.33398H15.4883ZM12.7031 7.92383H11.2969V9.02344H12.7031V7.92383ZM14.5156 7.33398H15.4883C15.5246 7.33398 15.5508 7.30782 15.5508 7.27148V4.05273C15.5508 4.01639 15.5246 3.99023 15.4883 3.99023C15.001 3.99023 14.7423 4.11825 14.2888 4.34264L14.27 4.35195C13.7485 4.60992 13.0865 4.92148 12.0022 4.92382C10.9128 4.92618 10.25 4.61002 9.72862 4.34813L9.70856 4.33806C9.25771 4.11156 9.00066 3.98242 8.51172 3.98242C8.47538 3.98242 8.44922 4.00858 8.44922 4.04492V7.26367C8.44922 7.30001 8.47538 7.32617 8.51172 7.32617H9.48438V6.48242H12.9785V6.49023H14.5156V7.33398Z" fill="#003769"/>
<path d="M11.9615 14.2398V15.1796H9.34869V17.4474H11.9615V18.3872L15.5107 16.3126L11.9615 14.2398Z" fill="#003769"/>
</g>
<rect x="0.05" y="0.05" width="23.9" height="23.9" stroke="#BB6BD9" stroke-width="0.1"/>
<defs>
<filter id="filter0_d" x="2.51172" y="2.48242" width="19.9766" height="20.0547" filterUnits="userSpaceOnUse" color-interpolation-filters="sRGB">
<feFlood flood-opacity="0" result="BackgroundImageFix"/>
<feColorMatrix in="SourceAlpha" type="matrix" values="0 0 0 0 0 0 0 0 0 0 0 0 0 0 0 0 0 0 127 0"/>
<feOffset dx="0.5" dy="0.5"/>
<feGaussianBlur stdDeviation="0.5"/>
<feColorMatrix type="matrix" values="0 0 0 0 0 0 0 0 0 0 0 0 0 0 0 0 0 0 0.25 0"/>
<feBlend mode="normal" in2="BackgroundImageFix" result="effect1_dropShadow"/>
<feBlend mode="normal" in="SourceGraphic" in2="effect1_dropShadow" result="shape"/>
</filter>
</defs>
</svg>
