<svg width="24" height="24" viewBox="0 0 24 24" fill="none" xmlns="http://www.w3.org/2000/svg">
<path fill-rule="evenodd" clip-rule="evenodd" d="M7.78633 14.612V15.1315H4.31172V17.4974H7.78633V18.0169H7.82089L7.93673 18.0368C8.94198 18.209 9.78937 18.7359 10.3764 19.101C10.4398 19.1404 10.5001 19.1779 10.5573 19.2129C11.2484 19.6357 11.6329 19.8079 12.0195 19.8079C12.4061 19.8079 12.7907 19.6357 13.4818 19.2129C13.5389 19.1779 13.5993 19.1404 13.6626 19.101C14.2497 18.736 15.0971 18.209 16.1023 18.0368L16.2137 18.0177V17.4974H19.6883V15.1315H16.2137V14.6112L16.1023 14.5921C15.0971 14.4199 14.2497 13.893 13.6626 13.5279C13.5993 13.4885 13.5389 13.451 13.4818 13.416C12.7907 12.9932 12.4061 12.821 12.0195 12.821C11.6329 12.821 11.2484 12.9932 10.5573 13.416C10.5001 13.451 10.4398 13.4885 10.3764 13.5279C9.78938 13.893 8.94199 14.4199 7.93673 14.5921L7.82089 14.612H7.78633ZM20.9883 13.9121V18.7168H17.5137V18.9551C17.5137 19.1109 17.3882 19.2363 17.2324 19.2363H16.3359C15.6086 19.3609 14.9859 19.745 14.3686 20.1256C13.6335 20.5789 12.9063 21.0273 12.0195 21.0273C11.1328 21.0273 10.4055 20.5789 9.67048 20.1256C9.05319 19.745 8.43042 19.3609 7.70312 19.2363H6.76758C6.61177 19.2363 6.48633 19.1109 6.48633 18.9551V18.7168H3.01172V13.9121H6.48633V13.6738C6.48633 13.518 6.61177 13.3926 6.76758 13.3926H7.70312C8.06358 13.3308 8.39837 13.2053 8.71953 13.0481C9.04638 12.8881 9.35913 12.6953 9.67048 12.5033C9.84142 12.3979 10.012 12.2927 10.1842 12.1934C10.3326 12.1078 10.4824 12.0265 10.6347 11.9531C10.8561 11.8465 11.083 11.7566 11.3195 11.6944C11.5431 11.6356 11.7753 11.6016 12.0195 11.6016C12.2496 11.6016 12.4689 11.6318 12.6805 11.6844C12.9135 11.7424 13.1371 11.8276 13.355 11.9297C13.5111 12.0028 13.6644 12.0846 13.8162 12.1712C14.0016 12.277 14.1848 12.39 14.3686 12.5033C14.6675 12.6876 14.9677 12.8727 15.2805 13.0288C15.6135 13.195 15.9608 13.3283 16.3359 13.3926H17.2324C17.3882 13.3926 17.5137 13.518 17.5137 13.6738V13.9121H20.9883ZM15.4883 8.32421C16.0769 8.32421 16.5508 7.85034 16.5508 7.26171V4.04297C16.5508 3.45434 16.0769 2.98047 15.4883 2.98047C14.7656 2.98047 14.3272 3.19776 13.8734 3.42269C13.3884 3.66306 12.8859 3.91214 12 3.91406C11.1138 3.91598 10.6141 3.6645 10.1302 3.42101C10.0246 3.36784 9.91971 3.31506 9.81172 3.26538C9.45726 3.1023 9.0694 2.97265 8.51172 2.97266C7.9231 2.97266 7.44922 3.44653 7.44922 4.03516V7.25391C7.44922 7.84253 7.9231 8.31641 8.51172 8.31641H10.4844V7.47266H11.9785V7.48046H13.5156V8.32421H15.4883ZM12.7031 7.91406H11.2969V9.01367H12.7031V7.91406ZM10.0195 9.44922V11.9531C10.4368 11.7016 10.8598 11.4737 11.3195 11.3516C11.543 11.2922 11.7751 11.2578 12.0195 11.2578C12.2497 11.2578 12.4691 11.2883 12.6805 11.3415C13.141 11.4573 13.564 11.6804 13.9805 11.9297V9.44922H10.0195ZM14.8156 7.10481V6.26105H13.2785V6.25325H9.18438V7.097H8.74922V4.2062C9.00625 4.2402 9.20101 4.33753 9.56379 4.51974C10.1 4.78904 10.8245 5.13602 12.003 5.13346C13.1746 5.13093 13.8971 4.78959 14.433 4.52446C14.7972 4.3443 14.9936 4.24774 15.2508 4.21395V7.10481H14.8156Z" fill="#EB5757"/>
<rect x="0.05" y="0.05" width="23.9" height="23.9" stroke="#BB6BD9" stroke-width="0.1"/>
</svg>
