<svg width="24" height="24" viewBox="0 0 24 24" fill="none" xmlns="http://www.w3.org/2000/svg">
<path fill-rule="evenodd" clip-rule="evenodd" d="M7.78633 14.612V15.1315H6.48633H4.31172V17.4974H6.48633H7.78633V18.0169H7.82089L7.93673 18.0368C8.94198 18.209 9.78936 18.7359 10.3764 19.101L10.3764 19.101C10.4398 19.1404 10.5001 19.1779 10.5573 19.2129C11.2484 19.6357 11.6329 19.8079 12.0195 19.8079C12.4061 19.8079 12.7907 19.6357 13.4818 19.2129C13.5389 19.1779 13.5993 19.1404 13.6626 19.101C14.127 18.8122 14.7543 18.4222 15.4938 18.1865L10.2555 13.603C9.67558 13.9617 8.87491 14.4314 7.93674 14.5921L7.82089 14.612H7.78633ZM9.27429 12.7445C9.09245 12.8523 8.90834 12.9557 8.71953 13.0481C8.39837 13.2053 8.06358 13.3308 7.70312 13.3926H6.76758C6.61177 13.3926 6.48633 13.518 6.48633 13.6738V13.9121H5.18633H4.31172H3.01172V15.1315V17.4974V18.7168H4.31172H5.18633H6.48633V18.9551C6.48633 19.1109 6.61177 19.2363 6.76758 19.2363H7.70312C8.43042 19.361 9.05319 19.745 9.67048 20.1256C10.4055 20.5789 11.1328 21.0273 12.0195 21.0273C12.9063 21.0273 13.6335 20.5789 14.3686 20.1256C14.9859 19.745 15.6086 19.3609 16.3359 19.2363H16.6936L19.4403 21.6397L20.5597 20.3603L4.55973 6.36031L3.44027 7.63969L9.27429 12.7445ZM20.8285 18.7168L19.4428 17.4974H19.6883V15.1315H17.5137H16.7543L16.2137 14.6558V14.6112L16.1508 14.6004L12.9143 11.7523C13.0644 11.8021 13.2109 11.8622 13.355 11.9297C13.5111 12.0028 13.6644 12.0846 13.8162 12.1712C14.0016 12.277 14.1848 12.39 14.3686 12.5033C14.6675 12.6876 14.9677 12.8727 15.2805 13.0288C15.6135 13.195 15.9608 13.3283 16.3359 13.3926H17.2324C17.3882 13.3926 17.5137 13.518 17.5137 13.6738V13.9121H18.8137H19.6883H20.9883V15.1315V17.4974V18.7168H20.8285ZM12.6805 11.3415C12.5824 11.3168 12.4826 11.297 12.3809 11.2829L10.2971 9.44922H10.4844H11.2969H11.3195H11.7844H12.2156H12.6805H12.7031H13.5156H13.9805V9.54362V10.2331V10.5192V10.6686V10.8592V11.9297C13.564 11.6804 13.141 11.4573 12.6805 11.3415ZM8.71953 8.31641H8.51172C7.9231 8.31641 7.44922 7.84253 7.44922 7.25391V4.03516C7.44922 3.44653 7.9231 2.97266 8.51172 2.97266C9.23931 2.97266 9.67783 3.19334 10.1302 3.42101C10.6141 3.6645 11.1138 3.91598 12 3.91406C12.8859 3.91215 13.3884 3.66306 13.8734 3.42269C14.3272 3.19777 14.7656 2.98047 15.4883 2.98047C16.0769 2.98047 16.5508 3.45434 16.5508 4.04297V7.26171C16.5508 7.85034 16.0769 8.32421 15.4883 8.32421H15.2805H14.8156H14.0031H13.9805H13.5156V8.22982V7.91407V7.48046H13.2785H12.7031H12.2156H11.9785V7.47266H11.7844H11.2969H10.6785H10.4844V7.91407V8.22982V8.31641H10.0195H9.99688H9.18438H8.71953ZM9.18438 7.097H8.74922V4.20621C9.00625 4.24021 9.20101 4.33754 9.56379 4.51975C10.1 4.78905 10.8245 5.13602 12.003 5.13346C13.1746 5.13093 13.8971 4.78959 14.433 4.52446C14.7972 4.34431 14.9936 4.24774 15.2508 4.21395V7.10481H14.8156V6.26106H13.5156H13.2785V6.25325H11.9785H10.4844H9.18438V7.097ZM12.7031 9.01367V8.69987V8.32421V8.22982V7.91407H12.5969H12.2156H11.9785H11.7844H11.4031H11.2969V8.22982V8.31641V8.69206V8.69987V9.01367H11.4031H11.7844H12.2156H12.5969H12.7031Z" fill="#828282"/>
<rect x="0.05" y="0.05" width="23.9" height="23.9" stroke="#BB6BD9" stroke-width="0.1"/>
</svg>
