<svg xmlns="http://www.w3.org/2000/svg" fill="none" viewBox="0 0 24 24"><defs/><g fill="#003769" filter="url(#filter0_d)"><path fill-rule="evenodd" d="M7.79 14.4h-.3v.52H4v2.8H7.5v.53h.3l.08.01c.93.16 1.72.65 2.32 1.02l.18.11c.68.42 1.14.65 1.65.65.5 0 .97-.23 1.65-.65l.18-.11c.6-.37 1.39-.86 2.32-1.02l.08-.01h.26v-.52H20v-2.8H16.5v-.53h-.26l-.08-.01a6.55 6.55 0 01-2.32-1.02l-.18-.11c-.68-.42-1.15-.65-1.65-.65s-.97.23-1.65.65l-.18.11c-.6.37-1.39.86-2.32 1.02l-.08.01zm13.2-.48v4.8H17.5v.24c0 .16-.12.29-.28.29h-.9c-.72.12-1.34.5-1.96.89-.74.45-1.46.9-2.35.9-.89 0-1.61-.45-2.35-.9a5.63 5.63 0 00-1.97-.9h-.93a.28.28 0 01-.28-.28v-.23H3v-4.8H6.5v-.25c0-.15.12-.28.28-.28h.93c.48-.08.9-.27 1.32-.5a16.53 16.53 0 001.15-.69 7 7 0 01.85-.41c.31-.12.64-.19 1-.19a2.85 2.85 0 011.34.33 6.47 6.47 0 011 .57l.62.37c.43.24.87.44 1.36.52h.9c.15 0 .27.13.27.28v.24H21zM10.02 9.46v2.5a6 6 0 011-.5c.31-.12.64-.2 1-.2.34 0 .66.07.96.18.35.13.68.3 1 .5V9.46h-3.96zm5.47-1.13c.59 0 1.06-.47 1.06-1.06V4.05c0-.59-.47-1.06-1.06-1.06-.72 0-1.16.22-1.62.44-.48.24-.98.5-1.87.5-.89 0-1.39-.26-1.87-.5-.45-.23-.9-.45-1.62-.45-.59 0-1.06.48-1.06 1.06v3.22c0 .6.47 1.07 1.06 1.07h1.97v-.85h1.5v.01h1.54v.84h1.97zm-2.79-.4h-1.4v1.1h1.4v-1.1zm1.82-.6h.97c.03 0 .06-.02.06-.06V4.05A.06.06 0 0015.5 4c-.49 0-.75.13-1.2.35l-.02.01a4.7 4.7 0 01-4.54 0l-.02-.01c-.45-.23-.7-.36-1.2-.36a.06.06 0 00-.06.06v3.22c0 .04.03.07.06.07h.97v-.85h3.5v.01h1.54v.84z" clip-rule="evenodd"/><path d="M11.96 14.24v.94H9.35v2.27h2.61v.94l3.55-2.08-3.55-2.07z"/></g><path stroke="#BB6BD9" stroke-width=".1" d="M.05.05h23.9v23.9H.05z"/><defs><filter id="filter0_d" width="19.98" height="20.05" x="2.51" y="2.48" color-interpolation-filters="sRGB" filterUnits="userSpaceOnUse"><feFlood flood-opacity="0" result="BackgroundImageFix"/><feColorMatrix in="SourceAlpha" values="0 0 0 0 0 0 0 0 0 0 0 0 0 0 0 0 0 0 127 0"/><feOffset dx=".5" dy=".5"/><feGaussianBlur stdDeviation=".5"/><feColorMatrix values="0 0 0 0 0 0 0 0 0 0 0 0 0 0 0 0 0 0 0.25 0"/><feBlend in2="BackgroundImageFix" result="effect1_dropShadow"/><feBlend in="SourceGraphic" in2="effect1_dropShadow" result="shape"/></filter></defs></svg>