<svg xmlns="http://www.w3.org/2000/svg" fill="none" viewBox="0 0 24 24"><defs/><path fill="#828282" fill-rule="evenodd" d="M15.15 16.97l2.25 2.25 1.04-1.04L2.25 2 1.21 3.04 3.47 5.3A17.35 17.35 0 001.8 6.35l-.08.06-.72.52 2.66 3.4.65-.47.03-.01c.72-.52 1.51-.97 2.35-1.34l.73.74a11.86 11.86 0 00-2.45 1.35l-.7.51 2.66 3.4.65-.46a7.46 7.46 0 013.31-1.33l.87.87a6.42 6.42 0 00-3.52 1.2l-.7.5L12 21l3.15-4.03zm-.7-.7L12 19.41 8.94 15.5a5.45 5.45 0 013.86-.88l1.65 1.65zm-4.4-4.4l-1.87-1.86c-.9.32-1.74.77-2.5 1.3l1.44 1.86a8.41 8.41 0 012.93-1.3zm-4.1-4.1L4.2 6.03a16.37 16.37 0 00-1.8 1.1l1.45 1.86c.66-.46 1.36-.87 2.1-1.22z" clip-rule="evenodd"/><path fill="#828282" d="M16.42 14.05l-.45-.3-1.83-1.83c1 .26 1.92.69 2.74 1.25l1.45-1.86a11 11 0 00-6.77-1.97l-.91-.91a11.98 11.98 0 018.38 2.17l.7.51-2.66 3.4-.65-.46z"/><path fill="#828282" d="M12 7.4c-.75 0-1.48.07-2.2.19l-.83-.84a14.37 14.37 0 0111.18 2.24l1.45-1.86-.61-.41A16.82 16.82 0 007.06 4.85l-.78-.78A17.77 17.77 0 0122.2 6.35l.08.06.72.52-2.66 3.4-.65-.47-.03-.01A13.11 13.11 0 0012 7.4z"/><path stroke="#BB6BD9" stroke-width=".1" d="M.05.05h23.9v23.9H.05z"/></svg>