<svg width="24" height="24" viewBox="0 0 24 24" fill="none" xmlns="http://www.w3.org/2000/svg">
<path d="M8.24302 14.743C9.2897 13.9845 10.5947 13.5317 12 13.5317C13.4053 13.5317 14.7103 13.9845 15.757 14.743L16.4607 15.253L12 21L7.53932 15.253L8.24302 14.743Z" fill="#01488A"/>
<path fill-rule="evenodd" clip-rule="evenodd" d="M4.97269 10.5307C6.93778 9.10428 9.36946 8.26585 12 8.26585C14.6306 8.26585 17.0622 9.10428 19.0273 10.5307L19.7301 11.0409L17.0671 14.4717L16.4161 13.9978C15.1937 13.108 13.6658 12.5773 12 12.5773C10.3343 12.5773 8.80628 13.108 7.58393 13.9978L6.9329 14.4717L4.26994 11.0409L4.97269 10.5307Z" fill="#01488A"/>
<path fill-rule="evenodd" clip-rule="evenodd" d="M4.33967 9.76663C6.46659 8.22935 9.1203 7.31142 12 7.31142C14.8797 7.31142 17.5335 8.22936 19.6604 9.76665L19.6865 9.78557L20.3374 10.2585L23 6.82804L22.2823 6.3073C22.2561 6.28832 22.2298 6.2694 22.2034 6.25056C21.979 6.09004 21.7505 5.93468 21.5179 5.78466C18.7901 4.02475 15.5154 3 12 3C8.48459 3 5.20994 4.02475 2.48208 5.78466C2.24955 5.93468 2.021 6.09004 1.7966 6.25056C1.77026 6.2694 1.74398 6.28831 1.71776 6.30729L1 6.82801L3.66269 10.2585L4.31357 9.78555L4.33967 9.76663ZM3.8547 8.90214C6.13028 7.28432 8.95028 6.32407 12 6.32407C15.0497 6.32407 17.8697 7.28433 20.1453 8.90213L21.5989 7.02946C21.3989 6.88724 21.1954 6.74934 20.9886 6.61591C18.4157 4.95596 15.3242 3.98735 12 3.98735C8.67583 3.98735 5.58435 4.95596 3.01143 6.61591C2.80461 6.74934 2.60114 6.88724 2.40117 7.02946L3.8547 8.90214Z" fill="#01488A"/>
<rect x="0.05" y="0.05" width="23.9" height="23.9" stroke="#BB6BD9" stroke-width="0.1"/>
</svg>
