<svg xmlns="http://www.w3.org/2000/svg" fill="none" viewBox="0 0 24 24"><defs/><path fill="#01488A" d="M8.24 14.74a6.4 6.4 0 017.52 0l.7.51L12 21l-4.46-5.75.7-.5z"/><path fill="#01488A" fill-rule="evenodd" d="M4.27 11.04l.7-.5.1-.08A11.93 11.93 0 0112 8.26a11.93 11.93 0 017.03 2.27l.7.51-2.66 3.43-.65-.47A7.48 7.48 0 0012 12.58c-1.67 0-3.2.53-4.42 1.42l-.65.47-2.66-3.43zm2.85 2.08l-1.45-1.88A10.95 10.95 0 0112 9.25c2.37 0 4.55.74 6.33 2l-1.45 1.87A8.46 8.46 0 0012 11.59c-1.82 0-3.5.57-4.88 1.53z" clip-rule="evenodd"/><path fill="#01488A" fill-rule="evenodd" d="M4.34 9.77A13.05 13.05 0 0112 7.3c2.88 0 5.53.92 7.66 2.46l.03.02.65.47L23 6.83l-.72-.52a13.66 13.66 0 00-.76-.53C18.79 4.02 15.52 3 12 3A17.51 17.51 0 001.72 6.3L1 6.84l2.66 3.43.65-.47.03-.02zm-.49-.87A14.03 14.03 0 0112 6.32c3.05 0 5.87.96 8.15 2.58l1.45-1.87A16.34 16.34 0 0012 3.99a16.54 16.54 0 00-9.6 3.04L3.85 8.9z" clip-rule="evenodd"/><path stroke="#BB6BD9" stroke-width=".1" d="M.05.05h23.9v23.9H.05z"/></svg>