<svg width="24" height="24" viewBox="0 0 24 24" fill="none" xmlns="http://www.w3.org/2000/svg">
<path fill-rule="evenodd" clip-rule="evenodd" d="M15.1493 16.9712L17.3952 19.2157L18.4356 18.1759L2.25011 2L1.20967 3.03983L3.47384 5.30265C3.13592 5.48866 2.80516 5.68539 2.48208 5.89235C2.24955 6.04131 2.021 6.19557 1.7966 6.35495L1.71776 6.41129L1 6.92832L3.66269 10.3345L4.31357 9.86492L4.33967 9.84614C5.06428 9.32612 5.85003 8.87748 6.68502 8.51193L7.42159 9.24807C6.58304 9.59053 5.79359 10.0246 5.06649 10.5379C5.03511 10.5601 5.00384 10.5824 4.97269 10.6049L4.26994 11.1114L6.9329 14.5179L7.58393 14.0474C8.52949 13.364 9.65793 12.8938 10.8916 12.716L11.7649 13.5888C10.4906 13.6344 9.30758 14.0491 8.33664 14.7213C8.30521 14.743 8.274 14.765 8.24302 14.7873L7.53932 15.2937L12 21L15.1493 16.9712ZM14.4505 16.2728L12 19.4076L8.94173 15.4953C9.80372 14.912 10.8614 14.5649 12 14.5649C12.2716 14.5649 12.5386 14.5847 12.7994 14.6227L14.4505 16.2728ZM10.0514 11.8764L8.17991 10.0059C7.28028 10.3341 6.43802 10.7751 5.67117 11.3115L7.12473 13.1709C7.9885 12.5689 8.97913 12.123 10.0514 11.8764ZM5.94427 7.77162L4.1978 6.02619C3.79141 6.24078 3.39564 6.47159 3.01143 6.71772C2.80461 6.8502 2.60114 6.98713 2.40117 7.12834L3.8547 8.98776C4.50874 8.52607 5.20775 8.11831 5.94427 7.77162Z" fill="#828282"/>
<path d="M16.4161 14.0474C16.2701 13.9419 16.1198 13.8414 15.9654 13.7464L14.1408 11.9229C15.1394 12.1771 16.0634 12.605 16.8753 13.1709L18.3289 11.3115C16.55 10.0671 14.3653 9.33635 12 9.33635C11.853 9.33635 11.7067 9.33918 11.5611 9.34477L10.6461 8.43032C11.0905 8.38121 11.5422 8.35599 12 8.35599C14.5889 8.35599 16.9851 9.1623 18.9335 10.5379C18.9649 10.5601 18.9962 10.5824 19.0273 10.6049L19.7301 11.1114L17.0671 14.5179L16.4161 14.0474Z" fill="#828282"/>
<path d="M12 7.4083C11.2508 7.4083 10.5168 7.47 9.80348 7.58818L8.9651 6.75029C9.9415 6.5394 10.9573 6.42795 12 6.42795C15.0497 6.42795 17.8697 7.38141 20.1453 8.98776L21.5989 7.12834C21.3989 6.98713 21.1954 6.85021 20.9886 6.71772C18.4157 5.06952 15.3242 4.10776 12 4.10776C10.277 4.10776 8.61647 4.36616 7.05828 4.8446L6.27935 4.06613C8.0702 3.45807 9.99598 3.12741 12 3.12741C15.5154 3.12741 18.7901 4.1449 21.5179 5.89235C21.7505 6.04131 21.979 6.19557 22.2034 6.35495L22.2823 6.4113L23 6.92835L20.3374 10.3345L19.6865 9.86494L19.6604 9.84616C17.5335 8.31975 14.8797 7.4083 12 7.4083Z" fill="#828282"/>
<rect x="0.05" y="0.05" width="23.9" height="23.9" stroke="#BB6BD9" stroke-width="0.1"/>
</svg>
