<svg fill="none" xmlns="http://www.w3.org/2000/svg" viewBox="0 0 24 24">
  <defs/>
  <path d="M8.243 14.743A6.397 6.397 0 0112 13.532c1.405 0 2.71.453 3.757 1.211l.704.51L12 21l-4.46-5.747.703-.51z" fill="#01488A"/>
  <path fill-rule="evenodd" clip-rule="evenodd" d="M4.27 11.04l.703-.51.093-.067A11.925 11.925 0 0112 8.266a11.925 11.925 0 017.027 2.265l.703.51-2.663 3.43-.65-.473A7.479 7.479 0 0012 12.578c-1.666 0-3.194.53-4.416 1.42l-.651.474L4.27 11.04zm2.855 2.075L5.67 11.242A10.95 10.95 0 0112 9.253c2.365 0 4.55.736 6.329 1.99l-1.454 1.872A8.46 8.46 0 0012 11.59a8.461 8.461 0 00-4.875 1.525z" fill="#01488A"/>
  <path fill-rule="evenodd" clip-rule="evenodd" d="M4.34 9.767A13.046 13.046 0 0112 7.31c2.88 0 5.534.918 7.66 2.456l.026.019.651.473L23 6.827l-.718-.52a17.228 17.228 0 00-.764-.523A17.513 17.513 0 0012 3 17.513 17.513 0 001.718 6.307L1 6.828l2.663 3.43.65-.472.027-.02zm-.485-.865A14.026 14.026 0 0112 6.324c3.05 0 5.87.96 8.145 2.578L21.6 7.03A16.536 16.536 0 0012 3.987 16.536 16.536 0 002.401 7.03l1.454 1.873z" fill="#01488A"/>
</svg>
