<svg width="24" height="24" viewBox="0 0 24 24" fill="none" xmlns="http://www.w3.org/2000/svg">
<path d="M8.24302 14.743C9.2897 13.9845 10.5947 13.5317 12 13.5317C13.4053 13.5317 14.7103 13.9845 15.757 14.743L16.4607 15.253L12 21L7.53932 15.253L8.24302 14.743Z" fill="#01488A"/>
<path fill-rule="evenodd" clip-rule="evenodd" d="M4.97269 10.5307C6.93778 9.10428 9.36946 8.26585 12 8.26585C14.6306 8.26585 17.0622 9.10428 19.0273 10.5307L19.7301 11.0409L17.0671 14.4717L16.4161 13.9978C15.1937 13.108 13.6658 12.5773 12 12.5773C10.3343 12.5773 8.80628 13.108 7.58393 13.9978L6.9329 14.4717L4.26994 11.0409L4.97269 10.5307Z" fill="#01488A"/>
<path d="M2.48208 5.78466C5.20994 4.02475 8.48459 3 12 3C15.5154 3 18.7901 4.02475 21.5179 5.78466C21.7778 5.95229 22.0326 6.12659 22.2823 6.3073L23 6.82804L20.3374 10.2585L19.6865 9.78557L19.6604 9.76665C17.5335 8.22936 14.8797 7.31142 12 7.31142C9.1203 7.31142 6.46659 8.22935 4.33967 9.76663L4.31357 9.78555L3.66269 10.2585L1 6.82801L1.71776 6.30729C1.9674 6.12658 2.22226 5.95228 2.48208 5.78466Z" fill="#01488A"/>
<rect x="0.05" y="0.05" width="23.9" height="23.9" stroke="#BB6BD9" stroke-width="0.1"/>
</svg>
