<svg fill="none" xmlns="http://www.w3.org/2000/svg" viewBox="0 0 24 24">
  <defs/>
  <path fill-rule="evenodd" clip-rule="evenodd" d="M15.15 16.971l2.245 2.245 1.04-1.04L2.25 2 1.21 3.04l2.264 2.263a17.346 17.346 0 00-1.677 1.052l-.08.056L1 6.928l2.663 3.407.65-.47.027-.019a12.83 12.83 0 012.345-1.334l.737.736a11.855 11.855 0 00-2.45 1.357l-.702.506 2.663 3.407.65-.47a7.456 7.456 0 013.309-1.332l.873.873a6.423 6.423 0 00-3.522 1.198l-.704.507L12 21l3.15-4.029zm-.7-.698L12 19.408l-3.058-3.913a5.451 5.451 0 013.058-.93c.272 0 .539.02.8.058l1.65 1.65zm-4.399-4.397l-1.871-1.87c-.9.328-1.742.77-2.509 1.306l1.454 1.859a8.415 8.415 0 012.926-1.295zM5.944 7.772L4.198 6.026A16.368 16.368 0 002.4 7.128l1.454 1.86a13.75 13.75 0 012.09-1.216z" fill="#565656"/>
  <path d="M16.416 14.047a7.31 7.31 0 00-.45-.3l-1.825-1.824a8.408 8.408 0 012.734 1.248l1.454-1.86a11.004 11.004 0 00-6.768-1.966l-.915-.915c.444-.049.896-.074 1.354-.074a11.984 11.984 0 017.027 2.249l.703.506-2.663 3.407-.65-.47z" fill="#565656"/>
  <path d="M12 7.408c-.75 0-1.483.062-2.197.18l-.838-.838A14.42 14.42 0 0112 6.428c3.05 0 5.87.953 8.145 2.56l1.454-1.86A16.622 16.622 0 0012 4.108c-1.723 0-3.384.258-4.942.737l-.779-.779A17.77 17.77 0 0112 3.127a17.603 17.603 0 0110.203 3.228l.08.056.717.517-2.663 3.407-.65-.47-.027-.019A13.11 13.11 0 0012 7.408z" fill="#565656"/>
</svg>
