<svg xmlns="http://www.w3.org/2000/svg" fill="none" viewBox="0 0 24 24"><defs/><path fill="#01488A" d="M8.24 14.74a6.4 6.4 0 017.52 0l.7.51L12 21l-4.46-5.75.7-.5z"/><path fill="#01488A" fill-rule="evenodd" d="M4.97 10.53A11.92 11.92 0 0112 8.27c2.63 0 5.06.83 7.03 2.26l.7.51-2.66 3.43-.65-.47A7.48 7.48 0 0012 12.58c-1.67 0-3.2.53-4.42 1.42l-.65.47-2.66-3.43.7-.5z" clip-rule="evenodd"/><path fill="#01488A" d="M2.48 5.78C5.21 4.02 8.48 3 12 3a17.51 17.51 0 0110.28 3.3l.72.53-2.66 3.43-.65-.47-.03-.02A13.05 13.05 0 0012 7.3c-2.88 0-5.53.92-7.66 2.46l-.03.02-.65.47L1 6.83l.72-.52.76-.53z"/><path stroke="#BB6BD9" stroke-width=".1" d="M.05.05h23.9v23.9H.05z"/></svg>